<svg width="223.199951" height="208.853394" viewBox="0 0 223.2 208.853" fill="none" xmlns="http://www.w3.org/2000/svg" xmlns:xlink="http://www.w3.org/1999/xlink">
	<desc>
			Created with Pixso.
	</desc>
	<defs>
		<linearGradient x1="93.041443" y1="115.604004" x2="127.564148" y2="135.597229" id="paint_linear_7_1608_0" gradientUnits="userSpaceOnUse">
			<stop offset="0.000000" stop-color="#FC6865"/>
			<stop offset="1.000000" stop-color="#F24E4E"/>
		</linearGradient>
		<linearGradient x1="131.620117" y1="200.348145" x2="148.939911" y2="198.178375" id="paint_linear_7_1616_0" gradientUnits="userSpaceOnUse">
			<stop offset="0.000000" stop-color="#78A7FF"/>
			<stop offset="1.000000" stop-color="#3D79F3"/>
		</linearGradient>
		<linearGradient x1="137.076401" y1="166.308609" x2="98.202095" y2="168.778564" id="paint_linear_7_1628_0" gradientUnits="userSpaceOnUse">
			<stop stop-color="#771E24"/>
			<stop offset="1.000000" stop-color="#47090E"/>
		</linearGradient>
		<linearGradient x1="92.142715" y1="207.946136" x2="93.599747" y2="177.177200" id="paint_linear_7_1630_0" gradientUnits="userSpaceOnUse">
			<stop stop-color="#E7ECFF"/>
			<stop offset="1.000000" stop-color="#C2D5FF"/>
		</linearGradient>
		<linearGradient x1="61.664803" y1="133.526031" x2="114.327240" y2="133.526031" id="paint_linear_7_1631_0" gradientUnits="userSpaceOnUse">
			<stop stop-color="#E7ECFF"/>
			<stop offset="1.000000" stop-color="#C2D5FF"/>
		</linearGradient>
		<linearGradient x1="84.867874" y1="112.806595" x2="90.126701" y2="151.395065" id="paint_linear_7_1633_0" gradientUnits="userSpaceOnUse">
			<stop offset="0.000000" stop-color="#FC6865"/>
			<stop offset="1.000000" stop-color="#F24E4E"/>
		</linearGradient>
		<linearGradient x1="96.824844" y1="83.642784" x2="77.115814" y2="83.642784" id="paint_linear_7_1638_0" gradientUnits="userSpaceOnUse">
			<stop stop-color="#771E24"/>
			<stop offset="1.000000" stop-color="#47090E"/>
		</linearGradient>
		<linearGradient x1="91.282555" y1="86.556038" x2="93.596558" y2="86.556038" id="paint_linear_7_1641_0" gradientUnits="userSpaceOnUse">
			<stop stop-color="#771E24"/>
			<stop offset="1.000000" stop-color="#47090E"/>
		</linearGradient>
		<linearGradient x1="87.438965" y1="86.556038" x2="89.752975" y2="86.556038" id="paint_linear_7_1642_0" gradientUnits="userSpaceOnUse">
			<stop stop-color="#771E24"/>
			<stop offset="1.000000" stop-color="#47090E"/>
		</linearGradient>
		<linearGradient x1="115.880142" y1="199.808685" x2="133.335312" y2="199.808685" id="paint_linear_7_1667_0" gradientUnits="userSpaceOnUse">
			<stop offset="0.000000" stop-color="#78A7FF"/>
			<stop offset="1.000000" stop-color="#3D79F3"/>
		</linearGradient>
		<linearGradient x1="97.336899" y1="169.732422" x2="98.840393" y2="135.260986" id="paint_linear_7_1680_0" gradientUnits="userSpaceOnUse">
			<stop stop-color="#771E24"/>
			<stop offset="1.000000" stop-color="#47090E"/>
		</linearGradient>
		<linearGradient x1="110.405205" y1="134.990982" x2="110.823318" y2="146.071701" id="paint_linear_7_1683_0" gradientUnits="userSpaceOnUse">
			<stop stop-color="#E7ECFF"/>
			<stop offset="1.000000" stop-color="#C2D5FF"/>
		</linearGradient>
		<linearGradient x1="174.247757" y1="151.468353" x2="171.544388" y2="192.919434" id="paint_linear_7_1685_0" gradientUnits="userSpaceOnUse">
			<stop stop-color="#E7ECFF"/>
			<stop offset="1.000000" stop-color="#C2D5FF"/>
		</linearGradient>
		<linearGradient x1="160.830536" y1="151.468796" x2="158.127167" y2="192.919876" id="paint_linear_7_1686_0" gradientUnits="userSpaceOnUse">
			<stop stop-color="#E7ECFF"/>
			<stop offset="1.000000" stop-color="#C2D5FF"/>
		</linearGradient>
		<linearGradient x1="66.252068" y1="151.468079" x2="63.548698" y2="192.919113" id="paint_linear_7_1687_0" gradientUnits="userSpaceOnUse">
			<stop stop-color="#E7ECFF"/>
			<stop offset="1.000000" stop-color="#C2D5FF"/>
		</linearGradient>
		<linearGradient x1="52.834824" y1="151.468460" x2="50.131531" y2="192.919495" id="paint_linear_7_1688_0" gradientUnits="userSpaceOnUse">
			<stop stop-color="#E7ECFF"/>
			<stop offset="1.000000" stop-color="#C2D5FF"/>
		</linearGradient>
		<linearGradient x1="84.535629" y1="104.164146" x2="82.830139" y2="138.589493" id="paint_linear_7_1690_0" gradientUnits="userSpaceOnUse">
			<stop offset="0.000000" stop-color="#FC6865"/>
			<stop offset="1.000000" stop-color="#F24E4E"/>
		</linearGradient>
		<linearGradient x1="34.965950" y1="185.481644" x2="23.766573" y2="185.481644" id="paint_linear_7_1693_0" gradientUnits="userSpaceOnUse">
			<stop stop-color="#E7ECFF"/>
			<stop offset="1.000000" stop-color="#C2D5FF"/>
		</linearGradient>
		<linearGradient x1="48.605400" y1="186.876846" x2="37.406021" y2="186.876846" id="paint_linear_7_1694_0" gradientUnits="userSpaceOnUse">
			<stop stop-color="#E7ECFF"/>
			<stop offset="1.000000" stop-color="#C2D5FF"/>
		</linearGradient>
		<linearGradient x1="42.705406" y1="178.119019" x2="32.140869" y2="178.119019" id="paint_linear_7_1695_0" gradientUnits="userSpaceOnUse">
			<stop stop-color="#E7ECFF"/>
			<stop offset="1.000000" stop-color="#C2D5FF"/>
		</linearGradient>
		<linearGradient x1="43.005600" y1="199.572556" x2="29.844482" y2="199.572556" id="paint_linear_7_1703_0" gradientUnits="userSpaceOnUse">
			<stop stop-color="#E7ECFF"/>
			<stop offset="1.000000" stop-color="#C2D5FF"/>
		</linearGradient>
		<linearGradient x1="141.602936" y1="68.303749" x2="221.064453" y2="68.303749" id="paint_linear_7_1709_0" gradientUnits="userSpaceOnUse">
			<stop offset="0.000000" stop-color="#78A7FF"/>
			<stop offset="1.000000" stop-color="#3D79F3"/>
		</linearGradient>
		<linearGradient x1="180.963135" y1="85.527512" x2="182.144745" y2="14.051064" id="paint_linear_7_1710_0" gradientUnits="userSpaceOnUse">
			<stop stop-color="#E7ECFF"/>
			<stop offset="1.000000" stop-color="#C2D5FF"/>
		</linearGradient>
		<linearGradient x1="0.000000" y1="2.400000" x2="4.800000" y2="2.400000" id="paint_linear_7_1711_0" gradientUnits="userSpaceOnUse">
			<stop stop-color="#E7ECFF"/>
			<stop offset="1.000000" stop-color="#C2D5FF"/>
		</linearGradient>
		<linearGradient x1="0.000000" y1="2.400000" x2="4.800000" y2="2.400000" id="paint_linear_7_1712_0" gradientUnits="userSpaceOnUse">
			<stop stop-color="#E7ECFF"/>
			<stop offset="1.000000" stop-color="#C2D5FF"/>
		</linearGradient>
		<linearGradient x1="188.209717" y1="60.714535" x2="193.091125" y2="60.714535" id="paint_linear_7_1726_0" gradientUnits="userSpaceOnUse">
			<stop offset="0.000000" stop-color="#B3B3FF"/>
			<stop offset="1.000000" stop-color="#C2D5FF"/>
		</linearGradient>
		<linearGradient x1="203.427719" y1="59.267738" x2="208.309158" y2="59.267738" id="paint_linear_7_1728_0" gradientUnits="userSpaceOnUse">
			<stop offset="0.000000" stop-color="#B3B3FF"/>
			<stop offset="1.000000" stop-color="#C2D5FF"/>
		</linearGradient>
		<linearGradient x1="164.140289" y1="78.353844" x2="175.729065" y2="78.353844" id="paint_linear_7_1734_0" gradientUnits="userSpaceOnUse">
			<stop offset="0.000000" stop-color="#B3B3FF"/>
			<stop offset="1.000000" stop-color="#C2D5FF"/>
		</linearGradient>
		<linearGradient x1="164.141968" y1="84.379036" x2="175.727631" y2="84.379036" id="paint_linear_7_1735_0" gradientUnits="userSpaceOnUse">
			<stop offset="0.000000" stop-color="#B3B3FF"/>
			<stop offset="1.000000" stop-color="#C2D5FF"/>
		</linearGradient>
		<linearGradient x1="180.102585" y1="78.353851" x2="191.691376" y2="78.353851" id="paint_linear_7_1737_0" gradientUnits="userSpaceOnUse">
			<stop offset="0.000000" stop-color="#FFBB83"/>
			<stop offset="1.000000" stop-color="#FF9D45"/>
		</linearGradient>
		<linearGradient x1="180.104233" y1="84.379044" x2="191.689896" y2="84.379044" id="paint_linear_7_1738_0" gradientUnits="userSpaceOnUse">
			<stop offset="0.000000" stop-color="#FFBB83"/>
			<stop offset="1.000000" stop-color="#FF9D45"/>
		</linearGradient>
		<linearGradient x1="153.006836" y1="55.967358" x2="176.873001" y2="55.967358" id="paint_linear_7_1740_0" gradientUnits="userSpaceOnUse">
			<stop offset="0.000000" stop-color="#FFBB83"/>
			<stop offset="1.000000" stop-color="#FF9D45"/>
		</linearGradient>
		<linearGradient x1="164.945969" y1="50.232826" x2="176.885086" y2="50.232826" id="paint_linear_7_1741_0" gradientUnits="userSpaceOnUse">
			<stop offset="0.000000" stop-color="#B3B3FF"/>
			<stop offset="1.000000" stop-color="#C2D5FF"/>
		</linearGradient>
		<linearGradient x1="201.556976" y1="71.883286" x2="212.269608" y2="71.883286" id="paint_linear_7_1753_0" gradientUnits="userSpaceOnUse">
			<stop offset="0.000000" stop-color="#B3B3FF"/>
			<stop offset="1.000000" stop-color="#C2D5FF"/>
		</linearGradient>
		<linearGradient x1="182.639008" y1="49.093826" x2="213.879730" y2="49.093826" id="paint_linear_7_1758_0" gradientUnits="userSpaceOnUse">
			<stop offset="0.000000" stop-color="#B3B3FF"/>
			<stop offset="1.000000" stop-color="#C2D5FF"/>
		</linearGradient>
		<linearGradient x1="136.304535" y1="131.344055" x2="140.402298" y2="107.108673" id="paint_linear_7_1763_0" gradientUnits="userSpaceOnUse">
			<stop stop-color="#E7ECFF"/>
			<stop offset="1.000000" stop-color="#C2D5FF"/>
		</linearGradient>
		<linearGradient x1="86.785011" y1="121.285828" x2="119.265701" y2="121.285828" id="paint_linear_7_1764_0" gradientUnits="userSpaceOnUse">
			<stop offset="0.000000" stop-color="#78A7FF"/>
			<stop offset="1.000000" stop-color="#3D79F3"/>
		</linearGradient>
		<linearGradient x1="58.927773" y1="135.196884" x2="46.478760" y2="135.196884" id="paint_linear_7_1768_0" gradientUnits="userSpaceOnUse">
			<stop offset="0.000000" stop-color="#A7C161"/>
			<stop offset="1.000000" stop-color="#8BA53A"/>
		</linearGradient>
		<linearGradient x1="68.930298" y1="135.196899" x2="56.715973" y2="135.196899" id="paint_linear_7_1770_0" gradientUnits="userSpaceOnUse">
			<stop offset="0.000000" stop-color="#A7C161"/>
			<stop offset="1.000000" stop-color="#8BA53A"/>
		</linearGradient>
		<linearGradient x1="68.930237" y1="139.620132" x2="56.481224" y2="139.620132" id="paint_linear_7_1772_0" gradientUnits="userSpaceOnUse">
			<stop offset="0.000000" stop-color="#FF8888"/>
			<stop offset="1.000000" stop-color="#F24E4E"/>
		</linearGradient>
		<linearGradient x1="58.693092" y1="139.620148" x2="46.478760" y2="139.620148" id="paint_linear_7_1774_0" gradientUnits="userSpaceOnUse">
			<stop offset="0.000000" stop-color="#FF8888"/>
			<stop offset="1.000000" stop-color="#F24E4E"/>
		</linearGradient>
		<linearGradient x1="82.538574" y1="56.838428" x2="122.080246" y2="56.838428" id="paint_linear_7_1776_0" gradientUnits="userSpaceOnUse">
			<stop stop-color="#E7ECFF"/>
			<stop offset="1.000000" stop-color="#C2D5FF"/>
		</linearGradient>
		<linearGradient x1="84.963387" y1="44.945377" x2="91.925804" y2="44.945377" id="paint_linear_7_1779_0" gradientUnits="userSpaceOnUse">
			<stop stop-color="#E7ECFF"/>
			<stop offset="1.000000" stop-color="#C2D5FF"/>
		</linearGradient>
		<linearGradient x1="91.925812" y1="46.143776" x2="98.030060" y2="46.143776" id="paint_linear_7_1784_0" gradientUnits="userSpaceOnUse">
			<stop stop-color="#E7ECFF"/>
			<stop offset="1.000000" stop-color="#C2D5FF"/>
		</linearGradient>
		<linearGradient x1="98.030052" y1="44.945381" x2="104.992477" y2="44.945381" id="paint_linear_7_1788_0" gradientUnits="userSpaceOnUse">
			<stop stop-color="#E7ECFF"/>
			<stop offset="1.000000" stop-color="#C2D5FF"/>
		</linearGradient>
		<linearGradient x1="110.562775" y1="42.932526" x2="117.598213" y2="42.932526" id="paint_linear_7_1795_0" gradientUnits="userSpaceOnUse">
			<stop stop-color="#E7ECFF"/>
			<stop offset="1.000000" stop-color="#C2D5FF"/>
		</linearGradient>
		<linearGradient x1="113.413895" y1="41.730171" x2="121.948357" y2="41.730171" id="paint_linear_7_1797_0" gradientUnits="userSpaceOnUse">
			<stop stop-color="#E7ECFF"/>
			<stop offset="1.000000" stop-color="#C2D5FF"/>
		</linearGradient>
		<linearGradient x1="112.085175" y1="51.485500" x2="119.221886" y2="51.485500" id="paint_linear_7_1799_0" gradientUnits="userSpaceOnUse">
			<stop stop-color="#E7ECFF"/>
			<stop offset="1.000000" stop-color="#C2D5FF"/>
		</linearGradient>
		<linearGradient x1="19.916025" y1="71.567856" x2="62.964165" y2="71.567856" id="paint_linear_7_1803_0" gradientUnits="userSpaceOnUse">
			<stop stop-color="#E7ECFF"/>
			<stop offset="1.000000" stop-color="#C2D5FF"/>
		</linearGradient>
	</defs>
	<path id="Vector" d="M195.07 205.34C195.07 207.28 157.64 208.85 111.46 208.85C65.29 208.85 27.86 207.28 27.86 205.34C27.86 203.4 65.29 201.82 111.46 201.82C157.64 201.82 195.07 203.4 195.07 205.34Z" fill="#E7ECFF" fill-opacity="1.000000" fill-rule="evenodd"/>
	<path id="Vector" d="M124.85 129.69C124.85 129.69 128.63 126.26 129.67 127.37C130.35 128.1 127.93 129.97 127.93 129.97C127.93 129.97 131.73 129.64 133.51 129.73C136.76 129.88 135.97 137.94 125.37 134.64L124.85 129.69Z" fill="#FDCCC5" fill-opacity="1.000000" fill-rule="nonzero"/>
	<path id="Vector" d="M97.9 104.67C96.74 105.22 94.92 108.15 94.41 111.55C93.52 117.53 95.98 130.97 101.46 134.7C106.37 138.05 125.23 134.92 125.23 134.92C126.25 134.84 125.79 129.43 124.78 129.52C124.78 129.52 110.26 129.89 106.85 126.54C103.39 123.12 104.4 112.09 102.06 107.68C101.52 106.65 98.95 104.18 97.9 104.67Z" fill="url(#paint_linear_7_1608_0)" fill-opacity="1.000000" fill-rule="nonzero"/>
	<path id="Vector" d="M137.6 192.49C137.08 194.76 137.54 196.62 138.33 198.34L133.13 198.99L132.4 193.14L137.6 192.49Z" fill="#FDCCC5" fill-opacity="1.000000" fill-rule="nonzero"/>
	<path id="Vector" d="M149.2 200.31C149.2 200.31 149.2 200.31 149.2 200.31L149.2 200.32C149.31 200.93 149.04 201.54 148.5 201.86C147.47 202.47 145.44 203.36 142.61 203.16C138.37 202.87 134.56 203.82 133.05 204.16C132.52 204.29 132.13 203.55 131.91 202.51C131.9 202.46 131.89 202.42 131.89 202.37C131.57 200.68 131.71 198.31 132.46 197.42C132.51 197.36 132.56 197.31 132.61 197.27C132.67 197.21 132.74 197.17 132.82 197.14C133.92 196.65 136.45 199.21 137.61 197.54C137.74 197.36 137.66 197.05 137.54 196.69C137.49 196.53 137.43 196.35 137.38 196.17C137.34 196 137.36 195.81 137.42 195.63C137.56 195.16 138.13 194.98 138.53 195.26C138.85 195.48 139.3 195.78 139.92 196.17C140.03 196.24 140.14 196.32 140.25 196.41C140.33 196.46 140.4 196.52 140.48 196.57C140.77 196.78 141.06 196.97 141.33 197.13C141.45 197.2 141.57 197.26 141.68 197.33C141.99 197.48 142.28 197.62 142.57 197.73C142.69 197.78 142.82 197.83 142.94 197.87C145.46 198.74 147.5 198.2 148.32 198.79C148.84 199.16 149.08 199.76 149.19 200.28C149.2 200.29 149.2 200.3 149.2 200.31Z" fill="url(#paint_linear_7_1616_0)" fill-opacity="1.000000" fill-rule="nonzero"/>
	<path id="Vector" d="M132.61 202.82C132.61 202.82 131.62 201.05 132.55 199.17C132.55 199.17 134.26 200.65 135.72 200.33C137.18 200.02 138.53 197.99 138.53 197.99C138.53 197.99 138.63 198.62 138.12 199.64C138.12 199.64 139 199.49 139.6 198.5C139.6 198.5 139.73 199.29 139.03 200.12C139.03 200.12 140.08 199.88 140.84 199.13C140.84 199.13 140.64 199.98 140 200.54C140 200.54 141.33 201.52 142.07 201.44L140.22 202.65L133.26 203.71L132.61 202.82Z" fill="#070159" fill-opacity="1.000000" fill-rule="nonzero"/>
	<path id="Vector" d="M148.5 201.86C147.47 202.47 145.44 203.35 142.61 203.16C138.37 202.87 134.57 203.82 133.05 204.17C132.52 204.29 132.13 203.55 131.91 202.51C131.9 202.46 131.89 202.42 131.89 202.37C134.23 200.98 138.06 200.69 141.21 201.67C144.67 202.75 148.3 201.46 149.19 200.31C149.19 200.31 149.2 200.31 149.2 200.31C149.2 200.31 149.2 200.31 149.2 200.31C149.2 200.32 149.2 200.32 149.2 200.32C149.32 200.93 149.04 201.54 148.5 201.86Z" fill="#070159" fill-opacity="1.000000" fill-rule="nonzero"/>
	<path id="Vector" d="M140.25 196.4C140.06 196.79 139.69 197.33 139.01 197.73C138.96 197.76 138.89 197.77 138.84 197.74C138.8 197.73 138.76 197.7 138.74 197.66C138.68 197.56 138.71 197.44 138.81 197.39C139.44 197.02 139.76 196.5 139.92 196.17C140.02 196.24 140.14 196.32 140.25 196.4Z" fill="#FFFFFF" fill-opacity="1.000000" fill-rule="nonzero"/>
	<path id="Vector" d="M141.69 197.33C141.49 197.69 141.07 198.27 140.31 198.64C140.25 198.67 140.2 198.67 140.14 198.65C140.1 198.63 140.06 198.59 140.04 198.55C139.99 198.45 140.03 198.33 140.13 198.28C140.8 197.95 141.17 197.44 141.34 197.13C141.45 197.2 141.57 197.26 141.69 197.33Z" fill="#FFFFFF" fill-opacity="1.000000" fill-rule="nonzero"/>
	<path id="Vector" d="M142.95 197.87C142.79 198.25 142.42 198.92 141.63 199.38C141.58 199.42 141.51 199.42 141.46 199.4C141.42 199.38 141.38 199.35 141.36 199.31C141.3 199.22 141.34 199.09 141.43 199.04C142.12 198.64 142.44 198.05 142.57 197.73C142.7 197.78 142.82 197.83 142.95 197.87Z" fill="#FFFFFF" fill-opacity="1.000000" fill-rule="nonzero"/>
	<path id="Vector" d="M137.73 197.29C137.74 197.65 137.61 198.01 137.35 198.25C137.16 198.42 136.92 198.52 136.67 198.56C136.42 198.6 136.16 198.59 135.91 198.56C135.59 198.53 135.27 198.48 134.97 198.4C134.41 198.26 133.88 198.04 133.37 197.76C133.12 197.62 132.89 197.47 132.66 197.3C132.64 197.29 132.63 197.28 132.61 197.27C132.67 197.21 132.74 197.17 132.82 197.14C133.92 196.65 136.45 199.21 137.61 197.54C137.74 197.36 137.66 197.05 137.54 196.69C137.67 196.86 137.72 197.08 137.73 197.29Z" fill="#070159" fill-opacity="1.000000" fill-rule="nonzero"/>
	<path id="Vector" d="M138.47 194.29C138.54 194.95 131.8 195.72 131.73 195.06L120.03 153.19L96.86 155.86L92.34 140.37C107.38 141.21 117.94 140.3 126.67 144.91C134.47 149.03 138.47 194.29 138.47 194.29Z" fill="url(#paint_linear_7_1628_0)" fill-opacity="1.000000" fill-rule="nonzero"/>
	<path id="Vector" d="M111.47 202.66L108.47 202.66L106.49 184.69L78.29 184.69L76.31 202.66L73.31 202.66L78.27 159.94L81.27 159.94L78.69 181.36L106.09 181.36L103.5 159.94L106.51 159.94L111.47 202.66Z" fill="url(#paint_linear_7_1630_0)" fill-opacity="1.000000" fill-rule="nonzero"/>
	<path id="Vector" d="M72.06 104.84C79.16 107.92 55.09 162.06 109.94 152.78C115.68 152.78 115.88 160.98 109.95 161.36C109.95 161.36 73.55 166.4 66.22 156.76C59.85 148.37 58.78 99.07 72.06 104.84Z" fill="url(#paint_linear_7_1631_0)" fill-opacity="1.000000" fill-rule="nonzero"/>
	<path id="Vector" d="M113.99 158.69C113.41 160.09 112.07 161.22 109.96 161.36C109.96 161.36 73.55 166.4 66.22 156.76C60.15 148.76 58.89 103.56 70.3 104.38C63.89 114.19 65.6 147.29 70.71 154.02C77.56 163.03 109.78 159.23 113.99 158.69Z" fill="#C2D5FF" fill-opacity="1.000000" fill-rule="nonzero"/>
	<path id="Vector" d="M103.74 140.91C93.27 141.93 83.64 141.25 71.56 140.37C74.97 123.79 66.27 110.22 71.48 105.03C76.89 99.64 95.95 99.71 100.01 106.17C103.85 112.3 101.33 128.71 103.74 140.91Z" fill="url(#paint_linear_7_1633_0)" fill-opacity="1.000000" fill-rule="nonzero"/>
	<path id="Vector" d="M85.72 120.37L89.92 124.8L92.42 120.37C92 115.99 89.33 110.46 86.05 104.62C86.86 110.64 87.17 116.26 85.72 120.37Z" fill="#FFFFFF" fill-opacity="1.000000" fill-rule="nonzero"/>
	<path id="Vector" d="M94.03 89.81C93.83 96.87 91.7 97.42 88.68 97.42L88.68 101.35L86.14 104.91L81.25 101.31L81.25 93.36C80.87 92.38 79.69 91.2 79.69 89.81C79.69 84.34 82.91 79.91 86.86 79.91C90.82 79.91 94.36 78.33 94.03 89.81Z" fill="#FDCCC5" fill-opacity="1.000000" fill-rule="nonzero"/>
	<path id="Vector" d="M82.03 75.43C78.67 75.09 81.04 78.64 81.04 78.64C81.04 78.64 74.42 79.93 78.37 85.85C78.37 85.85 76.64 89.44 79.19 91.99L81.37 88.01C81.37 88.01 84.85 87.18 82.82 84.81C87.99 85.21 90.4 84.47 89.43 82.21C89.43 82.21 93.41 80.19 94.05 86.41C94.05 86.41 96.13 85.59 95.72 83.53C95.72 83.53 98.46 80.97 95.29 80.73C95.29 80.73 98.78 74.37 92.05 75.4C92.05 75.4 85.4 75.78 82.03 75.43Z" fill="url(#paint_linear_7_1638_0)" fill-opacity="1.000000" fill-rule="nonzero"/>
	<path id="Vector" d="M78.72 89.38C78.71 89.38 78.71 89.38 78.71 89.38C78.65 89.38 78.61 89.33 78.62 89.27C78.62 89.26 78.77 88.01 80.12 87.78C81.27 87.59 81.88 88.31 82.02 88.5L87.55 88.82C87.6 88.82 87.65 88.87 87.64 88.93C87.64 88.98 87.6 89.03 87.54 89.02L81.96 88.7C81.93 88.7 81.9 88.68 81.88 88.65C81.86 88.62 81.33 87.78 80.16 87.98C78.96 88.19 78.82 89.25 78.82 89.3C78.81 89.35 78.77 89.38 78.72 89.38Z" fill="#47090E" fill-opacity="1.000000" fill-rule="nonzero"/>
	<path id="Vector" d="M91.66 86.31C91.56 86.34 91.46 86.37 91.38 86.43C91.31 86.49 91.26 86.58 91.29 86.67C91.32 86.78 91.48 86.84 91.62 86.87C92.25 87 92.95 86.88 93.47 86.54C93.52 86.51 93.57 86.47 93.59 86.42C93.65 86.2 92.89 86.19 92.74 86.18C92.37 86.17 92.01 86.21 91.66 86.31Z" fill="url(#paint_linear_7_1641_0)" fill-opacity="1.000000" fill-rule="nonzero"/>
	<path id="Vector" d="M87.82 86.31C87.72 86.34 87.62 86.37 87.54 86.43C87.46 86.49 87.41 86.58 87.44 86.67C87.48 86.78 87.63 86.84 87.77 86.87C88.41 87 89.11 86.88 89.63 86.54C89.68 86.51 89.73 86.47 89.74 86.42C89.8 86.2 89.04 86.19 88.89 86.18C88.53 86.17 88.16 86.21 87.82 86.31Z" fill="url(#paint_linear_7_1642_0)" fill-opacity="1.000000" fill-rule="nonzero"/>
	<path id="Vector" d="M79.26 92.14C80.07 93.64 81.52 94.31 82.49 93.62C83.45 92.93 83.57 91.15 82.76 89.64C81.94 88.13 80.5 87.46 79.53 88.15C78.56 88.84 78.44 90.62 79.26 92.14Z" fill="#FDCCC5" fill-opacity="1.000000" fill-rule="nonzero"/>
	<path id="Vector" d="M90.99 92.44C90.91 92.44 90.83 92.44 90.75 92.44L90.62 92.44C90.51 92.43 90.43 92.34 90.43 92.23C90.43 92.12 90.52 92.03 90.63 92.03C90.63 92.03 90.63 92.03 90.63 92.03L90.76 92.04C90.98 92.04 91.39 92.05 91.46 91.95C91.48 91.9 91.47 91.76 91.33 91.52C90.8 90.59 90.57 89.62 90.56 89.58C90.53 89.47 90.6 89.36 90.71 89.33C90.81 89.31 90.92 89.38 90.95 89.48C90.95 89.49 91.18 90.45 91.68 91.32C91.88 91.68 91.92 91.95 91.8 92.15C91.65 92.4 91.32 92.44 90.99 92.44Z" fill="#F7B4AD" fill-opacity="1.000000" fill-rule="nonzero"/>
	<path id="Vector" d="M89.9 89.27C89.9 89.43 89.76 89.57 89.6 89.57C89.43 89.57 89.29 89.43 89.29 89.27C89.29 89.1 89.43 88.96 89.6 88.96C89.76 88.96 89.9 89.1 89.9 89.27Z" fill="#47090E" fill-opacity="1.000000" fill-rule="nonzero"/>
	<path id="Vector" d="M93.59 89.22C93.59 89.39 93.46 89.53 93.29 89.53C93.12 89.53 92.99 89.39 92.99 89.22C92.99 89.06 93.12 88.92 93.29 88.92C93.46 88.92 93.59 89.06 93.59 89.22Z" fill="#47090E" fill-opacity="1.000000" fill-rule="nonzero"/>
	<path id="Vector" d="M90.7 94.69C89.93 94.69 89.32 94.25 89.31 94.24C89.22 94.18 89.2 94.05 89.27 93.96C89.33 93.87 89.46 93.85 89.55 93.92C89.6 93.96 90.92 94.89 91.96 93.63C92.03 93.54 92.16 93.53 92.24 93.6C92.33 93.67 92.34 93.8 92.27 93.88C91.77 94.5 91.2 94.69 90.7 94.69Z" fill="#F7B4AD" fill-opacity="1.000000" fill-rule="nonzero"/>
	<path id="Vector" d="M92.86 91.32C92.03 91.32 91.36 90.47 91.36 89.44C91.36 88.4 92.03 87.56 92.86 87.56C93.68 87.56 94.35 88.4 94.35 89.44C94.35 90.47 93.68 91.32 92.86 91.32ZM92.86 87.76C92.14 87.76 91.56 88.51 91.56 89.44C91.56 90.36 92.14 91.11 92.86 91.11C93.57 91.11 94.15 90.36 94.15 89.44C94.15 88.51 93.57 87.76 92.86 87.76Z" fill="#47090E" fill-opacity="1.000000" fill-rule="nonzero"/>
	<path id="Vector" d="M88.88 91.32C88.05 91.32 87.38 90.47 87.38 89.44C87.38 88.4 88.05 87.56 88.88 87.56C89.71 87.56 90.38 88.4 90.38 89.44C90.38 90.47 89.71 91.32 88.88 91.32ZM88.88 87.76C88.16 87.76 87.58 88.51 87.58 89.44C87.58 90.36 88.16 91.11 88.88 91.11C89.59 91.11 90.18 90.36 90.18 89.44C90.18 88.51 89.59 87.76 88.88 87.76Z" fill="#47090E" fill-opacity="1.000000" fill-rule="nonzero"/>
	<path id="Vector" d="M91.55 88.91C91.53 88.91 91.51 88.9 91.5 88.89C90.98 88.56 90.24 88.89 90.23 88.9C90.18 88.92 90.12 88.9 90.09 88.85C90.07 88.8 90.09 88.74 90.14 88.71C90.18 88.7 90.99 88.32 91.61 88.72C91.65 88.75 91.67 88.81 91.64 88.86C91.62 88.89 91.58 88.91 91.55 88.91Z" fill="#47090E" fill-opacity="1.000000" fill-rule="nonzero"/>
	<path id="Vector" d="M88.68 97.39C88.68 97.39 86.52 97.28 84.88 96.22C84.88 96.22 85.78 98.25 88.68 98.63L88.68 97.39Z" fill="#F7B4AD" fill-opacity="1.000000" fill-rule="nonzero"/>
	<path id="Vector" d="M81.28 101.34C81.28 101.34 80.03 101.05 79.75 101.48C79 102.63 81.44 106.55 82.99 107.02C84.04 107.35 86.14 104.91 86.14 104.91L81.28 101.34Z" fill="#FFFFFF" fill-opacity="1.000000" fill-rule="nonzero"/>
	<path id="Vector" d="M88.68 101.35C88.68 101.35 89.92 101.07 90.4 101.48C91.6 102.52 91.36 106.48 90.1 107.02C89.21 107.41 86.14 104.91 86.14 104.91L88.68 101.35Z" fill="#FFFFFF" fill-opacity="1.000000" fill-rule="nonzero"/>
	<path id="Vector" d="M122.79 192.76C121.99 194.94 122.22 196.84 122.79 198.65L117.55 198.65L117.55 192.76L122.79 192.76Z" fill="#FDCCC5" fill-opacity="1.000000" fill-rule="nonzero"/>
	<path id="Vector" d="M133.33 201.96C133.33 201.96 133.33 201.96 133.33 201.96L133.33 201.97C133.36 202.59 133.01 203.16 132.44 203.41C131.34 203.89 129.22 204.51 126.43 203.97C122.26 203.15 118.37 203.62 116.82 203.77C116.28 203.83 115.98 203.05 115.9 201.99C115.89 201.94 115.89 201.89 115.89 201.85C115.79 200.14 116.22 197.79 117.08 197.01C117.13 196.96 117.19 196.92 117.24 196.88C117.31 196.83 117.39 196.79 117.47 196.77C118.62 196.42 120.81 199.28 122.18 197.77C122.33 197.6 122.28 197.29 122.21 196.92C122.18 196.75 122.15 196.57 122.12 196.38C122.09 196.2 122.14 196.02 122.22 195.85C122.42 195.4 123.01 195.29 123.37 195.62C123.66 195.88 124.07 196.24 124.63 196.69C124.73 196.78 124.83 196.87 124.93 196.97C125 197.03 125.07 197.1 125.14 197.16C125.4 197.41 125.66 197.63 125.92 197.82C126.03 197.91 126.14 197.98 126.24 198.06C126.52 198.25 126.79 198.42 127.07 198.58C127.19 198.64 127.3 198.7 127.42 198.76C129.81 199.94 131.9 199.65 132.64 200.34C133.11 200.77 133.28 201.39 133.32 201.93C133.33 201.94 133.33 201.95 133.33 201.96Z" fill="url(#paint_linear_7_1667_0)" fill-opacity="1.000000" fill-rule="nonzero"/>
	<path id="Vector" d="M116.56 202.38C116.56 202.38 115.79 200.51 116.95 198.76C116.95 198.76 118.46 200.43 119.95 200.3C121.43 200.18 123.02 198.33 123.02 198.33C123.02 198.33 123.05 198.97 122.41 199.91C122.41 199.91 123.3 199.88 124.03 198.97C124.03 198.97 124.06 199.77 123.26 200.51C123.26 200.51 124.33 200.4 125.18 199.75C125.18 199.75 124.88 200.57 124.18 201.04C124.18 201.04 125.37 202.18 126.11 202.19L124.12 203.17L117.09 203.35L116.56 202.38Z" fill="#070159" fill-opacity="1.000000" fill-rule="nonzero"/>
	<path id="Vector" d="M132.44 203.41C131.34 203.88 129.22 204.51 126.43 203.97C122.26 203.15 118.37 203.62 116.82 203.77C116.28 203.83 115.98 203.05 115.9 201.99C115.9 201.94 115.89 201.9 115.89 201.85C118.39 200.76 122.22 200.95 125.24 202.32C128.53 203.81 132.3 202.99 133.32 201.96C133.32 201.95 133.32 201.95 133.33 201.96C133.33 201.96 133.33 201.96 133.33 201.96C133.33 201.96 133.33 201.97 133.33 201.97C133.37 202.59 133.01 203.16 132.44 203.41Z" fill="#070159" fill-opacity="1.000000" fill-rule="nonzero"/>
	<path id="Vector" d="M124.93 196.97C124.7 197.33 124.26 197.82 123.54 198.13C123.48 198.16 123.42 198.15 123.36 198.12C123.33 198.1 123.3 198.07 123.28 198.03C123.23 197.92 123.28 197.81 123.38 197.76C124.05 197.48 124.44 197 124.63 196.69C124.73 196.78 124.83 196.87 124.93 196.97Z" fill="#FFFFFF" fill-opacity="1.000000" fill-rule="nonzero"/>
	<path id="Vector" d="M126.24 198.06C126 198.4 125.51 198.92 124.71 199.2C124.66 199.22 124.6 199.21 124.55 199.18C124.51 199.16 124.47 199.12 124.46 199.07C124.42 198.97 124.48 198.85 124.58 198.82C125.29 198.57 125.71 198.11 125.92 197.82C126.03 197.91 126.13 197.99 126.24 198.06Z" fill="#FFFFFF" fill-opacity="1.000000" fill-rule="nonzero"/>
	<path id="Vector" d="M127.42 198.76C127.23 199.11 126.78 199.73 125.93 200.1C125.88 200.12 125.81 200.12 125.76 200.09C125.72 200.07 125.69 200.04 125.67 199.99C125.63 199.89 125.68 199.77 125.78 199.73C126.51 199.41 126.9 198.88 127.07 198.58C127.19 198.64 127.31 198.7 127.42 198.76Z" fill="#FFFFFF" fill-opacity="1.000000" fill-rule="nonzero"/>
	<path id="Vector" d="M122.32 197.53C122.29 197.89 122.12 198.23 121.83 198.44C121.62 198.58 121.36 198.65 121.11 198.66C120.85 198.67 120.6 198.63 120.36 198.57C120.05 198.5 119.74 198.41 119.44 198.29C118.91 198.08 118.4 197.8 117.94 197.46C117.71 197.29 117.49 197.11 117.29 196.91C117.28 196.9 117.26 196.89 117.24 196.88C117.31 196.83 117.39 196.79 117.47 196.77C118.62 196.42 120.81 199.28 122.18 197.77C122.33 197.6 122.28 197.29 122.21 196.92C122.31 197.1 122.34 197.32 122.32 197.53Z" fill="#070159" fill-opacity="1.000000" fill-rule="nonzero"/>
	<path id="Vector" d="M123.41 195.06C123.39 195.76 115.99 195.6 116.01 194.89L113.07 156.61C113.07 156.61 81.6 159.48 75.25 156.08C69.77 153.14 69.3 136.96 73.7 138.51C89.45 144.03 111.32 134.86 121.51 147.03C127.88 154.65 123.41 195.06 123.41 195.06Z" fill="url(#paint_linear_7_1680_0)" fill-opacity="1.000000" fill-rule="nonzero"/>
	<path id="Vector" d="M183.61 142.28L181.42 145.62C180.73 146.66 179.57 147.28 178.33 147.28L42.87 147.28C41.63 147.28 40.47 146.66 39.78 145.62L37.58 142.28C35.96 139.82 37.73 136.54 40.68 136.54L180.52 136.54C183.47 136.54 185.24 139.82 183.61 142.28Z" fill="url(#paint_linear_7_1683_0)" fill-opacity="1.000000" fill-rule="nonzero"/>
	<path id="Vector" d="M183.62 142.28L181.42 145.62C180.73 146.66 179.57 147.28 178.33 147.28L42.87 147.28C41.63 147.28 40.47 146.66 39.78 145.62L37.58 142.28C36.97 141.35 36.84 140.3 37.07 139.36C37.17 139.75 37.34 140.14 37.58 140.51L39.78 143.85C40.47 144.89 41.63 145.51 42.87 145.51L178.33 145.51C179.57 145.51 180.73 144.89 181.42 143.85L183.62 140.51C183.86 140.14 184.03 139.75 184.12 139.36C184.35 140.3 184.23 141.35 183.62 142.28Z" fill="#ADC8F7" fill-opacity="1.000000" fill-rule="nonzero"/>
	<path id="Vector" d="M170.43 147.28L174.81 147.28L174.81 205.34L170.43 205.34L170.43 147.28Z" fill="url(#paint_linear_7_1685_0)" fill-opacity="1.000000" fill-rule="evenodd"/>
	<path id="Vector" d="M157.01 147.28L161.4 147.28L161.4 205.34L157.01 205.34L157.01 147.28Z" fill="url(#paint_linear_7_1686_0)" fill-opacity="1.000000" fill-rule="evenodd"/>
	<path id="Vector" d="M62.43 147.28L66.82 147.28L66.82 205.34L62.43 205.34L62.43 147.28Z" fill="url(#paint_linear_7_1687_0)" fill-opacity="1.000000" fill-rule="evenodd"/>
	<path id="Vector" d="M49.02 147.28L53.4 147.28L53.4 205.34L49.02 205.34L49.02 147.28Z" fill="url(#paint_linear_7_1688_0)" fill-opacity="1.000000" fill-rule="evenodd"/>
	<path id="Vector" d="M97.83 132.42C98.61 131.54 100.49 129.75 101.27 130.55C101.66 130.94 100.4 132.44 100.4 132.44C100.4 132.44 102.38 132.12 103.91 132.16C106.71 132.23 107.04 139.47 97.87 136.82L97.83 132.42Z" fill="#FDCCC5" fill-opacity="1.000000" fill-rule="nonzero"/>
	<path id="Vector" d="M97.65 137.19C97.65 137.19 76.17 140.35 72.61 136.73C69.46 133.52 68.85 119.52 68.93 113.76C68.99 109.48 70.68 104.66 73.29 103.69C77.37 102.17 76.96 127.18 79.61 129.82C82.48 132.69 97.58 131.89 97.58 131.89C98.26 131.88 98.34 137.18 97.65 137.19Z" fill="url(#paint_linear_7_1690_0)" fill-opacity="1.000000" fill-rule="nonzero"/>
	<path id="Vector" d="M34.95 190.96C35.04 189.51 34.39 187.12 33.78 185.8C33.16 184.49 32.27 183.31 31.25 182.27C30.55 181.56 29.78 180.9 28.88 180.48C27.99 180.05 26.95 179.86 25.98 180.1C25.02 180.34 24.15 181.06 23.87 182.01C23.69 182.61 23.75 183.25 23.93 183.85C24.35 185.25 25.45 186.38 26.71 187.14C27.96 187.9 29.38 188.34 30.78 188.78C32.18 189.22 33.7 190.2 34.95 190.96Z" fill="url(#paint_linear_7_1693_0)" fill-opacity="1.000000" fill-rule="nonzero"/>
	<path id="Vector" d="M37.41 192.36C37.33 190.91 37.97 188.51 38.59 187.2C39.2 185.88 40.09 184.7 41.11 183.67C41.81 182.96 42.58 182.3 43.48 181.87C44.37 181.44 45.41 181.25 46.38 181.49C47.34 181.74 48.21 182.45 48.49 183.41C48.67 184 48.61 184.65 48.43 185.24C48.01 186.65 46.91 187.77 45.66 188.53C44.4 189.3 42.98 189.74 41.58 190.18C40.18 190.61 38.66 191.6 37.41 192.36Z" fill="url(#paint_linear_7_1694_0)" fill-opacity="1.000000" fill-rule="nonzero"/>
	<path id="Vector" d="M36.95 188.72C36.95 188.72 49.53 169.98 37.48 167.66C25.77 165.42 36.95 188.72 36.95 188.72Z" fill="url(#paint_linear_7_1695_0)" fill-opacity="1.000000" fill-rule="nonzero"/>
	<path id="Vector" d="M36.06 194.76C36.12 194.76 36.17 194.71 36.17 194.65C36.18 189.2 27.82 182.99 27.46 182.73C27.41 182.69 27.35 182.71 27.31 182.75C27.27 182.8 27.28 182.87 27.33 182.91C27.42 182.97 35.96 189.31 35.95 194.65C35.95 194.71 36 194.76 36.06 194.76Z" fill="#ADC8F7" fill-opacity="1.000000" fill-rule="nonzero"/>
	<path id="Vector" d="M36.81 194.62C36.87 194.62 36.91 194.57 36.92 194.51C37.14 189.86 46.03 183.96 46.12 183.91C46.18 183.87 46.19 183.8 46.16 183.75C46.12 183.7 46.05 183.69 46 183.72C45.63 183.96 36.92 189.74 36.7 194.5C36.69 194.56 36.74 194.62 36.8 194.62C36.8 194.62 36.8 194.62 36.81 194.62Z" fill="#ADC8F7" fill-opacity="1.000000" fill-rule="nonzero"/>
	<path id="Vector" d="M35.91 194.76C35.96 194.76 36.01 194.72 36.02 194.67C38.17 186.41 37.38 171.74 37.37 171.59C37.36 171.53 37.31 171.48 37.25 171.49C37.19 171.49 37.14 171.54 37.15 171.6C37.15 171.75 37.95 186.39 35.81 194.62C35.79 194.68 35.83 194.74 35.89 194.75C35.9 194.76 35.91 194.76 35.91 194.76Z" fill="#ADC8F7" fill-opacity="1.000000" fill-rule="nonzero"/>
	<path id="Vector" d="M30.5 193.75C30.14 193.75 29.84 194.04 29.84 194.41L29.84 199.28C29.84 202.02 31.52 204.35 33.9 205.34C33.99 205.37 34.08 205.39 34.18 205.39L38.66 205.39C38.76 205.39 38.85 205.37 38.94 205.34C41.32 204.35 43 202.02 43 199.28L43 194.41C43 194.04 42.7 193.75 42.34 193.75L30.5 193.75Z" fill="url(#paint_linear_7_1703_0)" fill-opacity="1.000000" fill-rule="nonzero"/>
	<path id="Vector" d="M29.84 196.28L29.84 194.41C29.84 194.04 30.14 193.75 30.5 193.75L42.34 193.75C42.7 193.75 43 194.04 43 194.41L43 196.28L29.84 196.28Z" fill="#78A7FF" fill-opacity="1.000000" fill-rule="nonzero"/>
	<path id="Vector" d="M34.03 200.06C34.03 201.38 35.1 202.45 36.42 202.45C37.74 202.45 38.81 201.38 38.81 200.06C38.81 198.74 37.74 197.67 36.42 197.67C35.1 197.67 34.03 198.74 34.03 200.06Z" fill="#78A7FF" fill-opacity="1.000000" fill-rule="nonzero"/>
	<path id="Vector" d="M221.06 40.05L221.06 86.13C221.06 88.76 218.92 90.89 216.3 90.89L176.52 90.89L162.08 101.05C161.11 101.73 159.78 101.04 159.78 99.86L159.78 90.89L146.36 90.89C143.74 90.89 141.6 88.76 141.6 86.13L141.6 40.05C141.6 37.42 143.74 35.28 146.36 35.28L216.3 35.28C218.92 35.28 221.06 37.42 221.06 40.05Z" fill="url(#paint_linear_7_1709_0)" fill-opacity="1.000000" fill-rule="nonzero"/>
	<path id="Vector" d="M219.04 40.05L219.04 86.13C219.04 87.64 217.81 88.87 216.3 88.87L146.36 88.87C144.85 88.87 143.62 87.64 143.62 86.13L143.62 40.05C143.62 38.53 144.85 37.31 146.36 37.31L216.3 37.31C217.81 37.31 219.04 38.53 219.04 40.05Z" fill="url(#paint_linear_7_1710_0)" fill-opacity="1.000000" fill-rule="nonzero"/>
	<path id="Vector" d="" fill="url(#paint_linear_7_1711_0)" fill-opacity="1.000000" fill-rule="nonzero"/>
	<path id="Vector" d="" fill="url(#paint_linear_7_1712_0)" fill-opacity="1.000000" fill-rule="nonzero"/>
	<path id="Vector" d="M139.63 43.1C139.51 43.1 139.42 43.01 139.42 42.9L139.42 39.66C139.42 36.16 142.27 33.31 145.77 33.31L150.35 33.31C150.47 33.31 150.56 33.4 150.56 33.51C150.56 33.62 150.47 33.71 150.35 33.71L145.77 33.71C142.49 33.71 139.83 36.38 139.83 39.66L139.83 42.9C139.83 43.01 139.74 43.1 139.63 43.1Z" fill="#ADC8F7" fill-opacity="1.000000" fill-rule="nonzero"/>
	<path id="Vector" d="M150.35 92.87L145.77 92.87C142.27 92.87 139.42 90.02 139.42 86.52L139.42 83.28C139.42 83.17 139.51 83.08 139.63 83.08C139.74 83.08 139.83 83.17 139.83 83.28L139.83 86.52C139.83 89.8 142.49 92.46 145.77 92.46L150.35 92.46C150.47 92.46 150.56 92.55 150.56 92.67C150.56 92.78 150.47 92.87 150.35 92.87Z" fill="#ADC8F7" fill-opacity="1.000000" fill-rule="nonzero"/>
	<path id="Vector" d="M216.85 92.87L212.27 92.87C212.15 92.87 212.06 92.78 212.06 92.67C212.06 92.55 212.15 92.46 212.27 92.46L216.85 92.46C220.13 92.46 222.79 89.8 222.79 86.52L222.79 83.28C222.79 83.17 222.88 83.08 222.99 83.08C223.11 83.08 223.2 83.17 223.2 83.28L223.2 86.52C223.2 90.02 220.35 92.87 216.85 92.87Z" fill="#ADC8F7" fill-opacity="1.000000" fill-rule="nonzero"/>
	<path id="Vector" d="M222.99 43.1C222.88 43.1 222.79 43.01 222.79 42.9L222.79 39.66C222.79 36.38 220.13 33.71 216.85 33.71L212.27 33.71C212.15 33.71 212.06 33.62 212.06 33.51C212.06 33.4 212.15 33.31 212.27 33.31L216.85 33.31C220.35 33.31 223.2 36.16 223.2 39.66L223.2 42.9C223.2 43.01 223.11 43.1 222.99 43.1Z" fill="#ADC8F7" fill-opacity="1.000000" fill-rule="nonzero"/>
	<path id="Vector" d="M185.48 52.87L185.48 63.65C185.48 63.91 185.27 64.12 185.01 64.12L181.06 64.12C180.81 64.12 180.6 63.91 180.6 63.65L180.6 52.87C180.6 52.61 180.81 52.4 181.06 52.4L185.01 52.4C185.27 52.4 185.48 52.61 185.48 52.87Z" fill="#FFFFFF" fill-opacity="1.000000" fill-rule="nonzero"/>
	<path id="Vector" d="M193.09 57.77L193.09 63.65C193.09 63.91 192.88 64.12 192.62 64.12L188.67 64.12C188.41 64.12 188.21 63.91 188.21 63.65L188.21 57.77C188.21 57.51 188.41 57.3 188.67 57.3L192.62 57.3C192.88 57.3 193.09 57.51 193.09 57.77Z" fill="url(#paint_linear_7_1726_0)" fill-opacity="1.000000" fill-rule="nonzero"/>
	<path id="Vector" d="M200.7 50.19L200.7 63.65C200.7 63.91 200.49 64.12 200.23 64.12L196.28 64.12C196.02 64.12 195.81 63.91 195.81 63.65L195.81 50.19C195.81 49.93 196.02 49.72 196.28 49.72L200.23 49.72C200.49 49.72 200.7 49.93 200.7 50.19Z" fill="#FFFFFF" fill-opacity="1.000000" fill-rule="nonzero"/>
	<path id="Vector" d="M208.3 54.87L208.3 63.65C208.3 63.91 208.1 64.12 207.84 64.12L203.89 64.12C203.63 64.12 203.42 63.91 203.42 63.65L203.42 54.87C203.42 54.61 203.63 54.41 203.89 54.41L207.84 54.41C208.1 54.41 208.3 54.61 208.3 54.87Z" fill="url(#paint_linear_7_1728_0)" fill-opacity="1.000000" fill-rule="nonzero"/>
	<path id="Vector" d="M215.91 59.57L215.91 63.65C215.91 63.91 215.7 64.12 215.45 64.12L211.5 64.12C211.24 64.12 211.03 63.91 211.03 63.65L211.03 59.57C211.03 59.31 211.24 59.1 211.5 59.1L215.45 59.1C215.7 59.1 215.91 59.31 215.91 59.57Z" fill="#FFFFFF" fill-opacity="1.000000" fill-rule="nonzero"/>
	<path id="Vector" d="M159.76 75.65L159.76 81.05C159.76 81.47 159.42 81.81 159 81.81L148.93 81.81C148.51 81.81 148.17 81.47 148.17 81.05L148.17 75.65C148.17 75.23 148.51 74.89 148.93 74.89L159 74.89C159.42 74.89 159.76 75.23 159.76 75.65Z" fill="#FFFFFF" fill-opacity="1.000000" fill-rule="nonzero"/>
	<path id="Vector" d="M159.76 84.37C159.76 84.81 159.41 85.17 158.97 85.17L148.97 85.17C148.53 85.17 148.17 84.81 148.17 84.37C148.17 83.94 148.53 83.58 148.97 83.58L158.97 83.58C159.41 83.58 159.76 83.94 159.76 84.37Z" fill="#FFFFFF" fill-opacity="1.000000" fill-rule="nonzero"/>
	<path id="Vector" d="M175.72 75.65L175.72 81.05C175.72 81.47 175.38 81.81 174.96 81.81L164.9 81.81C164.48 81.81 164.14 81.47 164.14 81.05L164.14 75.65C164.14 75.23 164.48 74.89 164.9 74.89L174.96 74.89C175.38 74.89 175.72 75.23 175.72 75.65Z" fill="url(#paint_linear_7_1734_0)" fill-opacity="1.000000" fill-rule="nonzero"/>
	<path id="Vector" d="M175.72 84.37C175.72 84.81 175.37 85.17 174.93 85.17L164.93 85.17C164.49 85.17 164.14 84.81 164.14 84.37C164.14 83.94 164.49 83.58 164.93 83.58L174.93 83.58C175.37 83.58 175.72 83.94 175.72 84.37Z" fill="url(#paint_linear_7_1735_0)" fill-opacity="1.000000" fill-rule="nonzero"/>
	<path id="Vector" d="M191.69 75.65L191.69 81.05C191.69 81.47 191.35 81.81 190.93 81.81L180.86 81.81C180.44 81.81 180.1 81.47 180.1 81.05L180.1 75.65C180.1 75.23 180.44 74.89 180.86 74.89L190.93 74.89C191.35 74.89 191.69 75.23 191.69 75.65Z" fill="url(#paint_linear_7_1737_0)" fill-opacity="1.000000" fill-rule="nonzero"/>
	<path id="Vector" d="M191.69 84.37C191.69 84.81 191.33 85.17 190.89 85.17L180.89 85.17C180.45 85.17 180.1 84.81 180.1 84.37C180.1 83.94 180.45 83.58 180.89 83.58L190.89 83.58C191.33 83.58 191.69 83.94 191.69 84.37Z" fill="url(#paint_linear_7_1738_0)" fill-opacity="1.000000" fill-rule="nonzero"/>
	<path id="Vector" d="M176.87 56.43C176.62 62.81 171.38 67.9 164.94 67.9C158.35 67.9 153 62.56 153 55.96C153 49.37 158.35 44.02 164.94 44.02L164.94 49.62C161.43 49.62 158.6 52.46 158.6 55.96C158.6 59.47 161.43 62.31 164.94 62.31C168.29 62.31 171.02 59.72 171.26 56.43L176.87 56.43Z" fill="url(#paint_linear_7_1740_0)" fill-opacity="1.000000" fill-rule="nonzero"/>
	<path id="Vector" d="M176.88 55.96C176.88 56.12 176.88 56.28 176.87 56.43L171.26 56.43C171.28 56.28 171.28 56.12 171.28 55.96C171.28 52.46 168.45 49.62 164.94 49.62L164.94 44.02C171.54 44.02 176.88 49.37 176.88 55.96Z" fill="url(#paint_linear_7_1741_0)" fill-opacity="1.000000" fill-rule="nonzero"/>
	<path id="Vector" d="M181.31 46.02L173.96 46.02C173.91 46.02 173.87 46.04 173.84 46.07L170.8 49.47C170.71 49.57 170.78 49.72 170.91 49.72C170.96 49.72 171 49.7 171.02 49.67L174.02 46.33L181.31 46.33C181.4 46.33 181.47 46.25 181.46 46.16C181.46 46.08 181.38 46.02 181.31 46.02Z" fill="#ADC8F7" fill-opacity="1.000000" fill-rule="nonzero"/>
	<path id="Vector" d="M181.46 43.96L181.46 42.22C181.46 42.14 181.4 42.07 181.31 42.07L177.44 42.07C177.36 42.07 177.29 42.14 177.29 42.22L177.29 43.96C177.29 44.05 177.36 44.12 177.44 44.12L181.31 44.12C181.4 44.12 181.46 44.05 181.46 43.96Z" fill="#ADC8F7" fill-opacity="1.000000" fill-rule="nonzero"/>
	<path id="Vector" d="M148.78 66.13L156.12 66.13C156.17 66.13 156.21 66.12 156.24 66.08L159.28 62.69C159.37 62.59 159.3 62.44 159.17 62.44C159.13 62.44 159.08 62.45 159.06 62.49L156.06 65.83L148.77 65.83C148.68 65.83 148.61 65.91 148.62 66C148.62 66.08 148.7 66.13 148.78 66.13Z" fill="#ADC8F7" fill-opacity="1.000000" fill-rule="nonzero"/>
	<path id="Vector" d="M148.62 68.19L148.62 69.94C148.62 70.02 148.68 70.09 148.77 70.09L152.64 70.09C152.72 70.09 152.79 70.02 152.79 69.94L152.79 68.19C152.79 68.11 152.72 68.04 152.64 68.04L148.77 68.04C148.68 68.04 148.62 68.11 148.62 68.19Z" fill="#ADC8F7" fill-opacity="1.000000" fill-rule="nonzero"/>
	<path id="Vector" d="M212.27 71.08L212.27 72.68C212.27 72.91 212.08 73.09 211.85 73.09L201.96 73.09C201.74 73.09 201.55 72.91 201.55 72.68L201.55 71.08C201.55 70.85 201.74 70.67 201.96 70.67L211.85 70.67C212.08 70.67 212.27 70.85 212.27 71.08Z" fill="url(#paint_linear_7_1753_0)" fill-opacity="1.000000" fill-rule="nonzero"/>
	<path id="Vector" d="M215.91 76.4C215.91 76.83 215.56 77.18 215.13 77.18L198.68 77.18C198.25 77.18 197.9 76.83 197.9 76.4C197.9 75.97 198.25 75.62 198.68 75.62L215.13 75.62C215.56 75.62 215.91 75.97 215.91 76.4Z" fill="#FFFFFF" fill-opacity="1.000000" fill-rule="nonzero"/>
	<path id="Vector" d="M215.91 80.49C215.91 80.92 215.56 81.27 215.13 81.27L198.68 81.27C198.25 81.27 197.9 80.92 197.9 80.49C197.9 80.06 198.25 79.71 198.68 79.71L215.13 79.71C215.56 79.71 215.91 80.06 215.91 80.49Z" fill="#FFFFFF" fill-opacity="1.000000" fill-rule="nonzero"/>
	<path id="Vector" d="M215.91 84.58C215.91 85.01 215.56 85.36 215.13 85.36L198.68 85.36C198.25 85.36 197.9 85.01 197.9 84.58C197.9 84.15 198.25 83.8 198.68 83.8L215.13 83.8C215.56 83.8 215.91 84.15 215.91 84.58Z" fill="#FFFFFF" fill-opacity="1.000000" fill-rule="nonzero"/>
	<path id="Vector" d="M213.47 53.48C213.38 53.48 213.29 53.45 213.22 53.39C213.16 53.35 207.79 48.9 205.69 47.87C202.08 46.1 199.35 45.28 197.98 45.55C196.91 45.76 195.78 47.16 194.69 48.51C193.44 50.05 192.15 51.65 190.69 51.82C188.43 52.08 183.37 48.41 182.8 47.99C182.62 47.86 182.58 47.61 182.71 47.43C182.84 47.25 183.1 47.21 183.28 47.34C184.75 48.43 188.95 51.2 190.6 51.02C191.74 50.89 192.92 49.42 194.06 48.01C195.3 46.48 196.47 45.03 197.83 44.76C199.79 44.36 203.38 45.84 206.04 47.14C208.23 48.22 213.51 52.59 213.73 52.77C213.9 52.91 213.92 53.17 213.78 53.34C213.7 53.43 213.59 53.48 213.47 53.48Z" fill="url(#paint_linear_7_1758_0)" fill-opacity="1.000000" fill-rule="nonzero"/>
	<path id="Vector" d="M166.86 108.17L160.41 136.09C160.01 137.8 158.49 139.01 156.74 139.01L112.81 139.01C110.39 139.01 108.6 136.75 109.14 134.39L115.59 106.47C115.99 104.77 117.51 103.56 119.26 103.56L163.19 103.56C165.61 103.56 167.4 105.81 166.86 108.17Z" fill="url(#paint_linear_7_1763_0)" fill-opacity="1.000000" fill-rule="nonzero"/>
	<path id="Vector" d="M119.26 103.55C117.51 103.55 115.99 104.77 115.59 106.47L109.14 134.39C108.59 136.75 110.39 139.01 112.81 139.01L86.78 139.01L86.78 137.03C86.78 135.28 88.19 133.87 89.93 133.87L106.79 133.87L113.13 106.47C113.52 104.77 115.04 103.55 116.79 103.55L119.26 103.55Z" fill="url(#paint_linear_7_1764_0)" fill-opacity="1.000000" fill-rule="nonzero"/>
	<path id="Vector" d="M142.5 121.55C142.1 123.61 140.12 125.29 138.08 125.29C136.03 125.29 134.7 123.61 135.11 121.55C135.51 119.48 137.49 117.81 139.54 117.81C141.58 117.81 142.91 119.48 142.5 121.55Z" fill="#ADC8F7" fill-opacity="1.000000" fill-rule="nonzero"/>
	<path id="Vector" d="M58.92 135.19C58.92 136.41 57.93 137.4 56.71 137.4L46.47 137.4L46.47 132.98L56.71 132.98C57.93 132.98 58.92 133.97 58.92 135.19Z" fill="url(#paint_linear_7_1768_0)" fill-opacity="1.000000" fill-rule="nonzero"/>
	<path id="Vector" d="M57.97 135.19C57.97 136.02 57.3 136.69 56.48 136.69L46.47 136.69L46.47 133.69L56.48 133.69C57.3 133.69 57.97 134.36 57.97 135.19Z" fill="#FFFFFF" fill-opacity="1.000000" fill-rule="nonzero"/>
	<path id="Vector" d="M68.93 135.19C68.93 136.41 67.93 137.4 66.71 137.4L56.71 137.4C57.93 137.4 58.92 136.41 58.92 135.19C58.92 133.97 57.93 132.98 56.71 132.98L66.71 132.98C67.93 132.98 68.93 133.97 68.93 135.19Z" fill="url(#paint_linear_7_1770_0)" fill-opacity="1.000000" fill-rule="nonzero"/>
	<path id="Vector" d="M56.48 139.62C56.48 140.84 57.47 141.83 58.69 141.83L68.93 141.83L68.93 137.4L58.69 137.4C57.47 137.4 56.48 138.39 56.48 139.62Z" fill="url(#paint_linear_7_1772_0)" fill-opacity="1.000000" fill-rule="nonzero"/>
	<path id="Vector" d="M57.42 139.62C57.42 140.44 58.1 141.11 58.92 141.11L68.93 141.11L68.93 138.12L58.92 138.12C58.1 138.12 57.42 138.79 57.42 139.62Z" fill="#FFFFFF" fill-opacity="1.000000" fill-rule="nonzero"/>
	<path id="Vector" d="M46.47 139.62C46.47 140.84 47.47 141.83 48.69 141.83L58.69 141.83C57.47 141.83 56.48 140.84 56.48 139.62C56.48 138.39 57.47 137.4 58.69 137.4L48.69 137.4C47.47 137.4 46.47 138.39 46.47 139.62Z" fill="url(#paint_linear_7_1774_0)" fill-opacity="1.000000" fill-rule="nonzero"/>
	<path id="Vector" d="M122.08 55.64L122.08 58.03C122.08 58.57 121.64 59.01 121.1 59.01L83.51 59.01C82.97 59.01 82.53 58.57 82.53 58.03L82.53 55.64C82.53 55.1 82.97 54.66 83.51 54.66L121.1 54.66C121.64 54.66 122.08 55.1 122.08 55.64Z" fill="url(#paint_linear_7_1776_0)" fill-opacity="1.000000" fill-rule="nonzero"/>
	<path id="Vector" d="M91.92 35.87L91.92 54.01C91.92 54.37 91.63 54.66 91.27 54.66L85.61 54.66C85.25 54.66 84.96 54.37 84.96 54.01L84.96 35.87C84.96 35.51 85.25 35.22 85.61 35.22L91.27 35.22C91.63 35.22 91.92 35.51 91.92 35.87Z" fill="url(#paint_linear_7_1779_0)" fill-opacity="1.000000" fill-rule="nonzero"/>
	<path id="Vector" d="M84.96 38.39L91.92 38.39L91.92 39.94L84.96 39.94L84.96 38.39Z" fill="#B3B3FF" fill-opacity="1.000000" fill-rule="evenodd"/>
	<path id="Vector" d="M90.18 42.76L90.18 51.64C90.18 51.85 90.01 52.01 89.81 52.01L87.07 52.01C86.86 52.01 86.7 51.85 86.7 51.64L86.7 42.76C86.7 42.55 86.86 42.38 87.07 42.38L89.81 42.38C90.01 42.38 90.18 42.55 90.18 42.76Z" fill="#B3B3FF" fill-opacity="1.000000" fill-rule="nonzero"/>
	<path id="Vector" d="M98.03 38.19L98.03 54.09C98.03 54.41 97.77 54.66 97.45 54.66L92.49 54.66C92.18 54.66 91.92 54.41 91.92 54.09L91.92 38.19C91.92 37.87 92.18 37.61 92.49 37.61L97.45 37.61C97.77 37.61 98.03 37.87 98.03 38.19Z" fill="url(#paint_linear_7_1784_0)" fill-opacity="1.000000" fill-rule="nonzero"/>
	<path id="Vector" d="M91.92 40.4L98.03 40.4L98.03 41.76L91.92 41.76L91.92 40.4Z" fill="#B3B3FF" fill-opacity="1.000000" fill-rule="evenodd"/>
	<path id="Vector" d="M96.37 51.53C96.37 52.29 95.74 52.92 94.97 52.92C94.21 52.92 93.58 52.29 93.58 51.53C93.58 50.76 94.21 50.13 94.97 50.13C95.74 50.13 96.37 50.76 96.37 51.53Z" fill="#B3B3FF" fill-opacity="1.000000" fill-rule="nonzero"/>
	<path id="Vector" d="M96.37 47.53C96.37 48.3 95.74 48.92 94.97 48.92C94.21 48.92 93.58 48.3 93.58 47.53C93.58 46.76 94.21 46.14 94.97 46.14C95.74 46.14 96.37 46.76 96.37 47.53Z" fill="#B3B3FF" fill-opacity="1.000000" fill-rule="nonzero"/>
	<path id="Vector" d="M104.99 35.87L104.99 54.01C104.99 54.37 104.69 54.66 104.33 54.66L98.68 54.66C98.32 54.66 98.03 54.37 98.03 54.01L98.03 35.87C98.03 35.51 98.32 35.22 98.68 35.22L104.33 35.22C104.69 35.22 104.99 35.51 104.99 35.87Z" fill="url(#paint_linear_7_1788_0)" fill-opacity="1.000000" fill-rule="nonzero"/>
	<path id="Vector" d="M98.03 37.49L104.99 37.49L104.99 39.04L98.03 39.04L98.03 37.49Z" fill="#B3B3FF" fill-opacity="1.000000" fill-rule="evenodd"/>
	<path id="Vector" d="M98.03 50.84L104.99 50.84L104.99 52.39L98.03 52.39L98.03 50.84Z" fill="#B3B3FF" fill-opacity="1.000000" fill-rule="evenodd"/>
	<path id="Vector" d="M102.98 44.94C102.98 46.96 102.32 48.6 101.51 48.6C100.69 48.6 100.04 46.96 100.04 44.94C100.04 42.92 100.69 41.28 101.51 41.28C102.32 41.28 102.98 42.92 102.98 44.94Z" fill="#B3B3FF" fill-opacity="1.000000" fill-rule="nonzero"/>
	<path id="Vector" d="M117.45 45.27C117.26 45.86 117.01 46.53 116.52 47.04C116.24 47.34 115.9 47.54 115.54 47.65C115.4 47.69 115.27 47.7 115.15 47.7C114.99 47.7 114.83 47.68 114.67 47.65C114.61 47.64 114.55 47.63 114.49 47.62C114.22 47.58 113.95 47.57 113.68 47.56C113.12 47.53 112.54 47.5 111.96 47.22C111.63 47.06 111.4 46.86 111.26 46.62C111.01 46.17 111.11 45.64 111.24 45.1C111.35 44.62 111.45 44.11 111.22 43.73C111.15 43.62 111.07 43.52 110.97 43.42C110.86 43.3 110.74 43.18 110.66 43.02C110.53 42.75 110.52 42.42 110.64 41.99C110.66 41.9 110.69 41.8 110.72 41.71C110.79 41.49 110.86 41.29 110.87 41.07C110.9 40.77 110.82 40.45 110.75 40.15L110.75 40.11C110.66 39.76 110.59 39.42 110.64 39.08C110.69 38.76 110.88 38.36 111.26 38.21C111.62 38.07 112.08 38.2 112.48 38.55C112.69 38.72 112.87 38.93 113.04 39.14C113.36 39.5 113.66 39.85 114.08 40.01C114.19 40.05 114.3 40.08 114.42 40.11C114.65 40.16 114.89 40.22 115.09 40.38C115.43 40.66 115.48 41.14 115.5 41.47L115.5 41.62C115.51 41.93 115.52 42.25 115.66 42.51C115.84 42.83 116.18 43.01 116.53 43.2C116.93 43.42 117.34 43.64 117.52 44.07C117.67 44.45 117.57 44.87 117.45 45.27Z" fill="url(#paint_linear_7_1795_0)" fill-opacity="1.000000" fill-rule="nonzero"/>
	<path id="Vector" d="M115.91 44.43C115.92 44.38 115.88 44.32 115.82 44.31C115.77 44.3 115.71 44.34 115.7 44.39C115.7 44.4 115.48 45.47 114.55 46.09C114.47 45.73 114.38 45.37 114.29 45.01C114.29 45.01 114.29 45.01 114.29 45.01C114.29 45 114.28 44.99 114.28 44.98C114.22 44.78 114.17 44.59 114.11 44.4C114.74 43.76 114.78 42.83 114.78 42.79C114.78 42.73 114.73 42.68 114.67 42.68C114.61 42.68 114.57 42.72 114.57 42.78C114.57 42.79 114.54 43.59 114.04 44.17C113.95 43.88 113.86 43.59 113.76 43.31C113.76 43.31 113.76 43.3 113.76 43.3C113.76 43.29 113.75 43.27 113.75 43.26C113.68 43.08 113.62 42.9 113.56 42.73C114.06 42.03 114.01 41.1 114.01 41.06C114.01 41.01 113.97 40.96 113.9 40.97C113.84 40.97 113.8 41.02 113.8 41.08C113.8 41.08 113.84 41.86 113.47 42.49C113.41 42.33 113.35 42.17 113.29 42.02C113.29 42.02 113.29 42.01 113.29 42.01C113.29 42 113.29 42 113.28 41.99C113.19 41.76 113.1 41.53 113.01 41.32C113.39 40.81 113.3 40.11 113.3 40.08C113.29 40.02 113.24 39.98 113.18 39.99C113.12 40 113.08 40.05 113.09 40.11C113.09 40.11 113.16 40.66 112.92 41.09C112.86 40.94 112.8 40.8 112.74 40.67C112.74 40.66 112.73 40.65 112.73 40.64C112.28 39.61 111.94 38.95 111.93 38.93C111.9 38.88 111.84 38.86 111.79 38.89C111.74 38.91 111.72 38.97 111.74 39.03C111.75 39.04 112.06 39.64 112.47 40.58C111.7 40.49 111.42 39.86 111.41 39.83C111.39 39.78 111.33 39.75 111.27 39.77C111.22 39.8 111.2 39.86 111.22 39.91C111.23 39.94 111.58 40.74 112.57 40.8C112.72 41.15 112.88 41.54 113.05 41.97C112.28 42.14 111.73 41.2 111.72 41.19C111.69 41.14 111.63 41.12 111.58 41.15C111.53 41.18 111.51 41.24 111.54 41.29C111.55 41.3 112.07 42.21 112.86 42.21C112.95 42.21 113.04 42.19 113.13 42.17C113.26 42.51 113.39 42.86 113.52 43.23C112.59 43.31 111.92 42.51 111.92 42.5C111.88 42.45 111.81 42.45 111.77 42.48C111.72 42.52 111.72 42.58 111.75 42.63C111.78 42.67 112.43 43.45 113.38 43.45C113.45 43.45 113.52 43.44 113.59 43.43C113.75 43.91 113.9 44.42 114.05 44.93C112.99 45.03 112.26 44.26 112.25 44.25C112.21 44.21 112.14 44.21 112.1 44.25C112.06 44.29 112.06 44.35 112.1 44.4C112.13 44.43 112.82 45.15 113.86 45.15C113.94 45.15 114.02 45.15 114.1 45.14C114.25 45.68 114.38 46.23 114.48 46.79C113.33 47.09 112.26 46.07 112.24 46.06C112.2 46.02 112.14 46.02 112.1 46.06C112.06 46.1 112.06 46.16 112.1 46.2C112.14 46.25 112.99 47.06 114.03 47.06C114.19 47.06 114.35 47.04 114.52 47C114.6 47.47 114.66 47.94 114.7 48.41C114.7 48.47 114.75 48.51 114.8 48.51C114.81 48.51 114.81 48.51 114.81 48.51C114.87 48.5 114.91 48.45 114.91 48.4C114.87 47.88 114.8 47.36 114.7 46.84C114.7 46.84 114.7 46.84 114.7 46.83C114.7 46.83 114.7 46.83 114.7 46.83C114.67 46.65 114.64 46.48 114.6 46.3C115.66 45.65 115.9 44.48 115.91 44.43Z" fill="#C2D5FF" fill-opacity="1.000000" fill-rule="nonzero"/>
	<path id="Vector" d="M121.82 41.83C121.72 42.02 121.58 42.17 121.44 42.31C121.33 42.44 121.22 42.55 121.14 42.69C120.86 43.17 120.97 43.78 121.11 44.37C121.27 45.03 121.39 45.67 121.08 46.22C120.92 46.5 120.64 46.74 120.24 46.94C119.89 47.11 119.54 47.21 119.19 47.26C118.85 47.32 118.5 47.34 118.16 47.35C117.83 47.36 117.5 47.38 117.17 47.43C117.09 47.44 117.01 47.45 116.94 47.46C116.75 47.49 116.56 47.52 116.37 47.52C116.22 47.52 116.06 47.51 115.9 47.46C115.46 47.33 115.05 47.08 114.71 46.73C114.12 46.11 113.81 45.3 113.58 44.58C113.44 44.1 113.32 43.59 113.5 43.13C113.71 42.61 114.21 42.34 114.69 42.08C115.13 41.84 115.54 41.62 115.76 41.23C115.94 40.91 115.95 40.52 115.96 40.14L115.97 39.95C115.98 39.55 116.05 38.98 116.45 38.64C116.69 38.45 116.98 38.38 117.26 38.31C117.4 38.27 117.55 38.24 117.68 38.19C118.2 37.99 118.57 37.57 118.95 37.12C119.17 36.87 119.38 36.61 119.63 36.4C120.12 35.98 120.67 35.82 121.1 35.99C121.56 36.17 121.78 36.65 121.84 37.03C121.9 37.45 121.82 37.86 121.72 38.29L121.71 38.33C121.62 38.7 121.53 39.09 121.56 39.46C121.58 39.73 121.66 39.98 121.74 40.25C121.78 40.36 121.82 40.48 121.85 40.59C121.98 41.1 121.98 41.5 121.82 41.83Z" fill="url(#paint_linear_7_1797_0)" fill-opacity="1.000000" fill-rule="nonzero"/>
	<path id="Vector" d="M121.14 38.04C121.16 37.98 121.14 37.92 121.08 37.9C121.03 37.88 120.97 37.9 120.95 37.95C120.93 37.99 120.58 38.79 119.59 38.89C120.11 37.72 120.49 36.98 120.5 36.96C120.53 36.91 120.51 36.84 120.46 36.82C120.41 36.79 120.34 36.81 120.32 36.86C120.3 36.88 119.89 37.69 119.34 38.95C119.33 38.96 119.33 38.97 119.33 38.98C119.25 39.16 119.17 39.34 119.09 39.53C118.76 39 118.85 38.29 118.85 38.28C118.86 38.23 118.82 38.17 118.77 38.17C118.71 38.16 118.66 38.2 118.65 38.25C118.64 38.29 118.53 39.15 119 39.76C118.89 40.02 118.78 40.3 118.67 40.59C118.66 40.6 118.66 40.6 118.65 40.61C118.65 40.62 118.65 40.62 118.65 40.63C118.57 40.83 118.5 41.03 118.42 41.24C117.94 40.47 117.98 39.48 117.98 39.47C117.99 39.41 117.94 39.36 117.89 39.36C117.82 39.35 117.78 39.4 117.78 39.45C117.77 39.5 117.72 40.64 118.33 41.48C118.25 41.7 118.18 41.92 118.1 42.14C118.09 42.16 118.08 42.17 118.08 42.19C118.08 42.19 118.08 42.19 118.08 42.2C117.96 42.55 117.84 42.91 117.73 43.28C117.09 42.57 117.05 41.56 117.05 41.55C117.05 41.49 117.01 41.45 116.95 41.45C116.95 41.45 116.95 41.45 116.95 41.45C116.89 41.45 116.84 41.5 116.84 41.55C116.85 41.6 116.88 42.74 117.66 43.51C117.59 43.75 117.52 43.99 117.45 44.23C117.45 44.24 117.44 44.25 117.44 44.26C117.44 44.27 117.44 44.27 117.44 44.27C117.32 44.71 117.21 45.16 117.11 45.61C115.94 44.86 115.67 43.53 115.67 43.52C115.66 43.46 115.6 43.42 115.55 43.43C115.49 43.45 115.46 43.5 115.47 43.56C115.48 43.62 115.76 45.04 117.06 45.83C117.02 46.05 116.98 46.27 116.94 46.49C116.94 46.49 116.93 46.49 116.93 46.49C116.93 46.5 116.93 46.51 116.93 46.51C116.82 47.15 116.73 47.78 116.68 48.4C116.68 48.45 116.72 48.5 116.78 48.51C116.78 48.51 116.79 48.51 116.79 48.51C116.84 48.51 116.89 48.47 116.89 48.41C116.94 47.83 117.02 47.25 117.12 46.66C117.33 46.71 117.53 46.74 117.73 46.74C119 46.74 120.02 45.76 120.07 45.71C120.11 45.67 120.11 45.6 120.07 45.56C120.03 45.52 119.97 45.52 119.93 45.56C119.91 45.57 118.58 46.84 117.15 46.45C117.28 45.76 117.44 45.07 117.62 44.39C117.73 44.41 117.84 44.41 117.94 44.41C119.2 44.41 120.04 43.54 120.07 43.5C120.11 43.46 120.11 43.39 120.07 43.35C120.03 43.31 119.96 43.32 119.92 43.36C119.91 43.37 118.99 44.32 117.68 44.19C117.86 43.55 118.06 42.92 118.26 42.32C118.35 42.33 118.44 42.34 118.52 42.34C119.67 42.34 120.45 41.39 120.49 41.35C120.53 41.3 120.52 41.24 120.47 41.2C120.43 41.16 120.36 41.17 120.33 41.22C120.32 41.23 119.48 42.23 118.33 42.11C118.49 41.65 118.66 41.2 118.82 40.77C118.93 40.8 119.05 40.82 119.16 40.82C120.11 40.82 120.74 39.73 120.75 39.72C120.78 39.67 120.76 39.6 120.71 39.58C120.66 39.55 120.6 39.56 120.57 39.61C120.56 39.63 119.87 40.82 118.89 40.58C119.1 40.04 119.31 39.54 119.5 39.1C120.7 39.04 121.14 38.05 121.14 38.04Z" fill="#C2D5FF" fill-opacity="1.000000" fill-rule="nonzero"/>
	<path id="Vector" d="M119.22 48.61L119.22 51.64C119.22 52.78 118.67 53.85 117.75 54.52C117.63 54.61 117.48 54.66 117.31 54.66L113.99 54.66C113.82 54.66 113.65 54.61 113.51 54.5C112.6 53.82 112.08 52.78 112.08 51.64L112.08 48.61C112.08 48.44 112.22 48.3 112.39 48.3L118.91 48.3C119.08 48.3 119.22 48.44 119.22 48.61Z" fill="url(#paint_linear_7_1799_0)" fill-opacity="1.000000" fill-rule="nonzero"/>
	<path id="Vector" d="M119.22 50.06L119.22 51.23C119.22 51.28 119.17 51.33 119.11 51.33L112.18 51.33C112.13 51.33 112.08 51.28 112.08 51.23L112.08 50.06C112.08 50 112.13 49.96 112.18 49.96L119.11 49.96C119.17 49.96 119.22 50 119.22 50.06Z" fill="#B3B3FF" fill-opacity="1.000000" fill-rule="nonzero"/>
	<path id="Vector" d="M66.01 46.73L66.01 96.4C66.01 97.6 65.04 98.57 63.84 98.57L19.03 98.57C17.83 98.57 16.86 97.6 16.86 96.4L16.86 46.73C16.86 45.53 17.83 44.56 19.03 44.56L63.84 44.56C65.04 44.56 66.01 45.53 66.01 46.73Z" fill="#E7ECFF" fill-opacity="1.000000" fill-rule="nonzero"/>
	<path id="Vector" d="M62.96 49.17L62.96 93.95C62.96 94.79 62.28 95.47 61.45 95.47L21.42 95.47C20.59 95.47 19.91 94.79 19.91 93.95L19.91 49.17C19.91 48.34 20.59 47.66 21.42 47.66L61.45 47.66C62.28 47.66 62.96 48.34 62.96 49.17Z" fill="url(#paint_linear_7_1803_0)" fill-opacity="1.000000" fill-rule="nonzero"/>
	<g opacity="0.400000">
		<path id="Vector" d="M62.96 49.7L62.96 53.96L29.29 95.47L25.83 95.47L62.96 49.7Z" fill="#FFFFFF" fill-opacity="1.000000" fill-rule="nonzero"/>
		<path id="Vector" d="M62.96 58.36L62.96 68.24L40.88 95.47L32.86 95.47L62.96 58.36Z" fill="#FFFFFF" fill-opacity="1.000000" fill-rule="nonzero"/>
		<path id="Vector" d="M62.96 77.24L62.96 81.5L51.63 95.47L48.17 95.47L62.96 77.24Z" fill="#FFFFFF" fill-opacity="1.000000" fill-rule="nonzero"/>
		<path id="Vector" d="M31.61 47.66L19.91 62.08L19.91 52.2L23.59 47.66L31.61 47.66Z" fill="#FFFFFF" fill-opacity="1.000000" fill-rule="nonzero"/>
		<path id="Vector" d="M42.37 47.66L19.91 75.34L19.91 71.08L38.91 47.66L42.37 47.66Z" fill="#FFFFFF" fill-opacity="1.000000" fill-rule="nonzero"/>
	</g>
	<path id="Vector" d="M66.08 69.87L42.71 69.87L42.71 45.7L39.33 45.7L39.33 69.87L16.79 69.87L16.79 73.25L39.33 73.25L39.33 97.18L42.71 97.18L42.71 73.25L66.08 73.25L66.08 69.87Z" fill="#E7ECFF" fill-opacity="1.000000" fill-rule="nonzero"/>
</svg>
