<svg width="206.400024" height="187.319397" viewBox="0 0 206.4 187.319" fill="none" xmlns="http://www.w3.org/2000/svg" xmlns:xlink="http://www.w3.org/1999/xlink">
	<desc>
			Created with Pixso.
	</desc>
	<defs>
		<linearGradient x1="152.673157" y1="84.747658" x2="154.159485" y2="7.996328" id="paint_linear_7_2500_0" gradientUnits="userSpaceOnUse">
			<stop stop-color="#E7ECFF"/>
			<stop offset="1.000000" stop-color="#C2D5FF"/>
		</linearGradient>
		<linearGradient x1="153.160034" y1="32.521492" x2="153.346985" y2="14.112504" id="paint_linear_7_2501_0" gradientUnits="userSpaceOnUse">
			<stop offset="0.000000" stop-color="#B3B3FF"/>
			<stop offset="1.000000" stop-color="#8F8FEA"/>
		</linearGradient>
		<linearGradient x1="142.692383" y1="26.283077" x2="197.125244" y2="26.283077" id="paint_linear_7_2502_0" gradientUnits="userSpaceOnUse">
			<stop stop-color="#E7ECFF"/>
			<stop offset="1.000000" stop-color="#C2D5FF"/>
		</linearGradient>
		<linearGradient x1="67.648788" y1="74.195969" x2="50.144051" y2="77.857079" id="paint_linear_7_2553_0" gradientUnits="userSpaceOnUse">
			<stop stop-color="#771E24"/>
			<stop offset="1.000000" stop-color="#47090E"/>
		</linearGradient>
		<linearGradient x1="12.503922" y1="125.246429" x2="145.273132" y2="125.246429" id="paint_linear_7_2557_0" gradientUnits="userSpaceOnUse">
			<stop stop-color="#E7ECFF"/>
			<stop offset="1.000000" stop-color="#C2D5FF"/>
		</linearGradient>
		<linearGradient x1="143.213318" y1="175.631485" x2="128.989853" y2="140.225784" id="paint_linear_7_2561_0" gradientUnits="userSpaceOnUse">
			<stop stop-color="#E7ECFF"/>
			<stop offset="1.000000" stop-color="#C2D5FF"/>
		</linearGradient>
		<linearGradient x1="122.117020" y1="176.806000" x2="110.570023" y2="138.035599" id="paint_linear_7_2562_0" gradientUnits="userSpaceOnUse">
			<stop stop-color="#E7ECFF"/>
			<stop offset="1.000000" stop-color="#C2D5FF"/>
		</linearGradient>
		<linearGradient x1="9.782825" y1="186.278122" x2="30.113979" y2="122.905411" id="paint_linear_7_2564_0" gradientUnits="userSpaceOnUse">
			<stop stop-color="#E7ECFF"/>
			<stop offset="1.000000" stop-color="#C2D5FF"/>
		</linearGradient>
		<linearGradient x1="46.131500" y1="128.560455" x2="33.106388" y2="174.431656" id="paint_linear_7_2565_0" gradientUnits="userSpaceOnUse">
			<stop stop-color="#E7ECFF"/>
			<stop offset="1.000000" stop-color="#C2D5FF"/>
		</linearGradient>
		<linearGradient x1="78.857208" y1="106.375908" x2="120.027748" y2="106.375908" id="paint_linear_7_2567_0" gradientUnits="userSpaceOnUse">
			<stop offset="0.000000" stop-color="#78A7FF"/>
			<stop offset="1.000000" stop-color="#3D79F3"/>
		</linearGradient>
		<linearGradient x1="102.713089" y1="93.348518" x2="94.989853" y2="124.111580" id="paint_linear_7_2568_0" gradientUnits="userSpaceOnUse">
			<stop stop-color="#E7ECFF"/>
			<stop offset="1.000000" stop-color="#C2D5FF"/>
		</linearGradient>
		<linearGradient x1="87.989136" y1="121.704903" x2="87.877937" y2="124.707214" id="paint_linear_7_2613_0" gradientUnits="userSpaceOnUse">
			<stop offset="0.000000" stop-color="#78A7FF"/>
			<stop offset="1.000000" stop-color="#3D79F3"/>
		</linearGradient>
		<linearGradient x1="110.849205" y1="123.058540" x2="96.869049" y2="122.156601" id="paint_linear_7_2614_0" gradientUnits="userSpaceOnUse">
			<stop offset="0.000000" stop-color="#78A7FF"/>
			<stop offset="1.000000" stop-color="#3D79F3"/>
		</linearGradient>
		<linearGradient x1="59.737999" y1="180.886871" x2="75.574051" y2="180.886871" id="paint_linear_7_2617_0" gradientUnits="userSpaceOnUse">
			<stop offset="0.000000" stop-color="#FF8888"/>
			<stop offset="1.000000" stop-color="#F24E4E"/>
		</linearGradient>
		<linearGradient x1="55.472271" y1="153.321655" x2="71.754608" y2="153.321655" id="paint_linear_7_2629_0" gradientUnits="userSpaceOnUse">
			<stop offset="0.000000" stop-color="#5C5CA0"/>
			<stop offset="1.000000" stop-color="#434389"/>
		</linearGradient>
		<linearGradient x1="49.655518" y1="151.489349" x2="95.003044" y2="151.489349" id="paint_linear_7_2631_0" gradientUnits="userSpaceOnUse">
			<stop offset="0.000000" stop-color="#5C5CA0"/>
			<stop offset="1.000000" stop-color="#434389"/>
		</linearGradient>
		<linearGradient x1="83.039246" y1="181.834473" x2="98.875290" y2="181.834473" id="paint_linear_7_2633_0" gradientUnits="userSpaceOnUse">
			<stop offset="0.000000" stop-color="#FF8888"/>
			<stop offset="1.000000" stop-color="#F24E4E"/>
		</linearGradient>
		<linearGradient x1="41.958012" y1="110.978996" x2="70.245590" y2="110.978996" id="paint_linear_7_2645_0" gradientUnits="userSpaceOnUse">
			<stop offset="0.000000" stop-color="#FFBB83"/>
			<stop offset="1.000000" stop-color="#FF9D45"/>
		</linearGradient>
		<linearGradient x1="53.038334" y1="87.937355" x2="61.926659" y2="88.197884" id="paint_linear_7_2646_0" gradientUnits="userSpaceOnUse">
			<stop offset="0.000000" stop-color="#FFBB83"/>
			<stop offset="1.000000" stop-color="#FF9D45"/>
		</linearGradient>
		<linearGradient x1="62.949448" y1="105.312149" x2="96.506470" y2="105.312149" id="paint_linear_7_2648_0" gradientUnits="userSpaceOnUse">
			<stop offset="0.000000" stop-color="#FFBB83"/>
			<stop offset="1.000000" stop-color="#FF9D45"/>
		</linearGradient>
		<linearGradient x1="64.638313" y1="125.362228" x2="31.891834" y2="126.469086" id="paint_linear_7_2649_0" gradientUnits="userSpaceOnUse">
			<stop stop-color="#E7ECFF"/>
			<stop offset="1.000000" stop-color="#C2D5FF"/>
		</linearGradient>
		<linearGradient x1="64.841934" y1="119.504639" x2="45.112148" y2="122.235275" id="paint_linear_7_2650_0" gradientUnits="userSpaceOnUse">
			<stop stop-color="#E7ECFF"/>
			<stop offset="1.000000" stop-color="#C2D5FF"/>
		</linearGradient>
		<linearGradient x1="58.393780" y1="166.075897" x2="61.904015" y2="166.075897" id="paint_linear_7_2652_0" gradientUnits="userSpaceOnUse">
			<stop stop-color="#E7ECFF"/>
			<stop offset="1.000000" stop-color="#C2D5FF"/>
		</linearGradient>
		<linearGradient x1="60.182537" y1="178.258286" x2="60.143959" y2="180.649948" id="paint_linear_7_2653_0" gradientUnits="userSpaceOnUse">
			<stop stop-color="#E7ECFF"/>
			<stop offset="1.000000" stop-color="#C2D5FF"/>
		</linearGradient>
		<linearGradient x1="60.030678" y1="181.013824" x2="60.146408" y2="184.331329" id="paint_linear_7_2654_0" gradientUnits="userSpaceOnUse">
			<stop stop-color="#E7ECFF"/>
			<stop offset="1.000000" stop-color="#C2D5FF"/>
		</linearGradient>
		<linearGradient x1="62.870621" y1="76.998650" x2="64.518074" y2="76.998650" id="paint_linear_7_2656_0" gradientUnits="userSpaceOnUse">
			<stop stop-color="#771E24"/>
			<stop offset="1.000000" stop-color="#47090E"/>
		</linearGradient>
		<linearGradient x1="127.581314" y1="121.089188" x2="136.239487" y2="121.089188" id="paint_linear_7_2658_0" gradientUnits="userSpaceOnUse">
			<stop offset="0.000000" stop-color="#A7C161"/>
			<stop offset="1.000000" stop-color="#8BA53A"/>
		</linearGradient>
		<linearGradient x1="128.240738" y1="121.089211" x2="136.239532" y2="121.089211" id="paint_linear_7_2659_0" gradientUnits="userSpaceOnUse">
			<stop stop-color="#E7ECFF"/>
			<stop offset="1.000000" stop-color="#C2D5FF"/>
		</linearGradient>
		<linearGradient x1="120.624619" y1="121.089180" x2="129.119568" y2="121.089180" id="paint_linear_7_2660_0" gradientUnits="userSpaceOnUse">
			<stop offset="0.000000" stop-color="#A7C161"/>
			<stop offset="1.000000" stop-color="#8BA53A"/>
		</linearGradient>
		<linearGradient x1="120.624542" y1="124.165611" x2="129.282715" y2="124.165611" id="paint_linear_7_2661_0" gradientUnits="userSpaceOnUse">
			<stop offset="0.000000" stop-color="#FF8888"/>
			<stop offset="1.000000" stop-color="#F24E4E"/>
		</linearGradient>
		<linearGradient x1="120.624542" y1="124.165627" x2="128.623337" y2="124.165627" id="paint_linear_7_2662_0" gradientUnits="userSpaceOnUse">
			<stop stop-color="#E7ECFF"/>
			<stop offset="1.000000" stop-color="#C2D5FF"/>
		</linearGradient>
		<linearGradient x1="127.744537" y1="124.165627" x2="136.239502" y2="124.165627" id="paint_linear_7_2663_0" gradientUnits="userSpaceOnUse">
			<stop offset="0.000000" stop-color="#FF8888"/>
			<stop offset="1.000000" stop-color="#F24E4E"/>
		</linearGradient>
		<linearGradient x1="138.931046" y1="156.192535" x2="149.280640" y2="156.192535" id="paint_linear_7_2665_0" gradientUnits="userSpaceOnUse">
			<stop stop-color="#E7ECFF"/>
			<stop offset="1.000000" stop-color="#C2D5FF"/>
		</linearGradient>
		<linearGradient x1="126.326546" y1="157.481888" x2="136.676147" y2="157.481888" id="paint_linear_7_2666_0" gradientUnits="userSpaceOnUse">
			<stop stop-color="#E7ECFF"/>
			<stop offset="1.000000" stop-color="#C2D5FF"/>
		</linearGradient>
		<linearGradient x1="131.778824" y1="149.388474" x2="141.541748" y2="149.388474" id="paint_linear_7_2667_0" gradientUnits="userSpaceOnUse">
			<stop stop-color="#E7ECFF"/>
			<stop offset="1.000000" stop-color="#C2D5FF"/>
		</linearGradient>
		<linearGradient x1="131.501404" y1="169.214264" x2="143.663879" y2="169.214264" id="paint_linear_7_2671_0" gradientUnits="userSpaceOnUse">
			<stop stop-color="#E7ECFF"/>
			<stop offset="1.000000" stop-color="#C2D5FF"/>
		</linearGradient>
		<linearGradient x1="90.987785" y1="13.905980" x2="91.900528" y2="39.208706" id="paint_linear_7_2684_0" gradientUnits="userSpaceOnUse">
			<stop stop-color="#E7ECFF"/>
			<stop offset="1.000000" stop-color="#C2D5FF"/>
		</linearGradient>
		<linearGradient x1="91.138649" y1="10.639457" x2="91.431549" y2="-0.293996" id="paint_linear_7_2686_0" gradientUnits="userSpaceOnUse">
			<stop offset="0.000000" stop-color="#B3B3FF"/>
			<stop offset="1.000000" stop-color="#8F8FEA"/>
		</linearGradient>
		<linearGradient x1="86.100578" y1="5.771088" x2="112.734749" y2="5.771088" id="paint_linear_7_2687_0" gradientUnits="userSpaceOnUse">
			<stop stop-color="#E7ECFF"/>
			<stop offset="1.000000" stop-color="#C2D5FF"/>
		</linearGradient>
		<linearGradient x1="31.607183" y1="45.538059" x2="37.798790" y2="45.538059" id="paint_linear_7_2727_0" gradientUnits="userSpaceOnUse">
			<stop stop-color="#E7ECFF"/>
			<stop offset="1.000000" stop-color="#C2D5FF"/>
		</linearGradient>
		<linearGradient x1="56.356880" y1="42.733410" x2="56.356880" y2="48.925175" id="paint_linear_7_2729_0" gradientUnits="userSpaceOnUse">
			<stop stop-color="#E7ECFF"/>
			<stop offset="1.000000" stop-color="#C2D5FF"/>
		</linearGradient>
		<linearGradient x1="59.161736" y1="60.420918" x2="52.969734" y2="60.420918" id="paint_linear_7_2732_0" gradientUnits="userSpaceOnUse">
			<stop stop-color="#E7ECFF"/>
			<stop offset="1.000000" stop-color="#C2D5FF"/>
		</linearGradient>
		<linearGradient x1="34.411724" y1="63.225517" x2="34.411724" y2="57.033703" id="paint_linear_7_2734_0" gradientUnits="userSpaceOnUse">
			<stop stop-color="#E7ECFF"/>
			<stop offset="1.000000" stop-color="#C2D5FF"/>
		</linearGradient>
		<linearGradient x1="33.721649" y1="52.979534" x2="57.047234" y2="52.979534" id="paint_linear_7_2735_0" gradientUnits="userSpaceOnUse">
			<stop stop-color="#E7ECFF"/>
			<stop offset="1.000000" stop-color="#C2D5FF"/>
		</linearGradient>
		<linearGradient x1="4.455337" y1="70.089699" x2="10.647343" y2="70.089699" id="paint_linear_7_2746_0" gradientUnits="userSpaceOnUse">
			<stop stop-color="#E7ECFF"/>
			<stop offset="1.000000" stop-color="#C2D5FF"/>
		</linearGradient>
		<linearGradient x1="29.205326" y1="67.284691" x2="29.205326" y2="73.476265" id="paint_linear_7_2748_0" gradientUnits="userSpaceOnUse">
			<stop stop-color="#E7ECFF"/>
			<stop offset="1.000000" stop-color="#C2D5FF"/>
		</linearGradient>
		<linearGradient x1="32.009979" y1="84.972038" x2="25.818398" y2="84.972038" id="paint_linear_7_2751_0" gradientUnits="userSpaceOnUse">
			<stop stop-color="#E7ECFF"/>
			<stop offset="1.000000" stop-color="#C2D5FF"/>
		</linearGradient>
		<linearGradient x1="7.260102" y1="87.776649" x2="7.260102" y2="81.584839" id="paint_linear_7_2753_0" gradientUnits="userSpaceOnUse">
			<stop stop-color="#E7ECFF"/>
			<stop offset="1.000000" stop-color="#C2D5FF"/>
		</linearGradient>
		<linearGradient x1="6.570055" y1="77.530701" x2="29.895638" y2="77.530701" id="paint_linear_7_2754_0" gradientUnits="userSpaceOnUse">
			<stop stop-color="#E7ECFF"/>
			<stop offset="1.000000" stop-color="#C2D5FF"/>
		</linearGradient>
		<linearGradient x1="84.223137" y1="55.724258" x2="90.414764" y2="55.724258" id="paint_linear_7_2765_0" gradientUnits="userSpaceOnUse">
			<stop stop-color="#E7ECFF"/>
			<stop offset="1.000000" stop-color="#C2D5FF"/>
		</linearGradient>
		<linearGradient x1="108.972832" y1="52.919678" x2="108.972832" y2="59.111305" id="paint_linear_7_2767_0" gradientUnits="userSpaceOnUse">
			<stop stop-color="#E7ECFF"/>
			<stop offset="1.000000" stop-color="#C2D5FF"/>
		</linearGradient>
		<linearGradient x1="111.777580" y1="70.606949" x2="105.585579" y2="70.606949" id="paint_linear_7_2770_0" gradientUnits="userSpaceOnUse">
			<stop stop-color="#E7ECFF"/>
			<stop offset="1.000000" stop-color="#C2D5FF"/>
		</linearGradient>
		<linearGradient x1="87.027702" y1="73.411629" x2="87.027702" y2="67.219826" id="paint_linear_7_2772_0" gradientUnits="userSpaceOnUse">
			<stop stop-color="#E7ECFF"/>
			<stop offset="1.000000" stop-color="#C2D5FF"/>
		</linearGradient>
		<linearGradient x1="86.337479" y1="63.165688" x2="109.663063" y2="63.165688" id="paint_linear_7_2773_0" gradientUnits="userSpaceOnUse">
			<stop stop-color="#E7ECFF"/>
			<stop offset="1.000000" stop-color="#C2D5FF"/>
		</linearGradient>
		<linearGradient x1="160.295273" y1="117.969887" x2="177.367676" y2="117.969887" id="paint_linear_7_2782_0" gradientUnits="userSpaceOnUse">
			<stop stop-color="#E7ECFF"/>
			<stop offset="1.000000" stop-color="#C2D5FF"/>
		</linearGradient>
	</defs>
	<path id="Vector" d="M100.4 28.53L100 28.53L100 23.3C100 18.56 103.86 14.69 108.61 14.69L114.03 14.69L114.03 15.1L108.61 15.1C104.09 15.1 100.4 18.78 100.4 23.3L100.4 28.53Z" fill="#B7BCFF" fill-opacity="1.000000" fill-rule="nonzero"/>
	<path id="Vector" d="M113.94 100.09L108.71 100.09C103.96 100.09 100.1 96.22 100.1 91.48L100.1 86.06L100.5 86.06L100.5 91.48C100.5 96 104.18 99.68 108.71 99.68L113.94 99.68L113.94 100.09Z" fill="#B7BCFF" fill-opacity="1.000000" fill-rule="nonzero"/>
	<path id="Vector" d="M206.4 28.53L205.99 28.53L205.99 23.3C205.99 18.78 202.31 15.1 197.79 15.1L192.37 15.1L192.37 14.69L197.79 14.69C202.53 14.69 206.4 18.56 206.4 23.3L206.4 28.53Z" fill="#B7BCFF" fill-opacity="1.000000" fill-rule="nonzero"/>
	<path id="Vector" d="M197.69 100.09L192.46 100.09L192.46 99.68L197.69 99.68C202.22 99.68 205.9 96 205.9 91.48L205.9 86.06L206.3 86.06L206.3 91.48C206.3 96.22 202.44 100.09 197.69 100.09Z" fill="#B7BCFF" fill-opacity="1.000000" fill-rule="nonzero"/>
	<path id="Vector" d="M201.61 23.3L201.61 91.48C201.61 93.75 199.76 95.59 197.49 95.59L108.91 95.59C106.63 95.59 104.79 93.75 104.79 91.48L104.79 23.3C104.79 21.03 106.63 19.19 108.91 19.19L197.49 19.19C199.76 19.19 201.61 21.03 201.61 23.3Z" fill="url(#paint_linear_7_2500_0)" fill-opacity="1.000000" fill-rule="nonzero"/>
	<path id="Vector" d="M201.61 23.3L201.61 33.14L133.91 33.14C133.2 33.14 132.53 32.79 132.13 32.2L129.49 28.32C129.08 27.73 128.42 27.38 127.7 27.38L118.43 27.38C117.71 27.38 117.05 27.73 116.64 28.32L114 32.2C113.6 32.79 112.93 33.14 112.22 33.14L104.79 33.14L104.79 23.3C104.79 21.03 106.64 19.18 108.91 19.18L197.49 19.18C199.76 19.18 201.61 21.03 201.61 23.3Z" fill="url(#paint_linear_7_2501_0)" fill-opacity="1.000000" fill-rule="nonzero"/>
	<path id="Vector" d="M197.12 26.28C197.12 27.96 195.76 29.32 194.08 29.32L145.73 29.32C144.05 29.32 142.69 27.96 142.69 26.28C142.69 24.6 144.05 23.24 145.73 23.24L194.08 23.24C195.76 23.24 197.12 24.6 197.12 26.28Z" fill="url(#paint_linear_7_2502_0)" fill-opacity="1.000000" fill-rule="nonzero"/>
	<path id="Vector" d="M194.08 23.24L191.11 23.24L191.11 29.32L194.08 29.32C195.76 29.32 197.12 27.96 197.12 26.28C197.12 24.6 195.76 23.24 194.08 23.24Z" fill="#3D79F3" fill-opacity="1.000000" fill-rule="nonzero"/>
	<path id="Vector" d="M193.64 27.11C193.64 27.11 193.64 27.11 193.63 27.11C193.35 27.11 193.08 27 192.88 26.8C192.67 26.59 192.56 26.33 192.56 26.04C192.56 25.75 192.67 25.48 192.88 25.28C193.08 25.08 193.35 24.97 193.64 24.97C193.92 24.97 194.19 25.08 194.39 25.28C194.6 25.48 194.71 25.75 194.71 26.04C194.71 26.33 194.6 26.59 194.39 26.8C194.19 27 193.92 27.11 193.64 27.11ZM193.64 25.17C193.4 25.17 193.18 25.26 193.02 25.42C192.85 25.59 192.76 25.81 192.76 26.04C192.76 26.27 192.85 26.49 193.02 26.65C193.18 26.82 193.4 26.91 193.64 26.91C193.87 26.91 194.09 26.82 194.25 26.65C194.42 26.49 194.51 26.27 194.51 26.04C194.51 25.81 194.42 25.59 194.25 25.42C194.09 25.26 193.87 25.17 193.64 25.17Z" fill="#FFFFFF" fill-opacity="1.000000" fill-rule="nonzero"/>
	<path id="Vector" d="M195.09 27.59C195.06 27.59 195.03 27.58 195.02 27.56L194.25 26.8C194.21 26.76 194.21 26.69 194.25 26.65C194.29 26.61 194.35 26.61 194.39 26.65L195.16 27.42C195.2 27.46 195.2 27.52 195.16 27.56C195.14 27.58 195.11 27.59 195.09 27.59Z" fill="#FFFFFF" fill-opacity="1.000000" fill-rule="nonzero"/>
	<path id="Vector" d="M110.31 38.47L119.87 38.47L119.87 40.42L110.31 40.42L110.31 38.47Z" fill="#FFFFFF" fill-opacity="1.000000" fill-rule="evenodd"/>
	<path id="Vector" d="M110.31 43.01L119.87 43.01L119.87 44.96L110.31 44.96L110.31 43.01Z" fill="#FFFFFF" fill-opacity="1.000000" fill-rule="evenodd"/>
	<path id="Vector" d="M125.24 38.47L140.48 38.47L140.48 40.42L125.24 40.42L125.24 38.47Z" fill="#FFFFFF" fill-opacity="1.000000" fill-rule="evenodd"/>
	<path id="Vector" d="M144.87 38.47L166.55 38.47L166.55 40.42L144.87 40.42L144.87 38.47Z" fill="#FFFFFF" fill-opacity="1.000000" fill-rule="evenodd"/>
	<path id="Vector" d="M158.25 43.01L171.81 43.01L171.81 44.96L158.25 44.96L158.25 43.01Z" fill="#FFFFFF" fill-opacity="1.000000" fill-rule="evenodd"/>
	<path id="Vector" d="M125.24 43.01L152.25 43.01L152.25 44.96L125.24 44.96L125.24 43.01Z" fill="#FFFFFF" fill-opacity="1.000000" fill-rule="evenodd"/>
	<path id="Vector" d="M110.31 46.98L119.87 46.98L119.87 48.93L110.31 48.93L110.31 46.98Z" fill="#FFFFFF" fill-opacity="1.000000" fill-rule="evenodd"/>
	<path id="Vector" d="M110.31 51.53L119.87 51.53L119.87 53.48L110.31 53.48L110.31 51.53Z" fill="#FFFFFF" fill-opacity="1.000000" fill-rule="evenodd"/>
	<path id="Vector" d="M125.24 46.98L140.48 46.98L140.48 48.93L125.24 48.93L125.24 46.98Z" fill="#FFFFFF" fill-opacity="1.000000" fill-rule="evenodd"/>
	<path id="Vector" d="M144.87 46.98L183.21 46.98L183.21 48.93L144.87 48.93L144.87 46.98Z" fill="#FFFFFF" fill-opacity="1.000000" fill-rule="evenodd"/>
	<path id="Vector" d="M158.25 51.53L171.81 51.53L171.81 53.48L158.25 53.48L158.25 51.53Z" fill="#FFFFFF" fill-opacity="1.000000" fill-rule="evenodd"/>
	<path id="Vector" d="M125.24 51.53L152.25 51.53L152.25 53.48L125.24 53.48L125.24 51.53Z" fill="#FFFFFF" fill-opacity="1.000000" fill-rule="evenodd"/>
	<path id="Vector" d="M114.11 56.18L123.68 56.18L123.68 58.13L114.11 58.13L114.11 56.18Z" fill="#FFFFFF" fill-opacity="1.000000" fill-rule="evenodd"/>
	<path id="Vector" d="M114.11 60.72L123.68 60.72L123.68 62.67L114.11 62.67L114.11 60.72Z" fill="#FFFFFF" fill-opacity="1.000000" fill-rule="evenodd"/>
	<path id="Vector" d="M129.04 56.18L144.29 56.18L144.29 58.13L129.04 58.13L129.04 56.18Z" fill="#FFFFFF" fill-opacity="1.000000" fill-rule="evenodd"/>
	<path id="Vector" d="M148.67 56.18L170.36 56.18L170.36 58.13L148.67 58.13L148.67 56.18Z" fill="#FFFFFF" fill-opacity="1.000000" fill-rule="evenodd"/>
	<path id="Vector" d="M162.06 60.72L184.08 60.72L184.08 62.67L162.06 62.67L162.06 60.72Z" fill="#FFFFFF" fill-opacity="1.000000" fill-rule="evenodd"/>
	<path id="Vector" d="M129.04 60.72L156.06 60.72L156.06 62.67L129.04 62.67L129.04 60.72Z" fill="#FFFFFF" fill-opacity="1.000000" fill-rule="evenodd"/>
	<path id="Vector" d="M114.11 64.69L123.68 64.69L123.68 66.64L114.11 66.64L114.11 64.69Z" fill="#FFFFFF" fill-opacity="1.000000" fill-rule="evenodd"/>
	<path id="Vector" d="M114.11 69.24L123.68 69.24L123.68 71.19L114.11 71.19L114.11 69.24Z" fill="#FFFFFF" fill-opacity="1.000000" fill-rule="evenodd"/>
	<path id="Vector" d="M129.04 64.69L144.29 64.69L144.29 66.64L129.04 66.64L129.04 64.69Z" fill="#FFFFFF" fill-opacity="1.000000" fill-rule="evenodd"/>
	<path id="Vector" d="M148.67 64.69L170.36 64.69L170.36 66.64L148.67 66.64L148.67 64.69Z" fill="#FFFFFF" fill-opacity="1.000000" fill-rule="evenodd"/>
	<path id="Vector" d="M162.06 69.24L195.09 69.24L195.09 71.19L162.06 71.19L162.06 69.24Z" fill="#FFFFFF" fill-opacity="1.000000" fill-rule="evenodd"/>
	<path id="Vector" d="M129.04 69.24L156.06 69.24L156.06 71.19L129.04 71.19L129.04 69.24Z" fill="#FFFFFF" fill-opacity="1.000000" fill-rule="evenodd"/>
	<path id="Vector" d="M110.71 73.95L120.28 73.95L120.28 75.9L110.71 75.9L110.71 73.95Z" fill="#FFFFFF" fill-opacity="1.000000" fill-rule="evenodd"/>
	<path id="Vector" d="M110.71 78.49L120.28 78.49L120.28 80.44L110.71 80.44L110.71 78.49Z" fill="#FFFFFF" fill-opacity="1.000000" fill-rule="evenodd"/>
	<path id="Vector" d="M125.64 73.95L140.89 73.95L140.89 75.9L125.64 75.9L125.64 73.95Z" fill="#FFFFFF" fill-opacity="1.000000" fill-rule="evenodd"/>
	<path id="Vector" d="M145.27 73.95L166.96 73.95L166.96 75.9L145.27 75.9L145.27 73.95Z" fill="#FFFFFF" fill-opacity="1.000000" fill-rule="evenodd"/>
	<path id="Vector" d="M158.66 78.49L172.22 78.49L172.22 80.44L158.66 80.44L158.66 78.49Z" fill="#FFFFFF" fill-opacity="1.000000" fill-rule="evenodd"/>
	<path id="Vector" d="M125.64 78.49L152.66 78.49L152.66 80.44L125.64 80.44L125.64 78.49Z" fill="#FFFFFF" fill-opacity="1.000000" fill-rule="evenodd"/>
	<path id="Vector" d="M110.71 82.46L120.28 82.46L120.28 84.41L110.71 84.41L110.71 82.46Z" fill="#FFFFFF" fill-opacity="1.000000" fill-rule="evenodd"/>
	<path id="Vector" d="M110.71 87L120.28 87L120.28 88.95L110.71 88.95L110.71 87Z" fill="#FFFFFF" fill-opacity="1.000000" fill-rule="evenodd"/>
	<path id="Vector" d="M125.64 82.46L140.89 82.46L140.89 84.41L125.64 84.41L125.64 82.46Z" fill="#FFFFFF" fill-opacity="1.000000" fill-rule="evenodd"/>
	<path id="Vector" d="M145.27 82.46L166.96 82.46L166.96 84.41L145.27 84.41L145.27 82.46Z" fill="#FFFFFF" fill-opacity="1.000000" fill-rule="evenodd"/>
	<path id="Vector" d="M158.66 87L191.78 87L191.78 88.95L158.66 88.95L158.66 87Z" fill="#FFFFFF" fill-opacity="1.000000" fill-rule="evenodd"/>
	<path id="Vector" d="M125.64 87L132.54 87L132.54 88.95L125.64 88.95L125.64 87Z" fill="#FFFFFF" fill-opacity="1.000000" fill-rule="evenodd"/>
	<path id="Vector" d="M136.24 87L152.66 87L152.66 88.95L136.24 88.95L136.24 87Z" fill="#FFFFFF" fill-opacity="1.000000" fill-rule="evenodd"/>
	<path id="Vector" d="M66.7 80.5C66.77 80.99 65.24 80.92 65.24 80.92C65.24 80.92 65.36 81.43 65.42 82.09C65.44 82.21 65.44 82.34 65.45 82.46C65.52 83.61 65.39 84.99 64.33 85.07C62.36 85.22 60.73 84.72 60.73 84.72L60.82 88.27L54.41 88.27L53.68 77.42L64.54 74.69L65.32 78.38C65.32 78.38 66.63 80.02 66.7 80.5Z" fill="#FDCCC5" fill-opacity="1.000000" fill-rule="nonzero"/>
	<path id="Vector" d="M60.52 78.57C61.74 77.38 62.17 76.81 61.2 75.89C61.2 75.89 68.42 75.26 66.88 70.69C65.29 65.98 57.84 70.47 57.84 70.47C57.84 70.47 51.4 69.01 50.21 73.41C49.22 77.06 50.9 82 53.38 83.1C54.67 83.67 58.65 83.24 58.88 81.85C59.03 80.93 56.71 80.53 57.47 78.4C58.24 76.27 60.72 79.9 60.72 79.9L60.52 78.57Z" fill="url(#paint_linear_7_2553_0)" fill-opacity="1.000000" fill-rule="nonzero"/>
	<path id="Vector" d="M60.14 78.7C60.97 79.68 61.17 80.95 60.57 81.52C59.97 82.09 58.81 81.76 57.98 80.78C57.15 79.79 56.95 78.53 57.55 77.96C58.14 77.38 59.31 77.72 60.14 78.7Z" fill="#FDCCC5" fill-opacity="1.000000" fill-rule="nonzero"/>
	<path id="Vector" d="M60.73 84.73C60.15 84.61 59.49 84.23 58.8 83.78C59.32 84.59 59.96 85.2 60.75 85.59L60.73 84.73Z" fill="#EC8B73" fill-opacity="1.000000" fill-rule="nonzero"/>
	<path id="Vector" d="M150.53 174.24C150.53 176.25 116.83 177.89 75.26 177.89C33.69 177.89 0 176.25 0 174.24C0 172.22 33.69 170.58 75.26 170.58C116.83 170.58 150.53 172.22 150.53 174.24Z" fill="#E7ECFF" fill-opacity="1.000000" fill-rule="evenodd"/>
	<path id="Vector" d="M144.8 125.52L143.11 128.08C142.59 128.88 141.7 129.36 140.74 129.36L17.03 129.36C16.07 129.36 15.18 128.88 14.66 128.08L12.97 125.52C11.73 123.64 13.08 121.13 15.34 121.13L142.43 121.13C144.69 121.13 146.04 123.64 144.8 125.52Z" fill="url(#paint_linear_7_2557_0)" fill-opacity="1.000000" fill-rule="nonzero"/>
	<path id="Vector" d="M144.8 125.53L143.11 128.08C142.59 128.88 141.69 129.36 140.74 129.36L17.02 129.36C16.07 129.36 15.18 128.88 14.66 128.08L12.97 125.53C12.5 124.81 12.4 124.01 12.58 123.29C12.66 123.59 12.78 123.88 12.97 124.17L14.66 126.72C15.18 127.52 16.07 128 17.02 128L140.74 128C141.69 128 142.59 127.52 143.11 126.72L144.8 124.17C144.98 123.88 145.11 123.59 145.19 123.29C145.36 124.01 145.27 124.81 144.8 125.53Z" fill="#ADC8F7" fill-opacity="1.000000" fill-rule="nonzero"/>
	<path id="Vector" d="M128.89 129.36L140.65 173.86L138.23 173.86L122.79 129.36L128.89 129.36Z" fill="url(#paint_linear_7_2561_0)" fill-opacity="1.000000" fill-rule="nonzero"/>
	<path id="Vector" d="M111.03 129.36L122.79 173.86L120.37 173.86L104.93 129.36L111.03 129.36Z" fill="url(#paint_linear_7_2562_0)" fill-opacity="1.000000" fill-rule="nonzero"/>
	<path id="Vector" d="M24.99 129.36L13.23 173.86L15.65 173.86L31.09 129.36L24.99 129.36Z" fill="url(#paint_linear_7_2564_0)" fill-opacity="1.000000" fill-rule="nonzero"/>
	<path id="Vector" d="M48.95 129.36L33.51 173.86L31.09 173.86L42.85 129.36L48.95 129.36Z" fill="url(#paint_linear_7_2565_0)" fill-opacity="1.000000" fill-rule="nonzero"/>
	<path id="Vector" d="M125.46 93.49L118.99 119.25C118.64 120.62 117.25 121.74 115.86 121.74L113.67 121.74C115.05 121.74 116.45 120.62 116.79 119.25L123.26 93.49C123.6 92.12 122.76 91.01 121.38 91.01L123.58 91.01C124.96 91.01 125.8 92.12 125.46 93.49Z" fill="#78A7FF" fill-opacity="1.000000" fill-rule="nonzero"/>
	<path id="Vector" d="M123.26 93.49L116.79 119.25C116.45 120.62 115.05 121.74 113.67 121.74L77.5 121.74C76.11 121.74 75.27 120.62 75.62 119.25L82.09 93.49C82.43 92.12 83.83 91.01 85.21 91.01L121.38 91.01C122.76 91.01 123.6 92.12 123.26 93.49Z" fill="url(#paint_linear_7_2567_0)" fill-opacity="1.000000" fill-rule="nonzero"/>
	<path id="Vector" d="M77.88 120.2C77.35 120.2 77.03 119.77 77.16 119.25L83.63 93.49C83.76 92.97 84.3 92.54 84.83 92.54L121 92.54C121.52 92.54 121.85 92.97 121.71 93.49L115.25 119.25C115.12 119.77 114.58 120.2 114.05 120.2L77.88 120.2Z" fill="url(#paint_linear_7_2568_0)" fill-opacity="1.000000" fill-rule="nonzero"/>
	<path id="Vector" d="M90.4 94.74L90.15 95.58L86.03 95.58L86.28 94.74L90.4 94.74Z" fill="#FFFFFF" fill-opacity="1.000000" fill-rule="nonzero"/>
	<path id="Vector" d="M89.83 96.71L89.58 97.56L85.46 97.56L85.71 96.71L89.83 96.71Z" fill="#FFFFFF" fill-opacity="1.000000" fill-rule="nonzero"/>
	<path id="Vector" d="M99.28 94.74L92.71 94.74L92.47 95.58L99.04 95.58L99.28 94.74Z" fill="#FFFFFF" fill-opacity="1.000000" fill-rule="nonzero"/>
	<path id="Vector" d="M110.52 94.74L101.17 94.74L100.93 95.58L110.28 95.58L110.52 94.74Z" fill="#FFFFFF" fill-opacity="1.000000" fill-rule="nonzero"/>
	<path id="Vector" d="M106.37 96.71L106.13 97.56L111.97 97.56L112.22 96.71L106.37 96.71Z" fill="#FFFFFF" fill-opacity="1.000000" fill-rule="nonzero"/>
	<path id="Vector" d="M103.79 96.71L92.14 96.71L91.9 97.56L103.54 97.56L103.79 96.71Z" fill="#FFFFFF" fill-opacity="1.000000" fill-rule="nonzero"/>
	<path id="Vector" d="M89.33 98.43L89.09 99.28L84.96 99.28L85.21 98.43L89.33 98.43Z" fill="#FFFFFF" fill-opacity="1.000000" fill-rule="nonzero"/>
	<path id="Vector" d="M88.76 100.41L88.52 101.25L84.39 101.25L84.64 100.41L88.76 100.41Z" fill="#FFFFFF" fill-opacity="1.000000" fill-rule="nonzero"/>
	<path id="Vector" d="M98.22 98.43L91.64 98.43L91.4 99.28L97.97 99.28L98.22 98.43Z" fill="#FFFFFF" fill-opacity="1.000000" fill-rule="nonzero"/>
	<path id="Vector" d="M116.64 98.43L100.11 98.43L99.86 99.28L116.39 99.28L116.64 98.43Z" fill="#FFFFFF" fill-opacity="1.000000" fill-rule="nonzero"/>
	<path id="Vector" d="M105.31 100.41L105.06 101.25L110.91 101.25L111.15 100.41L105.31 100.41Z" fill="#FFFFFF" fill-opacity="1.000000" fill-rule="nonzero"/>
	<path id="Vector" d="M102.72 100.41L91.07 100.41L90.83 101.25L102.47 101.25L102.72 100.41Z" fill="#FFFFFF" fill-opacity="1.000000" fill-rule="nonzero"/>
	<path id="Vector" d="M89.82 102.43L89.57 103.27L85.45 103.27L85.7 102.43L89.82 102.43Z" fill="#FFFFFF" fill-opacity="1.000000" fill-rule="nonzero"/>
	<path id="Vector" d="M89.25 104.4L89.01 105.25L84.88 105.25L85.13 104.4L89.25 104.4Z" fill="#FFFFFF" fill-opacity="1.000000" fill-rule="nonzero"/>
	<path id="Vector" d="M98.71 102.43L92.13 102.43L91.89 103.28L98.46 103.28L98.71 102.43Z" fill="#FFFFFF" fill-opacity="1.000000" fill-rule="nonzero"/>
	<path id="Vector" d="M109.94 102.43L100.59 102.43L100.35 103.28L109.7 103.28L109.94 102.43Z" fill="#FFFFFF" fill-opacity="1.000000" fill-rule="nonzero"/>
	<path id="Vector" d="M105.79 104.4L105.55 105.25L115.04 105.25L115.29 104.4L105.79 104.4Z" fill="#FFFFFF" fill-opacity="1.000000" fill-rule="nonzero"/>
	<path id="Vector" d="M103.21 104.4L91.56 104.4L91.32 105.25L102.96 105.25L103.21 104.4Z" fill="#FFFFFF" fill-opacity="1.000000" fill-rule="nonzero"/>
	<path id="Vector" d="M88.75 106.12L88.51 106.97L84.39 106.97L84.63 106.12L88.75 106.12Z" fill="#FFFFFF" fill-opacity="1.000000" fill-rule="nonzero"/>
	<path id="Vector" d="M88.18 108.1L87.94 108.94L83.82 108.94L84.06 108.1L88.18 108.1Z" fill="#FFFFFF" fill-opacity="1.000000" fill-rule="nonzero"/>
	<path id="Vector" d="M97.64 106.12L91.07 106.12L90.82 106.97L97.39 106.97L97.64 106.12Z" fill="#FFFFFF" fill-opacity="1.000000" fill-rule="nonzero"/>
	<path id="Vector" d="M108.88 106.12L99.53 106.12L99.28 106.97L108.63 106.97L108.88 106.12Z" fill="#FFFFFF" fill-opacity="1.000000" fill-rule="nonzero"/>
	<path id="Vector" d="M104.73 108.1L104.48 108.94L115.63 108.94L115.87 108.1L104.73 108.1Z" fill="#FFFFFF" fill-opacity="1.000000" fill-rule="nonzero"/>
	<path id="Vector" d="M102.14 108.1L90.5 108.1L90.25 108.94L101.9 108.94L102.14 108.1Z" fill="#FFFFFF" fill-opacity="1.000000" fill-rule="nonzero"/>
	<path id="Vector" d="M86.13 110.14L85.88 110.99L81.76 110.99L82 110.14L86.13 110.14Z" fill="#FFFFFF" fill-opacity="1.000000" fill-rule="nonzero"/>
	<path id="Vector" d="M85.56 112.12L85.31 112.96L81.19 112.96L81.44 112.12L85.56 112.12Z" fill="#FFFFFF" fill-opacity="1.000000" fill-rule="nonzero"/>
	<path id="Vector" d="M95.01 110.14L88.44 110.14L88.2 110.99L94.77 110.99L95.01 110.14Z" fill="#FFFFFF" fill-opacity="1.000000" fill-rule="nonzero"/>
	<path id="Vector" d="M106.25 110.14L96.9 110.14L96.66 110.99L106.01 110.99L106.25 110.14Z" fill="#FFFFFF" fill-opacity="1.000000" fill-rule="nonzero"/>
	<path id="Vector" d="M102.1 112.12L101.86 112.96L107.7 112.96L107.95 112.12L102.1 112.12Z" fill="#FFFFFF" fill-opacity="1.000000" fill-rule="nonzero"/>
	<path id="Vector" d="M99.51 112.12L87.87 112.12L87.63 112.96L99.27 112.96L99.51 112.12Z" fill="#FFFFFF" fill-opacity="1.000000" fill-rule="nonzero"/>
	<path id="Vector" d="M85.06 113.84L84.82 114.69L80.69 114.69L80.94 113.84L85.06 113.84Z" fill="#FFFFFF" fill-opacity="1.000000" fill-rule="nonzero"/>
	<path id="Vector" d="M84.49 115.81L84.25 116.66L80.12 116.66L80.37 115.81L84.49 115.81Z" fill="#FFFFFF" fill-opacity="1.000000" fill-rule="nonzero"/>
	<path id="Vector" d="M93.95 113.84L87.37 113.84L87.13 114.69L93.7 114.69L93.95 113.84Z" fill="#FFFFFF" fill-opacity="1.000000" fill-rule="nonzero"/>
	<path id="Vector" d="M105.18 113.84L95.84 113.84L95.59 114.69L104.94 114.69L105.18 113.84Z" fill="#FFFFFF" fill-opacity="1.000000" fill-rule="nonzero"/>
	<path id="Vector" d="M101.03 115.81L100.79 116.66L115.07 116.66L115.31 115.81L101.03 115.81Z" fill="#FFFFFF" fill-opacity="1.000000" fill-rule="nonzero"/>
	<path id="Vector" d="M89.78 115.81L86.8 115.81L86.56 116.66L89.53 116.66L89.78 115.81Z" fill="#FFFFFF" fill-opacity="1.000000" fill-rule="nonzero"/>
	<path id="Vector" d="M91.37 115.81L91.13 116.66L98.2 116.66L98.45 115.81L91.37 115.81Z" fill="#FFFFFF" fill-opacity="1.000000" fill-rule="nonzero"/>
	<path id="Vector" d="M102.3 121.74L102.3 123.95L75.8 123.95C74.58 123.95 73.59 122.96 73.59 121.74L102.3 121.74Z" fill="url(#paint_linear_7_2613_0)" fill-opacity="1.000000" fill-rule="nonzero"/>
	<path id="Vector" d="M117.88 121.74C117.88 122.96 116.89 123.95 115.67 123.95L97.31 123.95C96.09 123.95 95.1 122.96 95.1 121.74L117.88 121.74Z" fill="url(#paint_linear_7_2614_0)" fill-opacity="1.000000" fill-rule="nonzero"/>
	<path id="Vector" d="M104.93 184.85C104.93 186.21 90.07 187.31 71.75 187.31C53.43 187.31 38.57 186.21 38.57 184.85C38.57 183.49 53.43 182.38 71.75 182.38C90.07 182.38 104.93 183.49 104.93 184.85Z" fill="#E7ECFF" fill-opacity="1.000000" fill-rule="nonzero"/>
	<path id="Vector" d="M60.56 175.43L65.73 175.43L65.73 180.78L60.56 180.78L60.56 175.43Z" fill="#FDCCC5" fill-opacity="1.000000" fill-rule="evenodd"/>
	<path id="Vector" d="M75.57 182.83C75.57 182.84 75.57 182.84 75.57 182.84L75.57 182.85C75.6 183.41 75.28 183.93 74.76 184.15C73.76 184.59 71.84 185.15 69.31 184.66C65.53 183.91 61.99 184.35 60.59 184.48C60.1 184.53 59.83 183.83 59.75 182.86C59.75 182.82 59.75 182.78 59.75 182.74C59.65 181.18 60.05 179.06 60.82 178.35C60.87 178.3 60.92 178.26 60.98 178.23C61.04 178.18 61.11 178.15 61.18 178.13C62.22 177.81 64.21 180.41 65.45 179.03C65.59 178.89 65.54 178.6 65.48 178.26C65.45 178.11 65.42 177.94 65.4 177.78C65.37 177.62 65.42 177.45 65.49 177.29C65.67 176.89 66.2 176.79 66.53 177.09C66.8 177.32 67.17 177.65 67.68 178.06C67.77 178.13 67.86 178.22 67.95 178.31C68.01 178.37 68.08 178.43 68.14 178.49C68.38 178.71 68.61 178.91 68.84 179.08C68.94 179.16 69.04 179.23 69.14 179.3C69.39 179.48 69.64 179.63 69.89 179.77C69.99 179.83 70.1 179.88 70.21 179.94C72.37 181 74.27 180.75 74.95 181.37C75.37 181.76 75.52 182.32 75.56 182.81C75.57 182.82 75.57 182.83 75.57 182.83Z" fill="url(#paint_linear_7_2617_0)" fill-opacity="1.000000" fill-rule="nonzero"/>
	<path id="Vector" d="M60.35 183.22C60.35 183.22 59.66 181.52 60.7 179.93C60.7 179.93 62.08 181.45 63.43 181.34C64.78 181.22 66.22 179.54 66.22 179.54C66.22 179.54 66.24 180.12 65.67 180.98C65.67 180.98 66.47 180.95 67.13 180.13C67.13 180.13 67.15 180.85 66.43 181.52C66.43 181.52 67.41 181.42 68.17 180.83C68.17 180.83 67.9 181.58 67.26 182C67.26 182 68.35 183.04 69.02 183.04L67.22 183.93L60.84 184.1L60.35 183.22Z" fill="#F9C55F" fill-opacity="1.000000" fill-rule="nonzero"/>
	<path id="Vector" d="M74.76 184.15C73.76 184.58 71.84 185.15 69.31 184.66C65.53 183.91 62 184.34 60.59 184.48C60.1 184.53 59.83 183.82 59.75 182.86C59.75 182.82 59.75 182.78 59.75 182.74C62.01 181.75 65.49 181.92 68.22 183.16C71.22 184.52 74.63 183.77 75.56 182.83C75.56 182.83 75.56 182.83 75.57 182.84C75.57 182.84 75.57 182.84 75.57 182.84C75.57 182.84 75.57 182.85 75.57 182.85C75.6 183.41 75.28 183.93 74.76 184.15Z" fill="#070159" fill-opacity="1.000000" fill-rule="nonzero"/>
	<path id="Vector" d="M67.95 178.31C67.74 178.64 67.34 179.08 66.69 179.36C66.63 179.39 66.57 179.38 66.53 179.36C66.49 179.34 66.47 179.31 66.45 179.27C66.41 179.18 66.45 179.07 66.54 179.03C67.15 178.77 67.5 178.34 67.68 178.06C67.76 178.14 67.86 178.22 67.95 178.31Z" fill="#FFFFFF" fill-opacity="1.000000" fill-rule="nonzero"/>
	<path id="Vector" d="M69.14 179.3C68.92 179.61 68.48 180.08 67.75 180.33C67.7 180.35 67.65 180.34 67.6 180.32C67.56 180.29 67.53 180.26 67.52 180.22C67.49 180.12 67.54 180.02 67.63 179.99C68.27 179.77 68.66 179.35 68.85 179.09C68.94 179.16 69.04 179.23 69.14 179.3Z" fill="#FFFFFF" fill-opacity="1.000000" fill-rule="nonzero"/>
	<path id="Vector" d="M70.21 179.94C70.03 180.26 69.62 180.82 68.86 181.15C68.81 181.17 68.75 181.17 68.7 181.14C68.66 181.12 68.64 181.09 68.62 181.05C68.58 180.96 68.62 180.85 68.72 180.81C69.38 180.53 69.73 180.04 69.89 179.77C70 179.83 70.1 179.88 70.21 179.94Z" fill="#FFFFFF" fill-opacity="1.000000" fill-rule="nonzero"/>
	<path id="Vector" d="M65.58 178.82C65.55 179.14 65.4 179.46 65.13 179.64C64.94 179.78 64.71 179.84 64.48 179.85C64.25 179.86 64.02 179.82 63.8 179.76C63.52 179.7 63.24 179.62 62.97 179.51C62.49 179.32 62.03 179.07 61.61 178.76C61.4 178.6 61.2 178.44 61.01 178.26C61 178.25 60.99 178.24 60.98 178.23C61.04 178.18 61.11 178.15 61.18 178.13C62.22 177.81 64.21 180.41 65.45 179.03C65.59 178.89 65.54 178.6 65.48 178.26C65.57 178.43 65.6 178.63 65.58 178.82Z" fill="#070159" fill-opacity="1.000000" fill-rule="nonzero"/>
	<path id="Vector" d="M71.05 136.93C69.65 133.95 63.38 131.4 57.06 129.53L55.47 141.05C57.16 141.05 59.78 143.88 59.78 143.88L59.3 176.52C59.3 177.29 66.3 177.29 66.3 176.52C66.3 176.52 74.08 143.37 71.05 136.93Z" fill="url(#paint_linear_7_2629_0)" fill-opacity="1.000000" fill-rule="nonzero"/>
	<path id="Vector" d="M89.31 175.43C88.58 177.42 88.79 179.14 89.31 180.78L84.55 180.78L84.55 175.43L89.31 175.43Z" fill="#FDCCC5" fill-opacity="1.000000" fill-rule="nonzero"/>
	<path id="Vector" d="M65.74 127.36C65.74 127.36 91.23 130.46 94.26 136.89C97.28 143.33 90.08 176.59 90.08 176.59C90.08 177.59 83.68 177.52 83.68 176.52L84.17 143.2C84.17 143.2 59.1 145.32 53.29 142.47C46.68 139.25 51.09 125.66 51.09 125.66L65.74 127.36Z" fill="url(#paint_linear_7_2631_0)" fill-opacity="1.000000" fill-rule="nonzero"/>
	<path id="Vector" d="M98.87 183.78C98.87 183.79 98.87 183.79 98.87 183.79L98.87 183.8C98.9 184.35 98.58 184.87 98.06 185.1C97.06 185.53 95.14 186.1 92.61 185.61C88.83 184.86 85.3 185.29 83.9 185.43C83.4 185.48 83.13 184.77 83.06 183.81C83.05 183.77 83.05 183.73 83.05 183.68C82.95 182.13 83.35 180.01 84.12 179.29C84.17 179.25 84.22 179.21 84.28 179.17C84.34 179.13 84.41 179.1 84.48 179.08C85.52 178.76 87.51 181.36 88.75 179.98C88.89 179.83 88.85 179.55 88.78 179.21C88.75 179.06 88.72 178.89 88.7 178.73C88.68 178.56 88.72 178.4 88.79 178.24C88.97 177.83 89.5 177.74 89.83 178.03C90.1 178.27 90.47 178.59 90.98 179.01C91.07 179.08 91.16 179.17 91.25 179.26C91.31 179.31 91.38 179.37 91.44 179.43C91.68 179.66 91.91 179.85 92.15 180.03C92.24 180.11 92.34 180.18 92.44 180.25C92.69 180.42 92.94 180.58 93.19 180.72C93.3 180.78 93.4 180.83 93.51 180.89C95.67 181.95 97.57 181.69 98.25 182.31C98.67 182.7 98.82 183.27 98.86 183.76C98.87 183.76 98.87 183.78 98.87 183.78Z" fill="url(#paint_linear_7_2633_0)" fill-opacity="1.000000" fill-rule="nonzero"/>
	<path id="Vector" d="M83.65 184.17C83.65 184.17 82.96 182.47 84.01 180.88C84.01 180.88 85.38 182.4 86.73 182.28C88.08 182.17 89.52 180.49 89.52 180.49C89.52 180.49 89.54 181.07 88.97 181.93C88.97 181.93 89.77 181.9 90.43 181.07C90.43 181.07 90.46 181.8 89.73 182.47C89.73 182.47 90.71 182.37 91.48 181.78C91.48 181.78 91.2 182.52 90.56 182.95C90.56 182.95 91.65 183.99 92.32 183.99L90.52 184.88L84.14 185.05L83.65 184.17Z" fill="#F9C55F" fill-opacity="1.000000" fill-rule="nonzero"/>
	<path id="Vector" d="M98.07 185.1C97.07 185.53 95.14 186.1 92.61 185.61C88.83 184.86 85.3 185.29 83.89 185.43C83.4 185.48 83.13 184.77 83.06 183.81C83.05 183.77 83.05 183.73 83.05 183.68C85.31 182.7 88.79 182.87 91.53 184.11C94.52 185.46 97.93 184.72 98.86 183.78C98.86 183.78 98.86 183.78 98.87 183.78C98.87 183.79 98.87 183.79 98.87 183.79C98.87 183.79 98.87 183.79 98.87 183.8C98.9 184.35 98.58 184.87 98.07 185.1Z" fill="#070159" fill-opacity="1.000000" fill-rule="nonzero"/>
	<path id="Vector" d="M91.25 179.26C91.04 179.58 90.64 180.03 89.99 180.31C89.94 180.34 89.87 180.33 89.83 180.3C89.79 180.28 89.77 180.25 89.75 180.22C89.71 180.12 89.75 180.02 89.84 179.98C90.45 179.72 90.8 179.29 90.98 179.01C91.07 179.09 91.16 179.17 91.25 179.26Z" fill="#FFFFFF" fill-opacity="1.000000" fill-rule="nonzero"/>
	<path id="Vector" d="M92.44 180.25C92.22 180.56 91.78 181.03 91.05 181.28C91 181.3 90.95 181.29 90.9 181.26C90.87 181.24 90.83 181.21 90.82 181.16C90.79 181.07 90.84 180.96 90.93 180.93C91.57 180.71 91.96 180.3 92.15 180.03C92.24 180.11 92.34 180.18 92.44 180.25Z" fill="#FFFFFF" fill-opacity="1.000000" fill-rule="nonzero"/>
	<path id="Vector" d="M93.51 180.88C93.33 181.2 92.93 181.76 92.16 182.09C92.11 182.12 92.05 182.11 92 182.09C91.97 182.07 91.94 182.04 91.92 182C91.88 181.91 91.93 181.8 92.02 181.76C92.68 181.48 93.04 180.99 93.19 180.72C93.3 180.77 93.4 180.83 93.51 180.88Z" fill="#FFFFFF" fill-opacity="1.000000" fill-rule="nonzero"/>
	<path id="Vector" d="M88.88 179.77C88.85 180.09 88.7 180.41 88.43 180.59C88.25 180.72 88.01 180.78 87.78 180.79C87.55 180.8 87.32 180.77 87.1 180.71C86.82 180.65 86.54 180.56 86.27 180.46C85.79 180.27 85.33 180.01 84.91 179.71C84.7 179.55 84.5 179.39 84.32 179.21C84.3 179.19 84.29 179.18 84.28 179.17C84.34 179.13 84.41 179.1 84.48 179.08C85.52 178.76 87.51 181.36 88.75 179.98C88.89 179.83 88.85 179.55 88.78 179.21C88.87 179.38 88.9 179.58 88.88 179.77Z" fill="#070159" fill-opacity="1.000000" fill-rule="nonzero"/>
	<path id="Vector" d="M69.65 92.93C70.95 114.13 69.7 127.75 69.7 127.75C69.7 130.56 43.09 135.3 43.09 132.49C43.09 132.49 39.2 98.21 45.8 91.46C49.72 87.45 69.31 87.42 69.65 92.93Z" fill="url(#paint_linear_7_2645_0)" fill-opacity="1.000000" fill-rule="nonzero"/>
	<path id="Vector" d="M61.9 88.8C61.85 90.69 59.92 89.76 57.46 89.69C55.01 89.62 52.96 90.43 53.02 88.54C53.07 86.65 55 86.16 57.45 86.24C59.91 86.31 61.96 86.91 61.9 88.8Z" fill="url(#paint_linear_7_2646_0)" fill-opacity="1.000000" fill-rule="nonzero"/>
	<path id="Vector" d="M103.1 116.23C101.72 114.63 98.8 115.73 98.8 115.73C98.8 115.73 99.55 113.73 98.75 113.05C97.94 112.37 98.06 114.19 97.47 115.01C97.01 115.65 95.67 115.69 95.09 115.67L95.09 118.54C99.92 121.25 100.02 117.61 101.23 118.19C102.49 118.79 102.87 119.73 103.69 119.34C104.38 119 103.93 117.19 103.1 116.23Z" fill="#FDCCC5" fill-opacity="1.000000" fill-rule="nonzero"/>
	<path id="Vector" d="M63.44 93.38C60.78 100.26 69.32 115.55 75.97 118.74C80.47 120.91 95.95 119.53 95.95 119.53C96.69 119.53 96.69 115.29 95.95 115.29C95.95 115.29 82.8 114.56 80.77 112.03C76.57 106.82 74.02 93.04 68.28 90.81C66.78 90.23 64.26 91.29 63.44 93.38Z" fill="url(#paint_linear_7_2648_0)" fill-opacity="1.000000" fill-rule="nonzero"/>
	<path id="Vector" d="M32.44 104.02C34.27 99.25 49.68 99.96 53.45 103.41C59.42 108.88 53.85 132.1 59.69 138.48C63 142.1 74.13 140.87 78.95 141.79C80.97 142.18 81.25 146.68 81.28 148.73C81.29 149.3 80.87 149.79 80.3 149.86C74.45 150.65 43.84 152.94 36.73 145.88C29.19 138.39 29.86 110.76 32.44 104.02Z" fill="url(#paint_linear_7_2649_0)" fill-opacity="1.000000" fill-rule="nonzero"/>
	<path id="Vector" d="M42.12 100.64C45.52 101.01 48.61 101.92 50.04 103.22C56 108.68 50.45 131.91 56.27 138.29C58.29 140.5 63.21 140.91 67.83 141.1C64.38 140.78 61.19 140.15 59.68 138.48C53.86 132.1 59.42 108.87 53.44 103.41C51.55 101.67 46.69 100.64 42.12 100.64Z" fill="url(#paint_linear_7_2650_0)" fill-opacity="1.000000" fill-rule="nonzero"/>
	<path id="Vector" d="M69.23 150.47L69.23 152.16C69.23 153 68.55 153.69 67.71 153.69L52.58 153.69C51.74 153.69 51.06 153 51.06 152.16L51.06 150.35L69.23 150.47Z" fill="#070159" fill-opacity="1.000000" fill-rule="nonzero"/>
	<path id="Vector" d="M58.39 153.69L61.9 153.69L61.9 178.46L58.39 178.46L58.39 153.69Z" fill="url(#paint_linear_7_2652_0)" fill-opacity="1.000000" fill-rule="evenodd"/>
	<path id="Vector" d="M65.77 179.81L65.77 180.88L54.52 180.88L54.52 179.81C54.52 179.06 55.13 178.45 55.88 178.45L64.41 178.45C65.16 178.45 65.77 179.06 65.77 179.81Z" fill="url(#paint_linear_7_2653_0)" fill-opacity="1.000000" fill-rule="nonzero"/>
	<path id="Vector" d="M72.32 185.11L72.32 183.74C72.32 182.16 71.04 180.88 69.47 180.88L50.82 180.88C49.24 180.88 47.96 182.16 47.96 183.74L47.96 185.11L72.32 185.11Z" fill="url(#paint_linear_7_2654_0)" fill-opacity="1.000000" fill-rule="nonzero"/>
	<path id="Vector" d="M64.64 77.87C64.64 78.06 64.48 78.21 64.29 78.21C64.1 78.21 63.95 78.06 63.95 77.87C63.95 77.68 64.1 77.53 64.29 77.53C64.48 77.53 64.64 77.68 64.64 77.87Z" fill="#070159" fill-opacity="1.000000" fill-rule="nonzero"/>
	<path id="Vector" d="M64.51 76.43C64.53 76.51 64.47 76.57 64.41 76.62C64.11 76.9 63.81 77.18 63.5 77.46C63.42 77.54 63.33 77.62 63.22 77.66C63.1 77.7 62.97 77.67 62.9 77.57C62.84 77.48 62.87 77.35 62.94 77.26C62.97 77.22 63.73 76.48 64.2 76.34C64.26 76.32 64.32 76.3 64.38 76.31C64.44 76.32 64.5 76.37 64.51 76.43Z" fill="url(#paint_linear_7_2656_0)" fill-opacity="1.000000" fill-rule="nonzero"/>
	<path id="Vector" d="M65.45 82.46C65.2 82.57 64.92 82.59 64.65 82.54C64.42 82.49 64.19 82.38 64.01 82.2C63.93 82.14 63.93 82.03 63.99 81.96C64.06 81.88 64.17 81.88 64.24 81.94C64.57 82.25 65.05 82.29 65.42 82.09C65.44 82.21 65.44 82.34 65.45 82.46Z" fill="#EC8B73" fill-opacity="1.000000" fill-rule="nonzero"/>
	<path id="Vector" d="M127.58 121.08C127.58 121.93 128.27 122.62 129.12 122.62L136.24 122.62L136.24 119.55L129.12 119.55C128.27 119.55 127.58 120.24 127.58 121.08Z" fill="url(#paint_linear_7_2658_0)" fill-opacity="1.000000" fill-rule="nonzero"/>
	<path id="Vector" d="M128.24 121.08C128.24 121.66 128.7 122.13 129.28 122.13L136.24 122.13L136.24 120.04L129.28 120.04C128.7 120.04 128.24 120.51 128.24 121.08Z" fill="url(#paint_linear_7_2659_0)" fill-opacity="1.000000" fill-rule="nonzero"/>
	<path id="Vector" d="M120.62 121.08C120.62 121.93 121.31 122.62 122.16 122.62L129.12 122.62C128.27 122.62 127.58 121.93 127.58 121.08C127.58 120.24 128.27 119.55 129.12 119.55L122.16 119.55C121.31 119.55 120.62 120.24 120.62 121.08Z" fill="url(#paint_linear_7_2660_0)" fill-opacity="1.000000" fill-rule="nonzero"/>
	<path id="Vector" d="M129.28 124.16C129.28 125.01 128.59 125.7 127.74 125.7L120.62 125.7L120.62 122.62L127.74 122.62C128.59 122.62 129.28 123.31 129.28 124.16Z" fill="url(#paint_linear_7_2661_0)" fill-opacity="1.000000" fill-rule="nonzero"/>
	<path id="Vector" d="M128.62 124.16C128.62 124.74 128.15 125.2 127.58 125.2L120.62 125.2L120.62 123.12L127.58 123.12C128.15 123.12 128.62 123.59 128.62 124.16Z" fill="url(#paint_linear_7_2662_0)" fill-opacity="1.000000" fill-rule="nonzero"/>
	<path id="Vector" d="M136.24 124.16C136.24 125.01 135.55 125.7 134.7 125.7L127.74 125.7C128.59 125.7 129.28 125.01 129.28 124.16C129.28 123.31 128.59 122.62 127.74 122.62L134.7 122.62C135.55 122.62 136.24 123.31 136.24 124.16Z" fill="url(#paint_linear_7_2663_0)" fill-opacity="1.000000" fill-rule="nonzero"/>
	<path id="Vector" d="M138.93 161.26C138.86 159.92 139.45 157.7 140.02 156.49C140.59 155.27 141.41 154.18 142.36 153.22C143 152.57 143.71 151.96 144.54 151.57C145.37 151.17 146.33 150.99 147.22 151.22C148.11 151.44 148.92 152.11 149.18 152.99C149.34 153.54 149.29 154.13 149.12 154.68C148.73 155.98 147.72 157.02 146.56 157.72C145.39 158.43 144.09 158.84 142.79 159.24C141.49 159.64 140.09 160.55 138.93 161.26Z" fill="url(#paint_linear_7_2665_0)" fill-opacity="1.000000" fill-rule="nonzero"/>
	<path id="Vector" d="M136.66 162.55C136.74 161.2 136.15 158.99 135.58 157.78C135 156.56 134.18 155.47 133.24 154.51C132.6 153.86 131.89 153.25 131.06 152.86C130.23 152.46 129.27 152.28 128.38 152.51C127.48 152.73 126.68 153.39 126.42 154.28C126.26 154.83 126.31 155.42 126.48 155.97C126.87 157.27 127.88 158.31 129.04 159.01C130.2 159.72 131.51 160.13 132.81 160.53C134.1 160.93 135.5 161.84 136.66 162.55Z" fill="url(#paint_linear_7_2666_0)" fill-opacity="1.000000" fill-rule="nonzero"/>
	<path id="Vector" d="M137.09 159.18C137.09 159.18 125.47 141.86 136.6 139.73C147.42 137.65 137.09 159.18 137.09 159.18Z" fill="url(#paint_linear_7_2667_0)" fill-opacity="1.000000" fill-rule="nonzero"/>
	<path id="Vector" d="M137.91 164.76C137.85 164.76 137.81 164.72 137.81 164.66C137.8 159.63 145.53 153.89 145.85 153.65C145.9 153.62 145.96 153.63 146 153.67C146.03 153.72 146.02 153.78 145.98 153.82C145.9 153.87 138 159.73 138.01 164.66C138.01 164.72 137.96 164.76 137.91 164.76Z" fill="#ADC8F7" fill-opacity="1.000000" fill-rule="nonzero"/>
	<path id="Vector" d="M137.22 164.64C137.17 164.64 137.12 164.59 137.12 164.54C136.92 160.24 128.69 154.79 128.61 154.74C128.56 154.7 128.55 154.64 128.58 154.59C128.61 154.55 128.67 154.53 128.72 154.56C129.06 154.79 137.12 160.12 137.32 164.53C137.33 164.59 137.28 164.63 137.23 164.64C137.22 164.64 137.22 164.64 137.22 164.64Z" fill="#ADC8F7" fill-opacity="1.000000" fill-rule="nonzero"/>
	<path id="Vector" d="M138.05 164.76C138 164.76 137.96 164.73 137.95 164.69C135.96 157.05 136.69 143.49 136.7 143.36C136.71 143.3 136.75 143.25 136.81 143.26C136.87 143.26 136.91 143.31 136.91 143.37C136.9 143.5 136.17 157.03 138.14 164.63C138.16 164.69 138.13 164.75 138.07 164.76C138.06 164.76 138.05 164.76 138.05 164.76Z" fill="#ADC8F7" fill-opacity="1.000000" fill-rule="nonzero"/>
	<path id="Vector" d="M143.05 163.83C143.39 163.83 143.66 164.1 143.66 164.44L143.66 168.95C143.66 171.48 142.1 173.63 139.91 174.54C139.82 174.57 139.74 174.59 139.65 174.59L135.51 174.59C135.42 174.59 135.33 174.57 135.25 174.54C133.05 173.63 131.5 171.48 131.5 168.95L131.5 164.44C131.5 164.1 131.77 163.83 132.11 163.83L143.05 163.83Z" fill="url(#paint_linear_7_2671_0)" fill-opacity="1.000000" fill-rule="nonzero"/>
	<path id="Vector" d="M143.66 166.17L143.66 164.44C143.66 164.1 143.39 163.83 143.05 163.83L132.11 163.83C131.77 163.83 131.5 164.1 131.5 164.44L131.5 166.17L143.66 166.17Z" fill="#78A7FF" fill-opacity="1.000000" fill-rule="nonzero"/>
	<path id="Vector" d="M139.79 169.66C139.79 170.88 138.8 171.87 137.58 171.87C136.36 171.87 135.37 170.88 135.37 169.66C135.37 168.44 136.36 167.45 137.58 167.45C138.8 167.45 139.79 168.44 139.79 169.66Z" fill="#78A7FF" fill-opacity="1.000000" fill-rule="nonzero"/>
	<path id="Vector" d="M117.23 6.87L116.82 6.87L116.82 4.31C116.82 2.15 115.07 0.4 112.91 0.4L110.26 0.4L110.26 0L112.91 0C115.29 0 117.23 1.93 117.23 4.31L117.23 6.87Z" fill="#B7BCFF" fill-opacity="1.000000" fill-rule="nonzero"/>
	<path id="Vector" d="M112.86 41.98L110.31 41.98L110.31 41.58L112.86 41.58C115.02 41.58 116.78 39.82 116.78 37.67L116.78 35.02L117.18 35.02L117.18 37.67C117.18 40.05 115.24 41.98 112.86 41.98Z" fill="#B7BCFF" fill-opacity="1.000000" fill-rule="nonzero"/>
	<path id="Vector" d="M65.65 6.87L65.25 6.87L65.25 4.31C65.25 1.93 67.19 0 69.57 0L72.22 0L72.22 0.4L69.57 0.4C67.41 0.4 65.65 2.15 65.65 4.31L65.65 6.87Z" fill="#B7BCFF" fill-opacity="1.000000" fill-rule="nonzero"/>
	<path id="Vector" d="M72.17 41.98L69.61 41.98C67.23 41.98 65.3 40.05 65.3 37.67L65.3 35.02L65.7 35.02L65.7 37.67C65.7 39.82 67.46 41.58 69.61 41.58L72.17 41.58L72.17 41.98Z" fill="#B7BCFF" fill-opacity="1.000000" fill-rule="nonzero"/>
	<path id="Vector" d="M114.92 4.31L114.92 37.67C114.92 38.78 114.02 39.68 112.91 39.68L69.57 39.68C68.45 39.68 67.55 38.78 67.55 37.67L67.55 4.31C67.55 3.2 68.45 2.3 69.57 2.3L112.91 2.3C114.02 2.3 114.92 3.2 114.92 4.31Z" fill="url(#paint_linear_7_2684_0)" fill-opacity="1.000000" fill-rule="nonzero"/>
	<path id="Vector" d="M87.86 12.23L87.86 20.68C87.86 21.1 87.52 21.44 87.1 21.44L72.12 21.44C71.7 21.44 71.36 21.1 71.36 20.68L71.36 12.23C71.36 11.81 71.7 11.47 72.12 11.47L87.1 11.47C87.52 11.47 87.86 11.81 87.86 12.23Z" fill="#ADC8F7" fill-opacity="1.000000" fill-rule="nonzero"/>
	<path id="Vector" d="M114.93 4.31L114.93 9.13L81.8 9.13C81.45 9.13 81.12 8.95 80.93 8.66L79.64 6.77C79.44 6.48 79.11 6.3 78.76 6.3L74.23 6.3C73.88 6.3 73.55 6.48 73.35 6.77L72.06 8.66C71.86 8.95 71.54 9.13 71.19 9.13L67.55 9.13L67.55 4.31C67.55 3.2 68.46 2.29 69.57 2.29L112.91 2.29C114.02 2.29 114.93 3.2 114.93 4.31Z" fill="url(#paint_linear_7_2686_0)" fill-opacity="1.000000" fill-rule="nonzero"/>
	<path id="Vector" d="M112.73 5.77C112.73 6.59 112.06 7.25 111.24 7.25L87.58 7.25C86.76 7.25 86.1 6.59 86.1 5.77C86.1 4.94 86.76 4.28 87.58 4.28L111.24 4.28C112.06 4.28 112.73 4.94 112.73 5.77Z" fill="url(#paint_linear_7_2687_0)" fill-opacity="1.000000" fill-rule="nonzero"/>
	<path id="Vector" d="M111.24 4.28L109.79 4.28L109.79 7.25L111.24 7.25C112.06 7.25 112.73 6.59 112.73 5.77C112.73 4.94 112.06 4.28 111.24 4.28Z" fill="#3D79F3" fill-opacity="1.000000" fill-rule="nonzero"/>
	<path id="Vector" d="M111.02 6.23C110.87 6.23 110.73 6.17 110.62 6.06C110.51 5.95 110.45 5.8 110.45 5.65C110.45 5.49 110.51 5.35 110.62 5.24C110.83 5.02 111.22 5.02 111.43 5.24C111.54 5.35 111.6 5.49 111.6 5.65C111.6 5.8 111.54 5.95 111.43 6.06C111.32 6.17 111.18 6.23 111.02 6.23ZM111.02 5.27C110.92 5.27 110.83 5.31 110.76 5.38C110.69 5.45 110.65 5.55 110.65 5.65C110.65 5.75 110.69 5.84 110.76 5.91C110.9 6.06 111.15 6.06 111.29 5.91C111.36 5.84 111.4 5.75 111.4 5.65C111.4 5.55 111.36 5.45 111.29 5.38C111.22 5.31 111.13 5.27 111.02 5.27Z" fill="#FFFFFF" fill-opacity="1.000000" fill-rule="nonzero"/>
	<path id="Vector" d="M111.74 6.46C111.71 6.46 111.68 6.45 111.66 6.43L111.29 6.06C111.25 6.02 111.25 5.95 111.29 5.91C111.33 5.87 111.39 5.87 111.43 5.91L111.81 6.29C111.85 6.33 111.85 6.39 111.81 6.43C111.79 6.45 111.76 6.46 111.74 6.46Z" fill="#FFFFFF" fill-opacity="1.000000" fill-rule="nonzero"/>
	<path id="Vector" d="M77.22 18.22L74.35 16.93C74.27 16.89 74.21 16.84 74.16 16.77C74.11 16.71 74.09 16.63 74.09 16.55L74.09 16.49C74.09 16.41 74.11 16.34 74.16 16.27C74.21 16.21 74.27 16.16 74.35 16.12L77.22 14.83C77.26 14.82 77.3 14.81 77.34 14.81C77.42 14.81 77.49 14.84 77.54 14.89C77.6 14.95 77.63 15.02 77.63 15.1C77.63 15.15 77.61 15.21 77.57 15.26C77.54 15.31 77.49 15.35 77.43 15.37L74.84 16.52L77.43 17.67C77.49 17.7 77.54 17.74 77.57 17.79C77.61 17.84 77.63 17.89 77.63 17.95C77.63 18.03 77.6 18.1 77.54 18.15C77.49 18.21 77.42 18.24 77.34 18.24C77.3 18.24 77.26 18.23 77.22 18.22Z" fill="#FFFFFF" fill-opacity="1.000000" fill-rule="nonzero"/>
	<path id="Vector" d="M78.44 19.25C78.39 19.19 78.36 19.12 78.36 19.04C78.36 19.01 78.37 18.98 78.38 18.93L80.29 13.35C80.31 13.3 80.34 13.25 80.39 13.21C80.44 13.17 80.5 13.15 80.57 13.15C80.66 13.15 80.73 13.18 80.78 13.24C80.84 13.3 80.87 13.37 80.87 13.45C80.87 13.48 80.86 13.51 80.85 13.56L78.94 19.14C78.92 19.19 78.88 19.24 78.84 19.28C78.79 19.32 78.73 19.34 78.66 19.34C78.57 19.34 78.5 19.31 78.44 19.25Z" fill="#FFFFFF" fill-opacity="1.000000" fill-rule="nonzero"/>
	<path id="Vector" d="M81.68 18.15C81.62 18.1 81.59 18.03 81.59 17.95C81.59 17.89 81.61 17.84 81.65 17.79C81.68 17.74 81.73 17.7 81.79 17.67L84.38 16.52L81.79 15.37C81.73 15.35 81.68 15.31 81.65 15.26C81.61 15.21 81.59 15.16 81.59 15.1C81.59 15.02 81.62 14.95 81.68 14.89C81.73 14.84 81.8 14.81 81.88 14.81C81.93 14.81 81.96 14.82 82 14.83L84.87 16.12C84.95 16.16 85.02 16.21 85.06 16.27C85.11 16.34 85.13 16.41 85.13 16.49L85.13 16.55C85.13 16.63 85.11 16.71 85.06 16.77C85.02 16.84 84.95 16.89 84.87 16.93L82 18.22C81.96 18.23 81.93 18.24 81.88 18.24C81.8 18.24 81.73 18.21 81.68 18.15Z" fill="#FFFFFF" fill-opacity="1.000000" fill-rule="nonzero"/>
	<path id="Vector" d="M76.31 23.77C76.31 24.07 76.06 24.32 75.76 24.32L71.91 24.32C71.61 24.32 71.36 24.07 71.36 23.77C71.36 23.47 71.61 23.23 71.91 23.23L75.76 23.23C76.06 23.23 76.31 23.47 76.31 23.77Z" fill="#FFFFFF" fill-opacity="1.000000" fill-rule="nonzero"/>
	<path id="Vector" d="M76.31 26.31C76.31 26.61 76.06 26.86 75.76 26.86L71.91 26.86C71.61 26.86 71.36 26.61 71.36 26.31C71.36 26.01 71.61 25.77 71.91 25.77L75.76 25.77C76.06 25.77 76.31 26.01 76.31 26.31Z" fill="#FFFFFF" fill-opacity="1.000000" fill-rule="nonzero"/>
	<path id="Vector" d="M98.59 23.23L79.63 23.23C79.33 23.23 79.08 23.47 79.08 23.77C79.08 24.07 79.33 24.32 79.63 24.32L98.59 24.32C98.9 24.32 99.14 24.07 99.14 23.77C99.14 23.47 98.9 23.23 98.59 23.23Z" fill="#FFFFFF" fill-opacity="1.000000" fill-rule="nonzero"/>
	<path id="Vector" d="M96.15 26.31C96.15 26.61 96.39 26.86 96.69 26.86L102.61 26.86C102.91 26.86 103.16 26.61 103.16 26.31C103.16 26.01 102.91 25.77 102.61 25.77L96.69 25.77C96.39 25.77 96.15 26.01 96.15 26.31Z" fill="#FFFFFF" fill-opacity="1.000000" fill-rule="nonzero"/>
	<path id="Vector" d="M92.5 25.77L79.63 25.77C79.33 25.77 79.08 26.01 79.08 26.31C79.08 26.61 79.33 26.86 79.63 26.86L92.5 26.86C92.8 26.86 93.04 26.61 93.04 26.31C93.04 26.01 92.8 25.77 92.5 25.77Z" fill="#FFFFFF" fill-opacity="1.000000" fill-rule="nonzero"/>
	<path id="Vector" d="M76.31 28.53C76.31 28.83 76.06 29.08 75.76 29.08L71.91 29.08C71.61 29.08 71.36 28.83 71.36 28.53C71.36 28.23 71.61 27.99 71.91 27.99L75.76 27.99C76.06 27.99 76.31 28.23 76.31 28.53Z" fill="#FFFFFF" fill-opacity="1.000000" fill-rule="nonzero"/>
	<path id="Vector" d="M76.31 31.07C76.31 31.37 76.06 31.62 75.76 31.62L71.91 31.62C71.61 31.62 71.36 31.37 71.36 31.07C71.36 30.77 71.61 30.53 71.91 30.53L75.76 30.53C76.06 30.53 76.31 30.77 76.31 31.07Z" fill="#FFFFFF" fill-opacity="1.000000" fill-rule="nonzero"/>
	<path id="Vector" d="M86.42 27.99L79.63 27.99C79.33 27.99 79.08 28.23 79.08 28.53C79.08 28.83 79.33 29.08 79.63 29.08L86.42 29.08C86.72 29.08 86.96 28.83 86.96 28.53C86.96 28.23 86.72 27.99 86.42 27.99Z" fill="#FFFFFF" fill-opacity="1.000000" fill-rule="nonzero"/>
	<path id="Vector" d="M108.51 27.99L89.77 27.99C89.47 27.99 89.23 28.23 89.23 28.53C89.23 28.83 89.47 29.08 89.77 29.08L108.51 29.08C108.81 29.08 109.05 28.83 109.05 28.53C109.05 28.23 108.81 27.99 108.51 27.99Z" fill="#FFFFFF" fill-opacity="1.000000" fill-rule="nonzero"/>
	<path id="Vector" d="M92.5 30.53L79.63 30.53C79.33 30.53 79.08 30.77 79.08 31.07C79.08 31.37 79.33 31.62 79.63 31.62L92.5 31.62C92.8 31.62 93.04 31.37 93.04 31.07C93.04 30.77 92.8 30.53 92.5 30.53Z" fill="#FFFFFF" fill-opacity="1.000000" fill-rule="nonzero"/>
	<path id="Vector" d="M78.27 33.68C78.27 33.98 78.03 34.22 77.73 34.22L73.88 34.22C73.58 34.22 73.33 33.98 73.33 33.68C73.33 33.37 73.58 33.13 73.88 33.13L77.73 33.13C78.03 33.13 78.27 33.37 78.27 33.68Z" fill="#FFFFFF" fill-opacity="1.000000" fill-rule="nonzero"/>
	<path id="Vector" d="M78.27 36.22C78.27 36.52 78.03 36.76 77.73 36.76L73.88 36.76C73.58 36.76 73.33 36.52 73.33 36.22C73.33 35.91 73.58 35.67 73.88 35.67L77.73 35.67C78.03 35.67 78.27 35.91 78.27 36.22Z" fill="#FFFFFF" fill-opacity="1.000000" fill-rule="nonzero"/>
	<path id="Vector" d="M88.39 33.13L81.6 33.13C81.29 33.13 81.05 33.37 81.05 33.68C81.05 33.98 81.29 34.22 81.6 34.22L88.39 34.22C88.69 34.22 88.93 33.98 88.93 33.68C88.93 33.37 88.69 33.13 88.39 33.13Z" fill="#FFFFFF" fill-opacity="1.000000" fill-rule="nonzero"/>
	<path id="Vector" d="M101.86 33.13L91.74 33.13C91.44 33.13 91.2 33.37 91.2 33.68C91.2 33.98 91.44 34.22 91.74 34.22L101.86 34.22C102.16 34.22 102.41 33.98 102.41 33.68C102.41 33.37 102.16 33.13 101.86 33.13Z" fill="#FFFFFF" fill-opacity="1.000000" fill-rule="nonzero"/>
	<path id="Vector" d="M98.11 36.22C98.11 36.52 98.36 36.76 98.66 36.76L108.96 36.76C109.26 36.76 109.5 36.52 109.5 36.22C109.5 35.91 109.26 35.67 108.96 35.67L98.66 35.67C98.36 35.67 98.11 35.91 98.11 36.22Z" fill="#FFFFFF" fill-opacity="1.000000" fill-rule="nonzero"/>
	<path id="Vector" d="M94.47 35.67L81.6 35.67C81.29 35.67 81.05 35.91 81.05 36.22C81.05 36.52 81.29 36.76 81.6 36.76L94.47 36.76C94.77 36.76 95.01 36.52 95.01 36.22C95.01 35.91 94.77 35.67 94.47 35.67Z" fill="#FFFFFF" fill-opacity="1.000000" fill-rule="nonzero"/>
	<path id="Vector" d="M106.88 13.21C106.88 13.5 106.64 13.73 106.35 13.73L95.87 13.73C95.58 13.73 95.34 13.5 95.34 13.21C95.34 12.92 95.58 12.69 95.87 12.69L106.35 12.69C106.64 12.69 106.88 12.92 106.88 13.21Z" fill="#FFFFFF" fill-opacity="1.000000" fill-rule="nonzero"/>
	<path id="Vector" d="M94.99 15.41L91.72 15.41C91.43 15.41 91.2 15.64 91.2 15.93L91.2 15.93C91.2 16.22 91.43 16.45 91.72 16.45L94.99 16.45C95.28 16.45 95.51 16.22 95.51 15.93L95.51 15.93C95.51 15.64 95.28 15.41 94.99 15.41Z" fill="#FFFFFF" fill-opacity="1.000000" fill-rule="nonzero"/>
	<path id="Vector" d="M97.7 15.93L97.7 15.93C97.7 16.22 97.94 16.45 98.22 16.45L110.5 16.45C110.79 16.45 111.02 16.22 111.02 15.93L111.02 15.93C111.02 15.64 110.79 15.41 110.5 15.41L98.22 15.41C97.94 15.41 97.7 15.64 97.7 15.93Z" fill="#FFFFFF" fill-opacity="1.000000" fill-rule="nonzero"/>
	<path id="Vector" d="M103.43 18.13L91.72 18.13C91.43 18.13 91.2 18.37 91.2 18.65L91.2 18.65C91.2 18.94 91.43 19.18 91.72 19.18L103.43 19.18C103.72 19.18 103.95 18.94 103.95 18.65L103.95 18.65C103.95 18.37 103.72 18.13 103.43 18.13Z" fill="#FFFFFF" fill-opacity="1.000000" fill-rule="nonzero"/>
	<path id="Vector" d="M107.28 18.65L107.28 18.65C107.28 18.94 107.52 19.18 107.8 19.18L110.5 19.18C110.79 19.18 111.02 18.94 111.02 18.65L111.02 18.65C111.02 18.37 110.79 18.13 110.5 18.13L107.8 18.13C107.52 18.13 107.28 18.37 107.28 18.65Z" fill="#FFFFFF" fill-opacity="1.000000" fill-rule="nonzero"/>
	<path id="Vector" d="M31.8 48.34C31.69 48.34 31.6 48.25 31.6 48.14L31.6 46.46C31.6 44.4 33.27 42.73 35.33 42.73L37.59 42.73C37.7 42.73 37.79 42.82 37.79 42.93C37.79 43.04 37.7 43.13 37.59 43.13L35.33 43.13C33.5 43.13 32 44.62 32 46.46L32 48.14C32 48.25 31.91 48.34 31.8 48.34Z" fill="url(#paint_linear_7_2727_0)" fill-opacity="1.000000" fill-rule="nonzero"/>
	<path id="Vector" d="M58.96 48.92C58.84 48.92 58.75 48.83 58.75 48.72L58.75 46.46C58.75 44.62 57.26 43.13 55.43 43.13L53.75 43.13C53.64 43.13 53.55 43.04 53.55 42.93C53.55 42.82 53.64 42.73 53.75 42.73L55.43 42.73C57.48 42.73 59.16 44.4 59.16 46.46L59.16 48.72C59.16 48.83 59.07 48.92 58.96 48.92Z" fill="url(#paint_linear_7_2729_0)" fill-opacity="1.000000" fill-rule="nonzero"/>
	<path id="Vector" d="M55.43 63.22L53.17 63.22C53.05 63.22 52.96 63.13 52.96 63.02C52.96 62.91 53.05 62.82 53.17 62.82L55.43 62.82C57.26 62.82 58.75 61.33 58.75 59.49L58.75 57.81C58.75 57.7 58.84 57.61 58.96 57.61C59.07 57.61 59.16 57.7 59.16 57.81L59.16 59.49C59.16 61.55 57.48 63.22 55.43 63.22Z" fill="url(#paint_linear_7_2732_0)" fill-opacity="1.000000" fill-rule="nonzero"/>
	<path id="Vector" d="M37.01 63.22L35.33 63.22C33.27 63.22 31.6 61.55 31.6 59.49L31.6 57.23C31.6 57.12 31.69 57.03 31.8 57.03C31.91 57.03 32 57.12 32 57.23L32 59.49C32 61.33 33.5 62.82 35.33 62.82L37.01 62.82C37.12 62.82 37.21 62.91 37.21 63.02C37.21 63.13 37.12 63.22 37.01 63.22Z" fill="url(#paint_linear_7_2734_0)" fill-opacity="1.000000" fill-rule="nonzero"/>
	<path id="Vector" d="M57.04 46.46L57.04 59.49C57.04 60.38 56.32 61.11 55.43 61.11L35.33 61.11C34.44 61.11 33.72 60.38 33.72 59.49L33.72 46.46C33.72 45.57 34.44 44.84 35.33 44.84L55.43 44.84C56.32 44.84 57.04 45.57 57.04 46.46Z" fill="url(#paint_linear_7_2735_0)" fill-opacity="1.000000" fill-rule="nonzero"/>
	<path id="Vector" d="M38.27 55.98C37.76 55.71 37.35 55.32 37.05 54.82C36.74 54.32 36.59 53.72 36.59 53.04C36.59 52.36 36.74 51.77 37.05 51.27C37.35 50.77 37.76 50.38 38.27 50.11C38.79 49.84 39.34 49.71 39.95 49.71C40.39 49.71 40.78 49.77 41.1 49.88C41.42 49.99 41.72 50.14 42 50.31C42.17 50.42 42.25 50.57 42.25 50.75C42.25 50.88 42.2 50.99 42.11 51.1C42.01 51.2 41.9 51.26 41.77 51.26C41.68 51.26 41.59 51.23 41.5 51.18C41.22 51.04 40.98 50.94 40.79 50.87C40.59 50.81 40.34 50.78 40.05 50.78C39.33 50.78 38.76 50.99 38.35 51.4C37.94 51.82 37.73 52.36 37.73 53.04C37.73 53.72 37.94 54.27 38.35 54.69C38.76 55.1 39.33 55.31 40.05 55.31C40.34 55.31 40.59 55.28 40.79 55.22C40.98 55.15 41.22 55.05 41.5 54.91C41.59 54.86 41.68 54.83 41.77 54.83C41.9 54.83 42.01 54.88 42.11 54.99C42.2 55.09 42.25 55.21 42.25 55.34C42.25 55.52 42.17 55.67 42 55.78C41.72 55.95 41.42 56.1 41.1 56.21C40.78 56.32 40.39 56.38 39.95 56.38C39.34 56.38 38.79 56.25 38.27 55.98Z" fill="#FFFFFF" fill-opacity="1.000000" fill-rule="nonzero"/>
	<path id="Vector" d="M43.47 55.81C43.33 55.71 43.26 55.57 43.26 55.4C43.26 55.26 43.3 55.15 43.4 55.05C43.49 54.94 43.61 54.89 43.75 54.89C43.83 54.89 43.9 54.91 43.98 54.94C44.24 55.06 44.51 55.15 44.78 55.22C45.05 55.29 45.35 55.32 45.69 55.32C46.62 55.32 47.09 55.02 47.09 54.43C47.09 54.24 46.98 54.09 46.76 53.99C46.55 53.89 46.2 53.77 45.71 53.65C45.22 53.53 44.81 53.41 44.49 53.28C44.16 53.16 43.89 52.97 43.66 52.71C43.42 52.45 43.31 52.12 43.31 51.7C43.31 51.11 43.52 50.63 43.94 50.26C44.37 49.89 44.97 49.71 45.76 49.71C46.41 49.71 47.02 49.81 47.59 50.02C47.71 50.06 47.8 50.12 47.86 50.21C47.92 50.3 47.95 50.4 47.95 50.5C47.95 50.64 47.91 50.75 47.81 50.85C47.71 50.95 47.59 51 47.45 51C47.41 51 47.35 51 47.29 50.98C46.8 50.83 46.32 50.75 45.85 50.75C45.4 50.75 45.04 50.84 44.79 51C44.53 51.16 44.4 51.37 44.4 51.63C44.4 51.89 44.52 52.07 44.76 52.19C44.99 52.31 45.36 52.42 45.85 52.53C46.35 52.65 46.75 52.78 47.06 52.9C47.37 53.02 47.64 53.21 47.86 53.47C48.08 53.73 48.19 54.08 48.19 54.52C48.19 55.05 47.98 55.5 47.56 55.85C47.13 56.2 46.54 56.38 45.76 56.38C44.92 56.38 44.16 56.19 43.47 55.81Z" fill="#FFFFFF" fill-opacity="1.000000" fill-rule="nonzero"/>
	<path id="Vector" d="M49.51 55.81C49.37 55.71 49.3 55.57 49.3 55.4C49.3 55.26 49.35 55.15 49.44 55.05C49.53 54.94 49.65 54.89 49.79 54.89C49.87 54.89 49.94 54.91 50.02 54.94C50.29 55.06 50.55 55.15 50.82 55.22C51.09 55.29 51.39 55.32 51.73 55.32C52.66 55.32 53.13 55.02 53.13 54.43C53.13 54.24 53.02 54.09 52.81 53.99C52.59 53.89 52.24 53.77 51.75 53.65C51.26 53.53 50.85 53.41 50.53 53.28C50.2 53.16 49.93 52.97 49.7 52.71C49.47 52.45 49.35 52.12 49.35 51.7C49.35 51.11 49.56 50.63 49.99 50.26C50.41 49.89 51.02 49.71 51.8 49.71C52.45 49.71 53.06 49.81 53.63 50.02C53.75 50.06 53.84 50.12 53.9 50.21C53.96 50.3 54 50.4 54 50.5C54 50.64 53.95 50.75 53.85 50.85C53.75 50.95 53.63 51 53.49 51C53.45 51 53.39 51 53.33 50.98C52.84 50.83 52.36 50.75 51.89 50.75C51.44 50.75 51.09 50.84 50.83 51C50.57 51.16 50.45 51.37 50.45 51.63C50.45 51.89 50.56 52.07 50.8 52.19C51.03 52.31 51.4 52.42 51.89 52.53C52.39 52.65 52.79 52.78 53.1 52.9C53.41 53.02 53.68 53.21 53.9 53.47C54.12 53.73 54.23 54.08 54.23 54.52C54.23 55.05 54.02 55.5 53.6 55.85C53.17 56.2 52.58 56.38 51.8 56.38C50.97 56.38 50.2 56.19 49.51 55.81Z" fill="#FFFFFF" fill-opacity="1.000000" fill-rule="nonzero"/>
	<path id="Vector" d="M4.65 72.89C4.54 72.89 4.45 72.8 4.45 72.69L4.45 71.01C4.45 68.95 6.12 67.28 8.18 67.28L10.44 67.28C10.55 67.28 10.64 67.37 10.64 67.48C10.64 67.59 10.55 67.68 10.44 67.68L8.18 67.68C6.34 67.68 4.85 69.17 4.85 71.01L4.85 72.69C4.85 72.8 4.76 72.89 4.65 72.89Z" fill="url(#paint_linear_7_2746_0)" fill-opacity="1.000000" fill-rule="nonzero"/>
	<path id="Vector" d="M31.8 73.47C31.69 73.47 31.6 73.38 31.6 73.27L31.6 71.01C31.6 69.17 30.11 67.68 28.28 67.68L26.6 67.68C26.49 67.68 26.4 67.59 26.4 67.48C26.4 67.37 26.49 67.28 26.6 67.28L28.28 67.28C30.33 67.28 32 68.95 32 71.01L32 73.27C32 73.38 31.91 73.47 31.8 73.47Z" fill="url(#paint_linear_7_2748_0)" fill-opacity="1.000000" fill-rule="nonzero"/>
	<path id="Vector" d="M28.28 87.77L26.01 87.77C25.9 87.77 25.81 87.68 25.81 87.57C25.81 87.46 25.9 87.37 26.01 87.37L28.28 87.37C30.11 87.37 31.6 85.88 31.6 84.04L31.6 82.36C31.6 82.25 31.69 82.16 31.8 82.16C31.91 82.16 32 82.25 32 82.36L32 84.04C32 86.1 30.33 87.77 28.28 87.77Z" fill="url(#paint_linear_7_2751_0)" fill-opacity="1.000000" fill-rule="nonzero"/>
	<path id="Vector" d="M9.86 87.77L8.18 87.77C6.12 87.77 4.45 86.1 4.45 84.04L4.45 81.78C4.45 81.67 4.54 81.58 4.65 81.58C4.76 81.58 4.85 81.67 4.85 81.78L4.85 84.04C4.85 85.88 6.34 87.37 8.18 87.37L9.86 87.37C9.97 87.37 10.06 87.46 10.06 87.57C10.06 87.68 9.97 87.77 9.86 87.77Z" fill="url(#paint_linear_7_2753_0)" fill-opacity="1.000000" fill-rule="nonzero"/>
	<path id="Vector" d="M29.89 71.01L29.89 84.04C29.89 84.93 29.17 85.66 28.28 85.66L8.18 85.66C7.29 85.66 6.57 84.93 6.57 84.04L6.57 71.01C6.57 70.12 7.29 69.39 8.18 69.39L28.28 69.39C29.17 69.39 29.89 70.12 29.89 71.01Z" fill="url(#paint_linear_7_2754_0)" fill-opacity="1.000000" fill-rule="nonzero"/>
	<path id="Vector" d="M11.02 80.23C10.58 79.99 10.23 79.66 9.97 79.23C9.7 78.79 9.57 78.28 9.57 77.69C9.57 77.11 9.7 76.6 9.97 76.16C10.23 75.73 10.58 75.4 11.02 75.16C11.47 74.93 11.95 74.82 12.47 74.82C12.85 74.82 13.18 74.86 13.46 74.96C13.74 75.06 14 75.19 14.24 75.34C14.39 75.43 14.46 75.56 14.46 75.72C14.46 75.83 14.42 75.93 14.33 76.02C14.25 76.11 14.15 76.15 14.04 76.15C13.97 76.15 13.89 76.13 13.81 76.09C13.57 75.96 13.36 75.87 13.19 75.82C13.02 75.77 12.81 75.74 12.56 75.74C11.93 75.74 11.44 75.92 11.09 76.28C10.73 76.64 10.56 77.11 10.56 77.69C10.56 78.28 10.73 78.75 11.09 79.11C11.44 79.47 11.93 79.65 12.56 79.65C12.81 79.65 13.02 79.62 13.19 79.57C13.36 79.51 13.57 79.43 13.81 79.3C13.89 79.26 13.97 79.24 14.04 79.24C14.15 79.24 14.25 79.28 14.33 79.37C14.42 79.46 14.46 79.56 14.46 79.67C14.46 79.83 14.39 79.96 14.24 80.05C14 80.2 13.74 80.33 13.46 80.43C13.18 80.52 12.85 80.57 12.47 80.57C11.95 80.57 11.47 80.46 11.02 80.23Z" fill="#FFFFFF" fill-opacity="1.000000" fill-rule="nonzero"/>
	<path id="Vector" d="M17.59 79.21C17.51 79.13 17.47 79.03 17.47 78.91L17.47 77.13L15.68 77.13C15.57 77.13 15.47 77.09 15.39 77.01C15.31 76.93 15.27 76.83 15.27 76.72C15.27 76.59 15.31 76.49 15.39 76.41C15.47 76.33 15.57 76.29 15.68 76.29L17.47 76.29L17.47 74.51C17.47 74.39 17.51 74.29 17.59 74.21C17.67 74.13 17.77 74.09 17.89 74.09C18.01 74.09 18.11 74.13 18.19 74.21C18.27 74.29 18.31 74.39 18.31 74.51L18.31 76.29L20.08 76.29C20.21 76.29 20.31 76.33 20.39 76.41C20.47 76.49 20.51 76.59 20.51 76.72C20.51 76.83 20.47 76.93 20.39 77.01C20.31 77.09 20.21 77.13 20.08 77.13L18.31 77.13L18.31 78.91C18.31 79.03 18.27 79.13 18.19 79.21C18.11 79.29 18.01 79.33 17.89 79.33C17.77 79.33 17.67 79.29 17.59 79.21Z" fill="#FFFFFF" fill-opacity="1.000000" fill-rule="nonzero"/>
	<path id="Vector" d="M23.7 79.21C23.61 79.13 23.57 79.03 23.57 78.91L23.57 77.13L21.79 77.13C21.67 77.13 21.58 77.09 21.5 77.01C21.42 76.93 21.38 76.83 21.38 76.72C21.38 76.59 21.42 76.49 21.5 76.41C21.58 76.33 21.67 76.29 21.79 76.29L23.57 76.29L23.57 74.51C23.57 74.39 23.61 74.29 23.7 74.21C23.78 74.13 23.88 74.09 24 74.09C24.12 74.09 24.22 74.13 24.3 74.21C24.38 74.29 24.42 74.39 24.42 74.51L24.42 76.29L26.19 76.29C26.31 76.29 26.41 76.33 26.49 76.41C26.57 76.49 26.61 76.59 26.61 76.72C26.61 76.83 26.57 76.93 26.49 77.01C26.41 77.09 26.31 77.13 26.19 77.13L24.42 77.13L24.42 78.91C24.42 79.03 24.38 79.13 24.3 79.21C24.22 79.29 24.12 79.33 24 79.33C23.88 79.33 23.78 79.29 23.7 79.21Z" fill="#FFFFFF" fill-opacity="1.000000" fill-rule="nonzero"/>
	<path id="Vector" d="M84.42 58.52C84.31 58.52 84.22 58.43 84.22 58.32L84.22 56.64C84.22 54.59 85.89 52.91 87.95 52.91L90.21 52.91C90.32 52.91 90.41 53 90.41 53.12C90.41 53.23 90.32 53.32 90.21 53.32L87.95 53.32C86.11 53.32 84.62 54.81 84.62 56.64L84.62 58.32C84.62 58.43 84.53 58.52 84.42 58.52Z" fill="url(#paint_linear_7_2765_0)" fill-opacity="1.000000" fill-rule="nonzero"/>
	<path id="Vector" d="M111.57 59.11C111.46 59.11 111.37 59.02 111.37 58.9L111.37 56.64C111.37 54.81 109.88 53.32 108.04 53.32L106.37 53.32C106.25 53.32 106.16 53.23 106.16 53.12C106.16 53 106.25 52.91 106.37 52.91L108.04 52.91C110.1 52.91 111.77 54.59 111.77 56.64L111.77 58.9C111.77 59.02 111.68 59.11 111.57 59.11Z" fill="url(#paint_linear_7_2767_0)" fill-opacity="1.000000" fill-rule="nonzero"/>
	<path id="Vector" d="M108.04 73.41L105.78 73.41C105.67 73.41 105.58 73.32 105.58 73.21C105.58 73.09 105.67 73 105.78 73L108.04 73C109.88 73 111.37 71.51 111.37 69.68L111.37 68C111.37 67.89 111.46 67.8 111.57 67.8C111.68 67.8 111.77 67.89 111.77 68L111.77 69.68C111.77 71.73 110.1 73.41 108.04 73.41Z" fill="url(#paint_linear_7_2770_0)" fill-opacity="1.000000" fill-rule="nonzero"/>
	<path id="Vector" d="M89.63 73.41L87.95 73.41C85.89 73.41 84.22 71.73 84.22 69.68L84.22 67.42C84.22 67.3 84.31 67.21 84.42 67.21C84.53 67.21 84.62 67.3 84.62 67.42L84.62 69.68C84.62 71.51 86.11 73 87.95 73L89.63 73C89.74 73 89.83 73.09 89.83 73.21C89.83 73.32 89.74 73.41 89.63 73.41Z" fill="url(#paint_linear_7_2772_0)" fill-opacity="1.000000" fill-rule="nonzero"/>
	<path id="Vector" d="M109.66 56.64L109.66 69.68C109.66 70.57 108.94 71.29 108.04 71.29L87.95 71.29C87.06 71.29 86.33 70.57 86.33 69.68L86.33 56.64C86.33 55.75 87.06 55.03 87.95 55.03L108.04 55.03C108.94 55.03 109.66 55.75 109.66 56.64Z" fill="url(#paint_linear_7_2773_0)" fill-opacity="1.000000" fill-rule="nonzero"/>
	<path id="Vector" d="M89.1 65.23C89.04 65.17 89.01 65.1 89.01 65.02L89.01 60.93C89.01 60.85 89.04 60.78 89.1 60.72C89.16 60.66 89.23 60.63 89.31 60.63C89.4 60.63 89.47 60.66 89.53 60.72C89.59 60.78 89.62 60.85 89.62 60.93L89.62 62.7L92.13 62.7L92.13 60.93C92.13 60.85 92.16 60.78 92.21 60.72C92.27 60.66 92.34 60.63 92.42 60.63C92.51 60.63 92.58 60.66 92.64 60.72C92.7 60.78 92.73 60.85 92.73 60.93L92.73 65.02C92.73 65.1 92.7 65.17 92.64 65.23C92.58 65.29 92.51 65.32 92.42 65.32C92.34 65.32 92.27 65.29 92.21 65.23C92.16 65.17 92.13 65.1 92.13 65.02L92.13 63.26L89.62 63.26L89.62 65.02C89.62 65.1 89.59 65.17 89.53 65.23C89.47 65.29 89.4 65.32 89.31 65.32C89.23 65.32 89.16 65.29 89.1 65.23Z" fill="#FFFFFF" fill-opacity="1.000000" fill-rule="nonzero"/>
	<path id="Vector" d="M95.17 65.23C95.12 65.17 95.09 65.1 95.09 65.02L95.09 61.22L93.74 61.22C93.66 61.22 93.59 61.2 93.54 61.15C93.48 61.09 93.46 61.03 93.46 60.95C93.46 60.87 93.48 60.8 93.54 60.74C93.59 60.69 93.66 60.66 93.74 60.66L97.03 60.66C97.11 60.66 97.18 60.69 97.24 60.74C97.29 60.8 97.32 60.87 97.32 60.95C97.32 61.03 97.29 61.09 97.24 61.15C97.18 61.2 97.11 61.22 97.03 61.22L95.69 61.22L95.69 65.02C95.69 65.1 95.66 65.17 95.6 65.23C95.54 65.29 95.47 65.32 95.39 65.32C95.3 65.32 95.23 65.29 95.17 65.23Z" fill="#FFFFFF" fill-opacity="1.000000" fill-rule="nonzero"/>
	<path id="Vector" d="M98.13 65.23C98.08 65.17 98.05 65.1 98.05 65.02L98.05 61.07C98.05 60.95 98.09 60.84 98.17 60.76C98.26 60.67 98.36 60.63 98.48 60.63L98.7 60.63C98.79 60.63 98.87 60.65 98.94 60.71C99.01 60.76 99.07 60.83 99.1 60.91L100.61 64.66L102.11 60.91C102.14 60.83 102.2 60.76 102.27 60.71C102.34 60.65 102.42 60.63 102.51 60.63L102.73 60.63C102.85 60.63 102.95 60.67 103.04 60.76C103.12 60.84 103.16 60.95 103.16 61.07L103.16 65.02C103.16 65.1 103.13 65.17 103.08 65.23C103.02 65.29 102.95 65.32 102.86 65.32C102.78 65.32 102.71 65.29 102.65 65.23C102.59 65.17 102.56 65.1 102.56 65.02L102.56 61.26L101.03 65.04C100.99 65.12 100.94 65.19 100.86 65.24C100.78 65.29 100.7 65.32 100.61 65.32C100.51 65.32 100.43 65.29 100.35 65.24C100.27 65.19 100.22 65.12 100.18 65.04L98.65 61.26L98.65 65.02C98.65 65.1 98.62 65.17 98.56 65.23C98.5 65.29 98.43 65.32 98.35 65.32C98.26 65.32 98.19 65.29 98.13 65.23Z" fill="#FFFFFF" fill-opacity="1.000000" fill-rule="nonzero"/>
	<path id="Vector" d="M104.57 65.16C104.49 65.08 104.45 64.98 104.45 64.87L104.45 60.93C104.45 60.85 104.48 60.78 104.53 60.72C104.59 60.66 104.66 60.63 104.75 60.63C104.83 60.63 104.9 60.66 104.96 60.72C105.02 60.78 105.05 60.85 105.05 60.93L105.05 64.68L107.22 64.68C107.3 64.68 107.37 64.71 107.43 64.77C107.49 64.83 107.52 64.9 107.52 64.99C107.52 65.07 107.49 65.14 107.43 65.2C107.37 65.26 107.3 65.28 107.22 65.28L104.86 65.28C104.75 65.28 104.65 65.24 104.57 65.16Z" fill="#FFFFFF" fill-opacity="1.000000" fill-rule="nonzero"/>
	<path id="Vector" d="M180.26 117.96C180.26 124.28 175.14 129.4 168.83 129.4C162.51 129.4 157.39 124.28 157.39 117.96C157.39 111.65 162.51 106.53 168.83 106.53C175.14 106.53 180.26 111.65 180.26 117.96Z" fill="#ADC8F7" fill-opacity="1.000000" fill-rule="nonzero"/>
	<path id="Vector" d="M177.36 117.96C177.36 122.68 173.54 126.5 168.83 126.5C164.11 126.5 160.29 122.68 160.29 117.96C160.29 113.25 164.11 109.43 168.83 109.43C173.54 109.43 177.36 113.25 177.36 117.96Z" fill="url(#paint_linear_7_2782_0)" fill-opacity="1.000000" fill-rule="nonzero"/>
	<path id="Vector" d="M166.17 119.57L162.97 118.13C162.88 118.09 162.81 118.03 162.76 117.96C162.71 117.89 162.68 117.8 162.68 117.71L162.68 117.65C162.68 117.56 162.71 117.48 162.76 117.41C162.81 117.33 162.88 117.28 162.97 117.23L166.17 115.8C166.21 115.78 166.25 115.77 166.3 115.77C166.39 115.77 166.46 115.8 166.53 115.87C166.59 115.93 166.62 116 166.62 116.09C166.62 116.16 166.6 116.22 166.56 116.27C166.52 116.33 166.47 116.37 166.4 116.4L163.52 117.68L166.4 118.96C166.47 118.99 166.52 119.03 166.56 119.09C166.6 119.14 166.62 119.21 166.62 119.27C166.62 119.36 166.59 119.44 166.53 119.5C166.46 119.56 166.39 119.59 166.3 119.59C166.25 119.59 166.21 119.58 166.17 119.57Z" fill="#FFFFFF" fill-opacity="1.000000" fill-rule="nonzero"/>
	<path id="Vector" d="M167.53 120.72C167.47 120.66 167.44 120.58 167.44 120.49C167.44 120.46 167.44 120.42 167.46 120.37L169.58 114.15C169.61 114.09 169.64 114.04 169.7 113.99C169.75 113.95 169.82 113.93 169.9 113.93C169.99 113.93 170.07 113.96 170.13 114.03C170.2 114.09 170.23 114.17 170.23 114.26C170.23 114.29 170.22 114.33 170.2 114.38L168.08 120.59C168.06 120.66 168.02 120.71 167.97 120.75C167.91 120.79 167.84 120.82 167.77 120.82C167.67 120.82 167.59 120.78 167.53 120.72Z" fill="#FFFFFF" fill-opacity="1.000000" fill-rule="nonzero"/>
	<path id="Vector" d="M171.13 119.5C171.07 119.44 171.04 119.36 171.04 119.27C171.04 119.2 171.06 119.14 171.1 119.09C171.14 119.03 171.19 118.99 171.25 118.96L174.14 117.68L171.25 116.4C171.19 116.37 171.14 116.33 171.1 116.27C171.06 116.22 171.04 116.16 171.04 116.09C171.04 116 171.07 115.93 171.13 115.87C171.19 115.8 171.27 115.77 171.36 115.77C171.4 115.77 171.45 115.78 171.48 115.8L174.68 117.23C174.77 117.28 174.85 117.33 174.9 117.41C174.95 117.48 174.97 117.56 174.97 117.65L174.97 117.71C174.97 117.8 174.95 117.89 174.9 117.96C174.85 118.03 174.77 118.09 174.68 118.13L171.48 119.57C171.45 119.58 171.4 119.59 171.36 119.59C171.27 119.59 171.19 119.56 171.13 119.5Z" fill="#FFFFFF" fill-opacity="1.000000" fill-rule="nonzero"/>
</svg>
