<svg width="274.169067" height="240.000000" viewBox="0 0 274.169 240" fill="none" xmlns="http://www.w3.org/2000/svg" xmlns:xlink="http://www.w3.org/1999/xlink">
	<desc>
			Created with Pixso.
	</desc>
	<defs>
		<clipPath id="clip7_1084">
			<rect id="Layer_1" rx="-0.500000" width="273.169098" height="239.000000" transform="translate(0.500000 0.500000)" fill="white" fill-opacity="0"/>
		</clipPath>
		<linearGradient x1="241.347260" y1="68.347137" x2="252.512329" y2="68.347137" id="paint_linear_7_1094_0" gradientUnits="userSpaceOnUse">
			<stop stop-color="#D1DEFF"/>
			<stop offset="1.000000" stop-color="#B2C7FF"/>
		</linearGradient>
		<linearGradient x1="114.515259" y1="10.466873" x2="249.706131" y2="10.466873" id="paint_linear_7_1098_0" gradientUnits="userSpaceOnUse">
			<stop stop-color="#D1DEFF"/>
			<stop offset="1.000000" stop-color="#B2C7FF"/>
		</linearGradient>
		<linearGradient x1="136.910538" y1="41.119576" x2="146.919983" y2="41.119576" id="paint_linear_7_1104_0" gradientUnits="userSpaceOnUse">
			<stop stop-color="#EBF2FF"/>
			<stop offset="1.000000" stop-color="#E1E8FF"/>
		</linearGradient>
		<linearGradient x1="136.908463" y1="93.307320" x2="146.924347" y2="93.307320" id="paint_linear_7_1105_0" gradientUnits="userSpaceOnUse">
			<stop stop-color="#EBF2FF"/>
			<stop offset="1.000000" stop-color="#E1E8FF"/>
		</linearGradient>
		<linearGradient x1="131.875366" y1="67.253044" x2="136.983200" y2="67.013306" id="paint_linear_7_1106_0" gradientUnits="userSpaceOnUse">
			<stop stop-color="#D1DEFF"/>
			<stop offset="1.000000" stop-color="#B2C7FF"/>
		</linearGradient>
		<linearGradient x1="154.228439" y1="66.793358" x2="144.443146" y2="68.103645" id="paint_linear_7_1107_0" gradientUnits="userSpaceOnUse">
			<stop stop-color="#D1DEFF"/>
			<stop offset="1.000000" stop-color="#B2C7FF"/>
		</linearGradient>
		<linearGradient x1="129.034195" y1="46.265663" x2="154.795898" y2="46.265663" id="paint_linear_7_1108_0" gradientUnits="userSpaceOnUse">
			<stop stop-color="#EBF2FF"/>
			<stop offset="1.000000" stop-color="#E1E8FF"/>
		</linearGradient>
		<linearGradient x1="129.036133" y1="46.264496" x2="154.790802" y2="46.264496" id="paint_linear_7_1109_0" gradientUnits="userSpaceOnUse">
			<stop stop-color="#EBF2FF"/>
			<stop offset="1.000000" stop-color="#E1E8FF"/>
		</linearGradient>
		<linearGradient x1="136.448242" y1="67.213539" x2="147.381210" y2="67.213539" id="paint_linear_7_1110_0" gradientUnits="userSpaceOnUse">
			<stop stop-color="#EBF2FF"/>
			<stop offset="1.000000" stop-color="#E1E8FF"/>
		</linearGradient>
		<linearGradient x1="136.450806" y1="46.265083" x2="147.379944" y2="46.265083" id="paint_linear_7_1111_0" gradientUnits="userSpaceOnUse">
			<stop stop-color="#D1DEFF"/>
			<stop offset="1.000000" stop-color="#B2C7FF"/>
		</linearGradient>
		<linearGradient x1="129.040558" y1="88.162552" x2="154.795868" y2="88.162552" id="paint_linear_7_1112_0" gradientUnits="userSpaceOnUse">
			<stop stop-color="#EBF2FF"/>
			<stop offset="1.000000" stop-color="#E1E8FF"/>
		</linearGradient>
		<linearGradient x1="129.036133" y1="88.161270" x2="154.797821" y2="88.161270" id="paint_linear_7_1113_0" gradientUnits="userSpaceOnUse">
			<stop stop-color="#EBF2FF"/>
			<stop offset="1.000000" stop-color="#E1E8FF"/>
		</linearGradient>
		<linearGradient x1="136.451416" y1="88.162544" x2="147.381195" y2="88.162544" id="paint_linear_7_1114_0" gradientUnits="userSpaceOnUse">
			<stop stop-color="#D1DEFF"/>
			<stop offset="1.000000" stop-color="#B2C7FF"/>
		</linearGradient>
		<linearGradient x1="255.905029" y1="59.817364" x2="258.414001" y2="59.817364" id="paint_linear_7_1116_0" gradientUnits="userSpaceOnUse">
			<stop stop-color="#909EFF"/>
			<stop offset="1.000000" stop-color="#6977E3"/>
		</linearGradient>
		<linearGradient x1="231.042252" y1="45.598183" x2="189.515839" y2="86.423889" id="paint_linear_7_1117_0" gradientUnits="userSpaceOnUse">
			<stop stop-color="#909EFF"/>
			<stop offset="1.000000" stop-color="#6977E3"/>
		</linearGradient>
		<linearGradient x1="121.268799" y1="32.268429" x2="124.266167" y2="32.268429" id="paint_linear_7_1152_0" gradientUnits="userSpaceOnUse">
			<stop stop-color="#D1DEFF"/>
			<stop offset="1.000000" stop-color="#B2C7FF"/>
		</linearGradient>
		<linearGradient x1="135.183868" y1="32.268402" x2="138.181244" y2="32.268402" id="paint_linear_7_1153_0" gradientUnits="userSpaceOnUse">
			<stop stop-color="#D1DEFF"/>
			<stop offset="1.000000" stop-color="#B2C7FF"/>
		</linearGradient>
		<linearGradient x1="125.509521" y1="29.817463" x2="133.929062" y2="29.817463" id="paint_linear_7_1154_0" gradientUnits="userSpaceOnUse">
			<stop stop-color="#D1DEFF"/>
			<stop offset="1.000000" stop-color="#B2C7FF"/>
		</linearGradient>
		<linearGradient x1="125.509521" y1="31.964314" x2="133.929062" y2="31.964314" id="paint_linear_7_1155_0" gradientUnits="userSpaceOnUse">
			<stop stop-color="#D1DEFF"/>
			<stop offset="1.000000" stop-color="#B2C7FF"/>
		</linearGradient>
		<linearGradient x1="125.509521" y1="34.111771" x2="133.929062" y2="34.111771" id="paint_linear_7_1156_0" gradientUnits="userSpaceOnUse">
			<stop stop-color="#D1DEFF"/>
			<stop offset="1.000000" stop-color="#B2C7FF"/>
		</linearGradient>
		<linearGradient x1="127.146278" y1="34.111771" x2="132.421799" y2="34.111771" id="paint_linear_7_1157_0" gradientUnits="userSpaceOnUse">
			<stop stop-color="#D1DEFF"/>
			<stop offset="1.000000" stop-color="#B2C7FF"/>
		</linearGradient>
		<linearGradient x1="152.665649" y1="94.584503" x2="158.845932" y2="94.584503" id="paint_linear_7_1159_0" gradientUnits="userSpaceOnUse">
			<stop stop-color="#D1DEFF"/>
			<stop offset="1.000000" stop-color="#B2C7FF"/>
		</linearGradient>
		<linearGradient x1="159.824097" y1="94.447418" x2="164.886673" y2="94.447418" id="paint_linear_7_1160_0" gradientUnits="userSpaceOnUse">
			<stop stop-color="#D1DEFF"/>
			<stop offset="1.000000" stop-color="#B2C7FF"/>
		</linearGradient>
		<linearGradient x1="165.721832" y1="95.625107" x2="169.907700" y2="95.625107" id="paint_linear_7_1161_0" gradientUnits="userSpaceOnUse">
			<stop stop-color="#D1DEFF"/>
			<stop offset="1.000000" stop-color="#B2C7FF"/>
		</linearGradient>
		<linearGradient x1="194.421036" y1="132.922348" x2="194.421036" y2="95.076157" id="paint_linear_7_1163_0" gradientUnits="userSpaceOnUse">
			<stop stop-color="#EBF2FF"/>
			<stop offset="0.630000" stop-color="#E7EEFF"/>
			<stop offset="1.000000" stop-color="#E1E8FF"/>
		</linearGradient>
		<linearGradient x1="161.863693" y1="123.857475" x2="161.863693" y2="110.386841" id="paint_linear_7_1165_0" gradientUnits="userSpaceOnUse">
			<stop stop-color="#D1DEFF"/>
			<stop offset="1.000000" stop-color="#B2C7FF"/>
		</linearGradient>
		<linearGradient x1="204.011780" y1="114.062599" x2="204.011780" y2="115.666809" id="paint_linear_7_1166_0" gradientUnits="userSpaceOnUse">
			<stop stop-color="#D1DEFF"/>
			<stop offset="1.000000" stop-color="#B2C7FF"/>
		</linearGradient>
		<linearGradient x1="204.011765" y1="118.616455" x2="204.011765" y2="120.220657" id="paint_linear_7_1167_0" gradientUnits="userSpaceOnUse">
			<stop stop-color="#D1DEFF"/>
			<stop offset="1.000000" stop-color="#B2C7FF"/>
		</linearGradient>
		<linearGradient x1="204.011780" y1="123.170174" x2="204.011780" y2="124.774384" id="paint_linear_7_1168_0" gradientUnits="userSpaceOnUse">
			<stop stop-color="#D1DEFF"/>
			<stop offset="1.000000" stop-color="#B2C7FF"/>
		</linearGradient>
		<linearGradient x1="194.543381" y1="127.723885" x2="194.543381" y2="129.327454" id="paint_linear_7_1169_0" gradientUnits="userSpaceOnUse">
			<stop stop-color="#D1DEFF"/>
			<stop offset="1.000000" stop-color="#B2C7FF"/>
		</linearGradient>
		<linearGradient x1="194.543365" y1="132.276962" x2="194.543365" y2="133.881180" id="paint_linear_7_1170_0" gradientUnits="userSpaceOnUse">
			<stop stop-color="#D1DEFF"/>
			<stop offset="1.000000" stop-color="#B2C7FF"/>
		</linearGradient>
		<linearGradient x1="194.543381" y1="136.830811" x2="194.543381" y2="138.435013" id="paint_linear_7_1171_0" gradientUnits="userSpaceOnUse">
			<stop stop-color="#D1DEFF"/>
			<stop offset="1.000000" stop-color="#B2C7FF"/>
		</linearGradient>
		<linearGradient x1="109.084808" y1="55.859024" x2="79.746162" y2="55.859024" id="paint_linear_7_1212_0" gradientUnits="userSpaceOnUse">
			<stop stop-color="#D1DEFF"/>
			<stop offset="1.000000" stop-color="#B2C7FF"/>
		</linearGradient>
		<linearGradient x1="200.987640" y1="189.682938" x2="200.987640" y2="190.678879" id="paint_linear_7_1227_0" gradientUnits="userSpaceOnUse">
			<stop stop-color="#909EFF"/>
			<stop offset="1.000000" stop-color="#6977E3"/>
		</linearGradient>
		<linearGradient x1="200.987640" y1="193.616302" x2="200.987640" y2="196.672333" id="paint_linear_7_1228_0" gradientUnits="userSpaceOnUse">
			<stop stop-color="#909EFF"/>
			<stop offset="1.000000" stop-color="#6977E3"/>
		</linearGradient>
	</defs>
	<rect id="Layer_1" rx="-0.500000" width="273.169098" height="239.000000" transform="translate(0.500000 0.500000)" fill="#FFFFFF" fill-opacity="0"/>
	<g clip-path="url(#clip7_1084)">
		<path id="Vector" d="M252.51 126.3C252.51 129.96 249.54 132.92 245.89 132.92L241.34 132.92L241.34 3.76L245.91 3.76C249.33 3.76 252.15 6.37 252.47 9.72C252.53 10.33 252.49 4.83 252.51 126.3Z" fill="url(#paint_linear_7_1094_0)" fill-opacity="1.000000" fill-rule="nonzero"/>
		<path id="Vector" d="M249.7 10.39L249.7 126.3C249.7 129.96 246.74 132.92 243.08 132.92L121.13 132.92C117.47 132.92 114.51 129.96 114.51 126.3L114.51 10.39C114.51 6.73 117.47 3.77 121.13 3.77L243.08 3.77C246.74 3.77 249.7 6.73 249.7 10.39Z" fill="#FFFFFF" fill-opacity="1.000000" fill-rule="nonzero"/>
		<g opacity="0.030000">
			<path id="Vector" d="M238.91 111.89L238.91 132.92L146.78 132.92L146.78 111.89C146.78 109.4 148.8 107.39 151.29 107.39L234.4 107.39C236.89 107.39 238.91 109.4 238.91 111.89L238.91 111.89Z" fill="#000000" fill-opacity="1.000000" fill-rule="nonzero"/>
		</g>
		<g opacity="0.030000">
			<path id="Vector" d="M248.32 26.05L248.32 97.63L177.78 97.63C175.17 97.63 173.05 95.5 173.05 92.89L173.05 30.78C173.05 28.17 175.17 26.05 177.78 26.05L248.32 26.05Z" fill="#000000" fill-opacity="1.000000" fill-rule="nonzero"/>
		</g>
		<path id="Vector" d="M249.7 10.37L249.7 17.16L114.51 17.16L114.51 10.37C114.51 6.72 117.46 3.76 121.11 3.76L243.1 3.76C246.75 3.76 249.7 6.72 249.7 10.37L249.7 10.37Z" fill="url(#paint_linear_7_1098_0)" fill-opacity="1.000000" fill-rule="nonzero"/>
		<path id="Vector" d="M123.36 10.79C123.36 11.95 122.42 12.89 121.25 12.89C120.09 12.89 119.15 11.95 119.15 10.79C119.15 9.62 120.09 8.68 121.25 8.68C122.41 8.68 123.36 9.62 123.36 10.79Z" fill="#FFFFFF" fill-opacity="1.000000" fill-rule="nonzero"/>
		<path id="Vector" d="M129.09 10.79C129.09 11.95 128.15 12.89 126.98 12.89C125.82 12.89 124.88 11.95 124.88 10.79C124.88 9.62 125.82 8.68 126.98 8.68C128.14 8.68 129.09 9.62 129.09 10.79Z" fill="#FFFFFF" fill-opacity="1.000000" fill-rule="nonzero"/>
		<path id="Vector" d="M134.82 10.79C134.82 11.95 133.88 12.89 132.71 12.89C131.55 12.89 130.61 11.95 130.61 10.79C130.61 9.62 131.55 8.68 132.71 8.68C133.87 8.68 134.82 9.62 134.82 10.79Z" fill="#FFFFFF" fill-opacity="1.000000" fill-rule="nonzero"/>
		<path id="Vector" d="M141.91 41.11L141.91 41.11L141.91 41.12L141.91 41.11Z" fill="url(#paint_linear_7_1104_0)" fill-opacity="1.000000" fill-rule="nonzero"/>
		<path id="Vector" d="M141.91 93.3L141.91 93.3L141.91 93.3L141.91 93.3Z" fill="url(#paint_linear_7_1105_0)" fill-opacity="1.000000" fill-rule="nonzero"/>
		<path id="Vector" d="M136.44 83.01L136.44 51.41L129.03 51.41L129.03 51.41L129.03 51.41L129.03 83.01L129.03 83.01L129.03 83.01L136.44 83.01Z" fill="url(#paint_linear_7_1106_0)" fill-opacity="1.000000" fill-rule="nonzero"/>
		<path id="Vector" d="M147.38 51.41L147.38 83.01L147.38 83.01L154.79 83.01L154.79 51.41L147.38 51.41Z" fill="url(#paint_linear_7_1107_0)" fill-opacity="1.000000" fill-rule="nonzero"/>
		<path id="Vector" d="M147.38 51.41L154.79 51.41L141.91 41.12L147.38 51.41L147.38 51.41Z" fill="url(#paint_linear_7_1108_0)" fill-opacity="1.000000" fill-rule="nonzero"/>
		<path id="Vector" d="M136.45 51.41L141.91 41.11L141.91 41.11L129.03 51.41L136.44 51.41L136.45 51.41Z" fill="url(#paint_linear_7_1109_0)" fill-opacity="1.000000" fill-rule="nonzero"/>
		<path id="Vector" d="M147.38 83.01L147.38 51.41L136.44 51.41L136.44 51.41L136.44 83.01L136.45 83.01L147.38 83.01Z" fill="url(#paint_linear_7_1110_0)" fill-opacity="1.000000" fill-rule="nonzero"/>
		<path id="Vector" d="M147.38 51.41L141.91 41.12L141.91 41.11L136.45 51.41L147.38 51.41Z" fill="url(#paint_linear_7_1111_0)" fill-opacity="1.000000" fill-rule="nonzero"/>
		<path id="Vector" d="M147.38 83.01L141.91 93.3L141.91 93.3L154.79 83.01L147.38 83.01Z" fill="url(#paint_linear_7_1112_0)" fill-opacity="1.000000" fill-rule="nonzero"/>
		<path id="Vector" d="M136.44 83.01L129.03 83.01L141.91 93.3L136.45 83.01L136.44 83.01Z" fill="url(#paint_linear_7_1113_0)" fill-opacity="1.000000" fill-rule="nonzero"/>
		<path id="Vector" d="M136.45 83.01L141.91 93.3L141.91 93.3L147.38 83.01L136.45 83.01Z" fill="url(#paint_linear_7_1114_0)" fill-opacity="1.000000" fill-rule="nonzero"/>
		<path id="Vector" d="M255.76 24.03L249.78 24.03L249.78 95.6L255.76 95.6C258.38 95.6 260.5 93.48 260.5 90.86L260.5 28.76C260.5 26.14 258.38 24.03 255.76 24.03Z" fill="url(#paint_linear_7_1116_0)" fill-opacity="1.000000" fill-rule="nonzero"/>
		<path id="Vector" d="M258.08 28.76L258.08 90.86C258.08 93.48 255.96 95.6 253.34 95.6L179.81 95.6C177.19 95.6 175.07 93.48 175.07 90.86L175.07 28.76C175.07 26.14 177.19 24.03 179.81 24.03L253.34 24.03C255.96 24.03 258.08 26.14 258.08 28.76Z" fill="url(#paint_linear_7_1117_0)" fill-opacity="1.000000" fill-rule="nonzero"/>
		<path id="Vector" d="M180.96 34.21L220.38 34.21L220.38 36.4L180.96 36.4L180.96 34.21Z" fill="#FFFFFF" fill-opacity="1.000000" fill-rule="evenodd"/>
		<path id="Vector" d="M180.96 39.3L192.86 39.3L192.86 41.49L180.96 41.49L180.96 39.3Z" fill="#FFFFFF" fill-opacity="1.000000" fill-rule="evenodd"/>
		<path id="Vector" d="M223.55 39.3L233.37 39.3L233.37 41.49L223.55 41.49L223.55 39.3Z" fill="#FFFFFF" fill-opacity="1.000000" fill-rule="evenodd"/>
		<path id="Vector" d="M237 39.3L252.19 39.3L252.19 41.49L237 41.49L237 39.3Z" fill="#FFFFFF" fill-opacity="1.000000" fill-rule="evenodd"/>
		<path id="Vector" d="M198 39.3L216.14 39.3L216.14 41.49L198 41.49L198 39.3Z" fill="#FFFFFF" fill-opacity="1.000000" fill-rule="evenodd"/>
		<path id="Vector" d="M180.96 44.4L200.42 44.4L200.42 46.59L180.96 46.59L180.96 44.4Z" fill="#FFFFFF" fill-opacity="1.000000" fill-rule="evenodd"/>
		<path id="Vector" d="M205.87 44.4L217.81 44.4L217.81 46.59L205.87 46.59L205.87 44.4Z" fill="#FFFFFF" fill-opacity="1.000000" fill-rule="evenodd"/>
		<path id="Vector" d="M190.24 49.49L202.79 49.49L202.79 51.68L190.24 51.68L190.24 49.49Z" fill="#FFFFFF" fill-opacity="1.000000" fill-rule="evenodd"/>
		<path id="Vector" d="M207.62 49.49L213.28 49.49L213.28 51.68L207.62 51.68L207.62 49.49Z" fill="#FFFFFF" fill-opacity="1.000000" fill-rule="evenodd"/>
		<path id="Vector" d="M216.98 49.49L228.51 49.49L228.51 51.68L216.98 51.68L216.98 49.49Z" fill="#FFFFFF" fill-opacity="1.000000" fill-rule="evenodd"/>
		<path id="Vector" d="M233.45 49.49L239.41 49.49L239.41 51.68L233.45 51.68L233.45 49.49Z" fill="#FFFFFF" fill-opacity="1.000000" fill-rule="evenodd"/>
		<path id="Vector" d="M243.12 49.49L252.19 49.49L252.19 51.68L243.12 51.68L243.12 49.49Z" fill="#FFFFFF" fill-opacity="1.000000" fill-rule="evenodd"/>
		<path id="Vector" d="M191.27 54.59L199.08 54.59L199.08 56.78L191.27 56.78L191.27 54.59Z" fill="#FFFFFF" fill-opacity="1.000000" fill-rule="evenodd"/>
		<path id="Vector" d="M203.82 54.59L217.6 54.59L217.6 56.78L203.82 56.78L203.82 54.59Z" fill="#FFFFFF" fill-opacity="1.000000" fill-rule="evenodd"/>
		<path id="Vector" d="M199.91 59.68L212.36 59.68L212.36 61.87L199.91 61.87L199.91 59.68Z" fill="#FFFFFF" fill-opacity="1.000000" fill-rule="evenodd"/>
		<path id="Vector" d="M190.22 70.78L201.13 70.78L201.13 72.96L190.22 72.96L190.22 70.78Z" fill="#FFFFFF" fill-opacity="1.000000" fill-rule="evenodd"/>
		<path id="Vector" d="M206.12 70.78L211.87 70.78L211.87 72.96L206.12 72.96L206.12 70.78Z" fill="#FFFFFF" fill-opacity="1.000000" fill-rule="evenodd"/>
		<path id="Vector" d="M230.34 70.78L238.08 70.78L238.08 72.96L230.34 72.96L230.34 70.78Z" fill="#FFFFFF" fill-opacity="1.000000" fill-rule="evenodd"/>
		<path id="Vector" d="M241 70.78L250.36 70.78L250.36 72.96L241 72.96L241 70.78Z" fill="#FFFFFF" fill-opacity="1.000000" fill-rule="evenodd"/>
		<path id="Vector" d="M216.6 70.78L226.82 70.78L226.82 72.96L216.6 72.96L216.6 70.78Z" fill="#FFFFFF" fill-opacity="1.000000" fill-rule="evenodd"/>
		<path id="Vector" d="M206.12 75.87L217.46 75.87L217.46 78.06L206.12 78.06L206.12 75.87Z" fill="#FFFFFF" fill-opacity="1.000000" fill-rule="evenodd"/>
		<path id="Vector" d="M229.23 75.87L240.57 75.87L240.57 78.06L229.23 78.06L229.23 75.87Z" fill="#FFFFFF" fill-opacity="1.000000" fill-rule="evenodd"/>
		<path id="Vector" d="M190.22 75.87L201.13 75.87L201.13 78.06L190.22 78.06L190.22 75.87Z" fill="#FFFFFF" fill-opacity="1.000000" fill-rule="evenodd"/>
		<path id="Vector" d="M206.12 80.97L213.33 80.97L213.33 83.16L206.12 83.16L206.12 80.97Z" fill="#FFFFFF" fill-opacity="1.000000" fill-rule="evenodd"/>
		<path id="Vector" d="M242.2 80.97L251.39 80.97L251.39 83.16L242.2 83.16L242.2 80.97Z" fill="#FFFFFF" fill-opacity="1.000000" fill-rule="evenodd"/>
		<path id="Vector" d="M234.38 80.97L240.05 80.97L240.05 83.16L234.38 83.16L234.38 80.97Z" fill="#FFFFFF" fill-opacity="1.000000" fill-rule="evenodd"/>
		<path id="Vector" d="M217.29 80.97L228.63 80.97L228.63 83.16L217.29 83.16L217.29 80.97Z" fill="#FFFFFF" fill-opacity="1.000000" fill-rule="evenodd"/>
		<path id="Vector" d="M190.22 80.97L201.13 80.97L201.13 83.16L190.22 83.16L190.22 80.97Z" fill="#FFFFFF" fill-opacity="1.000000" fill-rule="evenodd"/>
		<path id="Vector" d="M190.22 86.06L201.13 86.06L201.13 88.25L190.22 88.25L190.22 86.06Z" fill="#FFFFFF" fill-opacity="1.000000" fill-rule="evenodd"/>
		<path id="Vector" d="M206.12 86.06L228.28 86.06L228.28 88.25L206.12 88.25L206.12 86.06Z" fill="#FFFFFF" fill-opacity="1.000000" fill-rule="evenodd"/>
		<path id="Vector" d="M231.46 86.06L243.92 86.06L243.92 88.25L231.46 88.25L231.46 86.06Z" fill="#FFFFFF" fill-opacity="1.000000" fill-rule="evenodd"/>
		<path id="Vector" d="M122.07 28.97C122.07 30.45 122.84 31.86 121.34 31.86L121.26 31.86L121.26 32.64L121.34 32.64C122.83 32.64 122.07 34.15 122.07 35.49C122.07 36.64 122.71 37.25 123.93 37.25L124.26 37.25L124.26 36.42L123.96 36.42C123.35 36.42 123.07 36.1 123.07 35.42C123.07 34.45 123.72 32.74 122.48 32.24C123.72 31.74 123.07 30.08 123.07 29.09C123.07 28.4 123.33 28.11 123.96 28.11L124.26 28.11L124.26 27.28L123.93 27.28C122.73 27.28 122.07 27.88 122.07 28.97L122.07 28.97Z" fill="url(#paint_linear_7_1152_0)" fill-opacity="1.000000" fill-rule="nonzero"/>
		<path id="Vector" d="M138.1 31.86C136.6 31.86 137.38 30.45 137.38 28.97C137.38 27.89 136.69 27.28 135.5 27.28L135.18 27.28L135.18 28.11L135.47 28.11C136.1 28.12 136.37 28.41 136.37 29.09C136.37 30.08 135.7 31.73 136.95 32.24C135.7 32.75 136.37 34.46 136.37 35.42C136.37 36.65 135.33 36.38 135.18 36.42L135.18 37.25C135.53 37.2 137.38 37.47 137.38 35.49C137.38 34.15 136.61 32.64 138.1 32.64L138.18 32.64L138.18 31.86L138.1 31.86L138.1 31.86Z" fill="url(#paint_linear_7_1153_0)" fill-opacity="1.000000" fill-rule="nonzero"/>
		<path id="Vector" d="M125.51 29.34L133.92 29.34L133.92 30.29L125.51 30.29L125.51 29.34Z" fill="url(#paint_linear_7_1154_0)" fill-opacity="1.000000" fill-rule="evenodd"/>
		<path id="Vector" d="M125.51 31.49L133.92 31.49L133.92 32.43L125.51 32.43L125.51 31.49Z" fill="url(#paint_linear_7_1155_0)" fill-opacity="1.000000" fill-rule="evenodd"/>
		<path id="Vector" d="M125.51 33.63L128.45 33.63L128.45 34.58L125.51 34.58L125.51 33.63Z" fill="url(#paint_linear_7_1156_0)" fill-opacity="1.000000" fill-rule="evenodd"/>
		<path id="Vector" d="M129.89 33.63L132.42 33.63L132.42 34.58L129.89 34.58L129.89 33.63Z" fill="url(#paint_linear_7_1157_0)" fill-opacity="1.000000" fill-rule="evenodd"/>
		<path id="Vector" d="M154.41 95.95L153.65 98.27L152.66 98.27L155.17 90.89L156.32 90.89L158.84 98.27L157.82 98.27L157.03 95.95L154.41 95.95ZM156.84 95.2C156.11 92.99 156.13 93.3 155.73 91.73L155.71 91.73C155.32 93.27 155.14 93.56 154.61 95.2L156.84 95.2Z" fill="url(#paint_linear_7_1159_0)" fill-opacity="1.000000" fill-rule="nonzero"/>
		<path id="Vector" d="M159.82 98.27C159.9 96.94 159.85 96.25 159.86 90.49L160.82 90.49L160.82 93.82L160.84 93.82C161.18 93.23 161.79 92.85 162.65 92.85C163.96 92.85 164.89 93.94 164.88 95.55C164.88 97.45 163.69 98.39 162.5 98.39C161.74 98.39 161.12 98.1 160.73 97.4L160.7 97.4L160.65 98.27L159.82 98.27ZM160.82 96.15C160.82 96.89 161.42 97.63 162.31 97.63C163.31 97.63 163.92 96.8 163.92 95.59C163.92 94.52 163.37 93.61 162.34 93.61C161.48 93.61 160.82 94.37 160.82 95.19L160.82 96.15L160.82 96.15Z" fill="url(#paint_linear_7_1160_0)" fill-opacity="1.000000" fill-rule="nonzero"/>
		<path id="Vector" d="M169.88 98.07C169.63 98.21 169.07 98.38 168.36 98.38C166.76 98.38 165.72 97.3 165.72 95.67C165.72 94.05 166.83 92.86 168.57 92.86C169.14 92.86 169.64 93 169.9 93.13L169.68 93.88C169.45 93.75 169.09 93.63 168.57 93.63C167.35 93.63 166.69 94.52 166.69 95.63C166.69 96.86 167.48 97.61 168.53 97.61C169.08 97.61 169.44 97.47 169.72 97.35L169.88 98.07Z" fill="url(#paint_linear_7_1161_0)" fill-opacity="1.000000" fill-rule="nonzero"/>
		<path id="Vector" d="M152.86 104.93L235.97 104.93C238.46 104.93 240.48 106.95 240.48 109.43L240.48 138.27C240.48 140.76 238.46 142.77 235.97 142.77L152.86 142.77C150.37 142.77 148.35 140.76 148.35 138.27L148.35 109.43C148.35 106.95 150.37 104.93 152.86 104.93Z" fill="url(#paint_linear_7_1163_0)" fill-opacity="1.000000" fill-rule="evenodd"/>
		<path id="Vector" d="M156.27 110.38L167.44 110.38C168.08 110.38 168.59 110.9 168.59 111.53L168.59 122.7C168.59 123.34 168.08 123.85 167.44 123.85L156.27 123.85C155.64 123.85 155.12 123.34 155.12 122.7L155.12 111.53C155.12 110.9 155.64 110.38 156.27 110.38Z" fill="url(#paint_linear_7_1165_0)" fill-opacity="1.000000" fill-rule="evenodd"/>
		<path id="Vector" d="M174.31 112.92L233.71 112.92L233.71 114.55L174.31 114.55L174.31 112.92Z" fill="url(#paint_linear_7_1166_0)" fill-opacity="1.000000" fill-rule="evenodd"/>
		<path id="Vector" d="M174.31 117.47L233.71 117.47L233.71 119.11L174.31 119.11L174.31 117.47Z" fill="url(#paint_linear_7_1167_0)" fill-opacity="1.000000" fill-rule="evenodd"/>
		<path id="Vector" d="M174.31 122.02L233.71 122.02L233.71 123.66L174.31 123.66L174.31 122.02Z" fill="url(#paint_linear_7_1168_0)" fill-opacity="1.000000" fill-rule="evenodd"/>
		<path id="Vector" d="M155.37 126.58L233.71 126.58L233.71 128.21L155.37 128.21L155.37 126.58Z" fill="url(#paint_linear_7_1169_0)" fill-opacity="1.000000" fill-rule="evenodd"/>
		<path id="Vector" d="M155.37 131.13L233.71 131.13L233.71 132.77L155.37 132.77L155.37 131.13Z" fill="url(#paint_linear_7_1170_0)" fill-opacity="1.000000" fill-rule="evenodd"/>
		<path id="Vector" d="M155.37 135.68L233.71 135.68L233.71 137.32L155.37 137.32L155.37 135.68Z" fill="url(#paint_linear_7_1171_0)" fill-opacity="1.000000" fill-rule="evenodd"/>
		<path id="Vector" d="M229.33 57.85C229.09 57.6 228.75 57.51 228.35 57.66L222.6 60.24C222.19 60.44 221.91 60.8 221.91 61.26L221.91 61.38C221.91 61.85 222.19 62.21 222.61 62.4L228.35 64.98L228.37 64.99C228.7 65.11 229.07 65.06 229.33 64.79C229.78 64.34 229.6 63.59 229.02 63.35L224.45 61.32L229.01 59.3C229.63 59.04 229.77 58.29 229.33 57.85L229.33 57.85Z" fill="#FFFFFF" fill-opacity="1.000000" fill-rule="nonzero"/>
		<path id="Vector" d="M234.32 54.89L230.51 66.05C230.29 66.71 230.75 67.25 231.34 67.25C231.76 67.25 232.07 66.99 232.19 66.64L236 55.49C236.12 55.12 236.04 54.79 235.81 54.55C235.39 54.11 234.54 54.22 234.32 54.89L234.32 54.89Z" fill="#FFFFFF" fill-opacity="1.000000" fill-rule="nonzero"/>
		<path id="Vector" d="M243.88 60.24L238.14 57.66C237.59 57.43 236.91 57.8 236.91 58.47C236.91 58.84 237.16 59.16 237.48 59.29L242.04 61.32L237.48 63.35C236.87 63.6 236.73 64.36 237.16 64.79C237.44 65.07 237.85 65.11 238.14 64.98L243.89 62.4C244.3 62.21 244.58 61.84 244.58 61.38L244.58 61.26C244.58 60.8 244.3 60.44 243.88 60.24Z" fill="#FFFFFF" fill-opacity="1.000000" fill-rule="nonzero"/>
		<path id="Vector" d="M79.96 212.17L71.3 212.08L71.84 203.85L80.2 204.1L80.04 212.1C80.03 212.14 80 212.17 79.96 212.17Z" fill="#FFDAD9" fill-opacity="1.000000" fill-rule="nonzero"/>
		<path id="Vector" d="M71.1 211.83L69.6 218.09C69.34 219.41 70.33 220.65 71.67 220.69C77.2 220.88 88.05 220.69 90.06 220.68C90.22 220.67 90.35 220.55 90.35 220.39C90.44 218.47 89.17 217.26 87.3 216.31L80.07 211.45C80.06 211.44 80.04 211.43 80.03 211.44L71.1 211.83L71.1 211.83Z" fill="#373A50" fill-opacity="1.000000" fill-rule="nonzero"/>
		<path id="Vector" d="M45.27 207.81L38.1 202.96L43.08 196.38L49.92 201.21L45.37 207.79C45.35 207.82 45.3 207.83 45.27 207.81Z" fill="#FFDAD9" fill-opacity="1.000000" fill-rule="nonzero"/>
		<path id="Vector" d="M38.07 202.64L33.37 207.04C32.42 208 32.56 209.57 33.66 210.35C38.17 213.55 47.33 219.38 49.01 220.47C49.15 220.55 49.32 220.52 49.42 220.39C50.55 218.84 50.16 217.12 49.11 215.3L45.76 207.26C45.75 207.25 45.74 207.23 45.73 207.23L38.07 202.64Z" fill="#373A50" fill-opacity="1.000000" fill-rule="nonzero"/>
		<path id="Vector" d="M26.75 168.85L28.2 168.85L28.2 213.9L26.75 213.9L26.75 168.85Z" fill="#373A50" fill-opacity="1.000000" fill-rule="evenodd"/>
		<path id="Vector" d="M54.41 162.69L40.29 198.46L48.07 204.76L66.31 175.91C63.16 168.18 59.81 161.29 54.41 162.69L54.41 162.69Z" fill="#3A4AC3" fill-opacity="1.000000" fill-rule="nonzero"/>
		<path id="Vector" d="M13.41 144.53L11.99 155.93C11.84 161.12 16 165.41 21.2 165.41L57.68 165.41L70.13 208.33C70.27 210.18 81.58 209.28 81.43 207.44C81.43 207.44 77.12 157.67 71.8 153.15C64.77 147.17 36.51 144.75 36.51 144.75L13.41 144.53L13.41 144.53Z" fill="#3A4AC3" fill-opacity="1.000000" fill-rule="nonzero"/>
		<path id="Vector" d="M42.64 96.96C42.42 97.21 42.19 97.86 41.96 98.7C41.24 101.32 40.54 105.82 40.54 105.82L31.65 99.69C34.91 95.02 36.03 91.57 36.03 91.57C36.03 91.57 36.7 91.74 37.63 92.05C40.14 92.89 44.54 94.74 42.64 96.96L42.64 96.96Z" fill="#FFDAD9" fill-opacity="1.000000" fill-rule="nonzero"/>
		<path id="Vector" d="M42.64 96.96C42.42 97.21 42.19 97.86 41.96 98.7C41.96 98.7 37.83 94.63 37.14 93.31C36.94 92.92 37.18 92.49 37.63 92.05C40.14 92.89 44.54 94.74 42.64 96.96L42.64 96.96Z" fill="#FECDCB" fill-opacity="1.000000" fill-rule="nonzero"/>
		<path id="Vector" d="M52.33 90.13C52.33 90.74 50.97 90.86 50.97 90.86C50.97 90.86 50.9 91.86 50.71 93.11C50.49 94.45 50.03 96.71 49.06 97.64C48.21 98.46 39.29 98.03 36.03 91.57L32.95 87.4L35.19 78.95C35.19 78.95 41.3 76.91 46.96 77.01C52.63 77.11 50.94 87.25 50.94 87.25C50.94 87.25 52.33 89.59 52.33 90.13L52.33 90.13Z" fill="#FFDAD9" fill-opacity="1.000000" fill-rule="nonzero"/>
		<path id="Vector" d="M36.03 91.57C36.03 91.57 36.25 90.35 35.68 88.91C35.04 87.3 34.51 86.08 35.16 85.21C36.88 82.93 39.41 87.33 39.41 87.33L40.69 86.98L40.94 79.78C40.94 79.78 51.16 83.33 53.7 79.78C56.24 76.24 55.23 71.3 51.51 72.06C47.79 72.83 42.4 73.04 42.4 73.04C42.4 73.04 32.38 72.03 31.55 76.27C30.71 80.52 28 86.77 36.03 91.57L36.03 91.57Z" fill="#111228" fill-opacity="1.000000" fill-rule="nonzero"/>
		<path id="Vector" d="M83.38 120.61C83.38 120.61 85.37 124.23 84.25 125C81.91 126.6 76.14 125.9 76.14 125.9L78.31 120.61C78.31 120.61 79.32 114.88 80.79 115.48C82.27 116.07 81.75 118.57 81.75 118.57C81.75 118.57 88.8 115.01 89.62 116.28C90.44 117.54 83.38 120.61 83.38 120.61L83.38 120.61Z" fill="#FFDAD9" fill-opacity="1.000000" fill-rule="nonzero"/>
		<path id="Vector" d="M32.15 116.18C35.93 121.7 45.73 137.28 50.58 138.07C54.72 138.74 81.05 126.94 81.05 126.94L78.23 119.8L56.27 125.3C56.27 125.3 46.21 109.82 43.11 106.97C37.61 101.91 27.75 109.79 32.15 116.19L32.15 116.18Z" fill="#EAC250" fill-opacity="1.000000" fill-rule="nonzero"/>
		<path id="Vector" d="M43.33 131.53L44.41 145.64C44.41 146.19 39.55 147.25 33.54 148.28C23.78 149.94 11.99 149.16 11.99 148.28C11.99 148.28 21.02 102.31 32.16 98.23C36.34 96.7 42.16 104.49 43.11 107.67C45.54 115.75 43.33 131.53 43.33 131.53L43.33 131.53Z" fill="#FADF68" fill-opacity="1.000000" fill-rule="nonzero"/>
		<path id="Vector" d="M47 131.64C46.67 136.56 45.85 141.4 44.41 145.64C44.41 146.19 39.55 147.25 33.54 148.28C35.33 145.07 36.1 141.29 35.49 137.66C34.45 131.51 29.97 126.41 28.59 120.33C27.41 115.12 28.21 111.44 31.52 107.25C34.41 108.22 36.13 111.21 37.01 114.12C37.88 117.04 38.21 120.16 39.6 122.87C40.53 124.68 41.88 126.22 43.26 127.71C44.48 129.04 45.73 130.35 47 131.64Z" fill="#EAC250" fill-opacity="1.000000" fill-rule="nonzero"/>
		<path id="Vector" d="M80.59 140.57L77.6 139.03L70.34 139.13L70.66 134.47C70.66 134.47 73.61 131.47 74.97 132.68C76.26 133.84 74.73 134.68 74.59 134.76C74.94 134.68 81.6 134.6 81.58 136.29C81.54 139.88 80.59 140.57 80.59 140.57Z" fill="#FFDAD9" fill-opacity="1.000000" fill-rule="nonzero"/>
		<path id="Vector" d="M29.53 112.22C31.03 118.74 34.42 136.83 38.65 139.34C42.26 141.48 71.08 140.16 71.08 140.16L71.08 133.56L48.63 129.56C48.63 129.56 44.95 111.46 43.12 107.67C39.85 100.94 27.79 104.66 29.53 112.22L29.53 112.22Z" fill="#FADF68" fill-opacity="1.000000" fill-rule="nonzero"/>
		<path id="Vector" d="M10.7 165.4L52.39 165.4C53.27 165.4 53.99 166.11 53.99 167L53.99 168.72C53.99 169.6 53.27 170.32 52.39 170.32L10.7 170.32C9.81 170.32 9.09 169.6 9.09 168.72L9.09 167C9.09 166.11 9.81 165.4 10.7 165.4Z" fill="#B2C7FF" fill-opacity="1.000000" fill-rule="evenodd"/>
		<path id="Vector" d="M12.39 170.05L10.7 170.32C9.82 170.46 9 169.86 8.87 168.98L0.96 118.69C0.82 117.81 1.42 116.99 2.29 116.86L3.99 116.59C4.86 116.45 5.68 117.05 5.82 117.93L13.73 168.22C13.87 169.1 13.27 169.92 12.39 170.05L12.39 170.05Z" fill="#B2C7FF" fill-opacity="1.000000" fill-rule="nonzero"/>
		<path id="Vector" d="M44.13 220.64C43.97 219.74 43.23 219.02 42.29 218.94C35.22 218.33 28.21 213.9 28.21 213.9L26.75 213.9C26.75 213.9 19.74 218.33 12.67 218.94C11.73 219.02 10.98 219.74 10.83 220.64L44.13 220.64Z" fill="#373A50" fill-opacity="1.000000" fill-rule="nonzero"/>
		<path id="Vector" d="M94.41 143.32L71.5 143.32C71.5 142.66 71.77 142.06 72.2 141.64C72.63 141.2 73.22 140.93 73.88 140.93L92.03 140.93C93.35 140.93 94.41 142 94.41 143.32L94.41 143.32Z" fill="#373A50" fill-opacity="1.000000" fill-rule="nonzero"/>
		<path id="Vector" d="M58.33 220.64L69.68 154.67C70.43 150.31 74.17 147.16 78.59 147.16L124.23 147.16C128.64 147.16 132.39 150.31 133.14 154.67L144.49 220.64L146.45 220.64L135.05 154.34C134.14 149.05 129.59 145.22 124.23 145.22L78.59 145.22C73.23 145.22 68.68 149.05 67.77 154.34L56.36 220.64L58.33 220.64L58.33 220.64Z" fill="#373A50" fill-opacity="1.000000" fill-rule="nonzero"/>
		<path id="Vector" d="M134.76 144.54L134.76 145.94C134.76 146.61 134.22 147.16 133.54 147.16L69.27 147.16C68.6 147.16 68.05 146.61 68.05 145.94L68.05 144.54C68.05 143.87 68.6 143.32 69.27 143.32L133.54 143.32C134.22 143.32 134.76 143.87 134.76 144.54Z" fill="#B2C7FF" fill-opacity="1.000000" fill-rule="nonzero"/>
		<path id="Vector" d="M120.02 143.32L108.52 143.32C107.99 143.32 107.55 142.89 107.55 142.35C107.55 141.82 107.99 141.39 108.52 141.39L120.08 141.39C121.72 141.39 123.32 140.7 124.33 139.4C125.38 138.05 125.68 136.33 125.17 134.71L116.08 105.68L117.93 105.1L127.02 134.13C127.71 136.32 127.31 138.63 125.94 140.48C124.57 142.32 122.33 143.32 120.02 143.32Z" fill="#000000" fill-opacity="1.000000" fill-rule="nonzero"/>
		<path id="Vector" d="M119.47 98.07C120.16 96.37 122.76 97.32 122.28 99.09L115.74 123.68C115.71 123.8 115.67 123.92 115.63 124.03C114.95 125.73 112.35 124.79 112.82 123.01L119.36 98.42C119.39 98.3 119.43 98.18 119.47 98.07L119.47 98.07Z" fill="#111228" fill-opacity="1.000000" fill-rule="nonzero"/>
		<path id="Vector" d="M122.72 87.78L111.03 131.74C110.35 134.31 107.72 135.84 105.14 135.16L116.84 91.2C117.52 88.63 120.16 87.1 122.72 87.78Z" fill="#373A50" fill-opacity="1.000000" fill-rule="nonzero"/>
		<path id="Vector" d="M49.97 86.27C49.96 86.87 49.7 87.36 49.39 87.36C49.07 87.35 48.83 86.86 48.84 86.25C48.85 85.65 49.11 85.16 49.42 85.16C49.73 85.17 49.98 85.66 49.97 86.27Z" fill="#111228" fill-opacity="1.000000" fill-rule="nonzero"/>
		<path id="Vector" d="M50.38 84.78C49.67 84.84 49.53 84.62 48.95 84.92C48.8 85 48.63 85.1 48.42 85.16C48.46 84.95 48.54 84.77 48.67 84.6C48.96 84.22 49.45 84.12 49.92 84.37C50.11 84.47 50.26 84.6 50.38 84.78L50.38 84.78Z" fill="#111228" fill-opacity="1.000000" fill-rule="nonzero"/>
		<path id="Vector" d="M50.71 93.11C50.64 93.5 50.57 93.92 50.47 94.34L50.41 94.34C49.72 94.34 49.17 93.79 49.16 93.11L50.71 93.11Z" fill="#FFFFFF" fill-opacity="1.000000" fill-rule="nonzero"/>
		<path id="Vector" d="M105.68 65.25L106.2 68.46C106.26 68.88 105.9 69.25 105.48 69.18L101.73 68.58C99.57 69.81 97.07 70.52 94.42 70.52C86.32 70.52 79.74 63.96 79.74 55.86C79.74 47.76 86.32 41.18 94.42 41.18C102.52 41.18 109.08 47.76 109.08 55.86C109.08 59.43 107.79 62.71 105.68 65.25Z" fill="url(#paint_linear_7_1212_0)" fill-opacity="1.000000" fill-rule="nonzero"/>
		<path id="Vector" d="M103.82 57.58L103.82 54.76L101.76 54.76C101.56 53.74 101.17 52.8 100.61 51.98L102.07 50.52L100.05 48.52L98.6 49.96C97.78 49.4 96.84 49.01 95.83 48.81L95.83 46.76L92.99 46.76L92.99 48.81C91.98 49.01 91.03 49.4 90.21 49.96L88.76 48.52L86.76 50.52L88.21 51.98C87.65 52.8 87.25 53.74 87.06 54.76L85 54.76L85 57.58L87.06 57.58C87.25 58.6 87.65 59.54 88.2 60.36L86.76 61.82L88.76 63.82L90.21 62.38C91.03 62.93 91.98 63.33 92.99 63.52L92.99 65.57L95.82 65.57L95.82 63.52C96.84 63.33 97.78 62.93 98.61 62.38L100.05 63.82L102.07 61.82L100.61 60.36C101.17 59.54 101.57 58.6 101.76 57.58L103.82 57.58ZM94.41 59.77C92.42 59.77 90.81 58.15 90.81 56.17C90.81 54.19 92.42 52.57 94.41 52.57C96.39 52.57 98.01 54.19 98.01 56.17C98.01 58.16 96.4 59.77 94.41 59.77Z" fill="#FFFFFF" fill-opacity="1.000000" fill-rule="nonzero"/>
		<path id="Vector" d="M201.92 190.6C201.92 190.6 216.56 177.77 216.46 175.12C216.36 172.47 210.8 174.29 210.43 172.53C210.07 170.76 218.75 163.64 217.5 162.14C216.25 160.63 212.98 164.73 212.46 162.76C211.94 160.79 218.29 150.67 211.32 150.03C202.42 149.21 206.27 161.06 204.82 161.36C202.97 161.74 200.18 158.61 197.27 161.21C192.14 165.78 201.92 190.6 201.92 190.6L201.92 190.6Z" fill="#3DCFA4" fill-opacity="1.000000" fill-rule="nonzero"/>
		<path id="Vector" d="M202.41 188.59C202.62 186.28 202.93 183.99 203.28 181.7C203.63 179.42 204.03 177.14 204.46 174.87C204.59 174.24 205.37 170.27 205.93 168.09C206.31 166.53 207.06 163.74 207.67 162.26L208.03 161.47L207.79 162.3C207.47 163.48 206.84 166.87 206.58 168.23L205.3 175.03C204.85 177.3 204.41 179.56 203.93 181.82C203.46 184.08 202.97 186.34 202.41 188.59Z" fill="#30BB93" fill-opacity="1.000000" fill-rule="nonzero"/>
		<path id="Vector" d="M205.84 171.65C206.2 170.74 206.9 169.76 207.54 169.01C208.18 168.27 209.05 167.42 209.89 166.93C209.53 167.84 208.82 168.83 208.19 169.57C207.55 170.31 206.68 171.16 205.84 171.65Z" fill="#30BB93" fill-opacity="1.000000" fill-rule="nonzero"/>
		<path id="Vector" d="M203.64 183.24C204.2 182.42 205.1 181.59 205.89 180.99C206.67 180.39 207.72 179.73 208.65 179.42C208.1 180.24 207.19 181.07 206.41 181.67C205.62 182.27 204.58 182.92 203.64 183.24Z" fill="#30BB93" fill-opacity="1.000000" fill-rule="nonzero"/>
		<path id="Vector" d="M203.99 179.64C203.06 178.5 202.08 176.8 201.44 175.53C200.81 174.29 200.01 172.47 199.65 171.03C200.57 172.16 201.56 173.86 202.2 175.15C202.84 176.42 203.63 178.21 203.99 179.65L203.99 179.64Z" fill="#30BB93" fill-opacity="1.000000" fill-rule="nonzero"/>
		<path id="Vector" d="M201.41 190.84C201.41 190.84 202.3 177.42 200.95 176.18C199.61 174.94 197.78 178.54 196.74 177.85C195.7 177.17 196.46 169.46 195.12 169.33C193.78 169.21 194.18 172.81 192.97 172.1C191.75 171.39 189.91 163.35 186.19 166.44C181.45 170.39 189.11 174.29 188.55 175.14C187.84 176.23 184.94 176.07 184.79 178.76C184.52 183.49 201.41 190.84 201.41 190.84Z" fill="#3DCFA4" fill-opacity="1.000000" fill-rule="nonzero"/>
		<path id="Vector" d="M200.66 189.61C199.64 188.38 198.68 187.11 197.73 185.83C196.78 184.54 195.87 183.24 194.97 181.92C193.79 180.11 192.55 178.32 191.18 175.81C190.07 173.68 190.41 174.15 190.17 173.63C190.92 174.93 190.83 174.77 191.43 175.66C191.62 175.96 191.43 175.67 195.46 181.59C196.35 182.91 197.24 184.23 198.11 185.57C198.98 186.9 199.84 188.24 200.66 189.61Z" fill="#30BB93" fill-opacity="1.000000" fill-rule="nonzero"/>
		<path id="Vector" d="M194.07 179.67C193.81 179.05 193.67 178.23 193.62 177.55C193.56 176.88 193.57 176.04 193.74 175.39C194.01 176.01 194.15 176.84 194.2 177.51C194.25 178.18 194.24 179.02 194.07 179.67L194.07 179.67Z" fill="#30BB93" fill-opacity="1.000000" fill-rule="nonzero"/>
		<path id="Vector" d="M198.66 186.4C198.53 185.73 198.57 184.88 198.66 184.21C198.75 183.53 198.93 182.7 199.24 182.09C199.37 182.76 199.33 183.61 199.24 184.29C199.15 184.96 198.96 185.79 198.66 186.4Z" fill="#30BB93" fill-opacity="1.000000" fill-rule="nonzero"/>
		<path id="Vector" d="M197.07 184.47C196.06 184.37 194.75 184.02 193.82 183.71C192.9 183.41 191.63 182.91 190.75 182.39C191.75 182.49 193.06 182.84 194 183.15C194.94 183.46 196.2 183.95 197.07 184.47Z" fill="#30BB93" fill-opacity="1.000000" fill-rule="nonzero"/>
		<path id="Vector" d="M192.94 188.53L209.02 188.53L209.02 191.68L192.94 191.68L192.94 188.53Z" fill="url(#paint_linear_7_1227_0)" fill-opacity="1.000000" fill-rule="evenodd"/>
		<path id="Vector" d="M205.42 201.3L196.54 201.3L194.57 191.68L207.39 191.68L205.42 201.3Z" fill="url(#paint_linear_7_1228_0)" fill-opacity="1.000000" fill-rule="nonzero"/>
	</g>
</svg>
