<svg width="108.000000" height="108.000000" viewBox="0 0 108 108" fill="none" xmlns="http://www.w3.org/2000/svg" xmlns:xlink="http://www.w3.org/1999/xlink">
	<desc>
			Created with Pixso.
	</desc>
	<defs>
		<clipPath id="clip9_4177">
			<rect id="mongodb-icon-2 1" rx="-0.500000" width="107.000000" height="107.000000" transform="translate(0.500000 0.500000)" fill="white" fill-opacity="0"/>
		</clipPath>
	</defs>
	<rect id="mongodb-icon-2 1" rx="-0.500000" width="107.000000" height="107.000000" transform="translate(0.500000 0.500000)" fill="#FFFFFF" fill-opacity="0"/>
	<g clip-path="url(#clip9_4177)">
		<path id="Vector" d="M54.41 8.22L56.46 12.08C56.93 12.8 57.43 13.43 58.01 14.01C59.74 15.72 61.35 17.54 62.84 19.47C66.32 24.04 68.67 29.12 70.34 34.62C71.35 37.97 71.89 41.42 71.94 44.89C72.11 55.3 68.54 64.23 61.35 71.66C60.18 72.83 58.92 73.92 57.57 74.89C56.86 74.89 56.52 74.34 56.23 73.84C55.69 72.9 55.34 71.88 55.18 70.82C54.92 69.55 54.76 68.3 54.84 67L54.84 66.41C54.78 66.28 54.16 8.52 54.41 8.22Z" fill="#599636" fill-opacity="1.000000" fill-rule="nonzero"/>
		<path id="Vector" d="M54.41 8.1C54.33 7.93 54.24 8.05 54.15 8.14C54.2 8.98 53.9 9.73 53.44 10.45C52.93 11.16 52.26 11.71 51.59 12.3C47.86 15.53 44.93 19.43 42.58 23.8C39.44 29.67 37.83 35.96 37.38 42.59C37.17 44.98 38.13 53.41 38.89 55.84C40.95 62.31 44.64 67.72 49.42 72.41C50.6 73.55 51.85 74.6 53.15 75.61C53.53 75.61 53.57 75.27 53.66 75.02C53.82 74.48 53.95 73.94 54.04 73.39L54.88 67.1L54.41 8.1Z" fill="#6CAC48" fill-opacity="1.000000" fill-rule="nonzero"/>
		<path id="Vector" d="M56.46 77.43C56.55 76.47 57.01 75.68 57.51 74.88C57.01 74.67 56.63 74.25 56.34 73.79C56.08 73.35 55.88 72.89 55.71 72.4C55.12 70.64 55 68.79 54.83 66.99L54.83 65.9C54.62 66.07 54.58 67.5 54.58 67.71C54.46 69.62 54.2 71.5 53.82 73.37C53.69 74.13 53.61 74.89 53.15 75.56C53.15 75.64 53.15 75.72 53.19 75.85C53.95 78.07 54.15 80.34 54.28 82.65L54.28 83.49C54.28 84.5 54.23 84.29 55.07 84.62C55.41 84.75 55.79 84.79 56.12 85.04C56.38 85.04 56.42 84.83 56.42 84.66L56.29 83.27L56.29 79.41C56.25 78.74 56.38 78.07 56.46 77.43Z" fill="#C2BFBF" fill-opacity="1.000000" fill-rule="nonzero"/>
		<path id="Vector" d="M20.7 96.18L20.7 98.04C20.7 98.12 20.7 98.19 20.71 98.26C20.74 98.48 20.87 98.62 21.07 98.68C21.26 98.73 21.45 98.77 21.64 98.79C21.75 98.81 21.78 98.85 21.8 98.97C21.81 99.39 21.77 99.44 21.37 99.41C20.42 99.37 19.48 99.35 18.53 99.41L18.44 99.41C18.15 99.43 18.13 99.4 18.13 99.11C18.13 99.06 18.14 98.99 18.14 98.95C18.14 98.86 18.2 98.81 18.28 98.81C18.48 98.79 18.66 98.73 18.85 98.7C19.1 98.64 19.25 98.48 19.28 98.22C19.31 97.94 19.31 97.64 19.31 97.36L19.33 94.07C19.33 93.87 19.23 93.69 19.06 93.6C18.84 93.48 18.6 93.38 18.35 93.3C18.28 93.28 18.21 93.27 18.15 93.23C17.97 93.14 17.96 92.98 18.13 92.89C18.2 92.85 18.27 92.82 18.34 92.81C19.09 92.7 19.82 92.52 20.52 92.26C20.67 92.21 20.71 92.22 20.72 92.37C20.74 92.46 20.72 92.57 20.71 92.65C20.69 92.81 20.69 92.97 20.69 93.12C20.69 93.18 20.7 93.24 20.76 93.28C20.82 93.31 20.89 93.28 20.94 93.24C21.2 93.04 21.46 92.86 21.74 92.7C22.15 92.48 22.58 92.29 23.04 92.22C23.61 92.15 24.1 92.3 24.53 92.66C24.71 92.82 24.87 93 25 93.2C25.12 93.38 25.13 93.39 25.29 93.26C25.76 92.92 26.25 92.62 26.78 92.39C27.33 92.16 27.9 92.12 28.46 92.32C29.04 92.52 29.43 92.93 29.66 93.48C29.86 93.92 29.95 94.38 29.95 94.86L29.95 98.15C29.95 98.37 30.04 98.51 30.26 98.62C30.49 98.7 30.75 98.75 30.99 98.8C31.15 98.84 31.15 98.84 31.15 99C31.13 99.41 31.09 99.43 30.7 99.41C29.71 99.35 28.73 99.35 27.74 99.41C27.54 99.42 27.54 99.42 27.53 99.22L27.53 99.16C27.52 98.83 27.52 98.83 27.84 98.75L28.16 98.66C28.38 98.61 28.54 98.41 28.54 98.18L28.58 97.26L28.55 94.86C28.54 94.64 28.5 94.43 28.42 94.23C28.11 93.48 27.43 93.21 26.78 93.29C26.29 93.34 25.86 93.53 25.46 93.82C25.37 93.88 25.31 93.95 25.32 94.07C25.43 94.86 25.36 95.64 25.37 96.43L25.37 98.13C25.37 98.44 25.49 98.59 25.79 98.66L26.35 98.79C26.44 98.8 26.49 98.84 26.49 98.93L26.49 99.02C26.48 99.37 26.45 99.38 26.11 99.38C25.13 99.33 24.15 99.34 23.18 99.38C22.85 99.39 22.82 99.36 22.83 99.02C22.85 98.82 22.87 98.81 23.05 98.77L23.46 98.7C23.82 98.62 23.95 98.49 23.97 98.11L24.01 97.28L23.99 94.82C23.97 94.51 23.9 94.22 23.73 93.94C23.48 93.48 23.1 93.25 22.58 93.23C22.05 93.19 21.58 93.38 21.14 93.63C20.83 93.81 20.7 94.02 20.72 94.38L20.72 96.17L20.7 96.18ZM43.83 96.25L43.83 97.98C43.83 98.1 43.84 98.23 43.85 98.35C43.86 98.51 43.98 98.66 44.15 98.69C44.36 98.75 44.57 98.79 44.79 98.8C44.92 98.81 44.94 98.86 44.95 98.96L44.95 99.05C44.94 99.48 44.89 99.53 44.47 99.5C43.54 99.44 42.61 99.45 41.68 99.5L41.32 99.52C41.24 99.52 41.23 99.48 41.21 99.43C41.17 99.26 41.17 99.08 41.21 98.91C41.22 98.84 41.27 98.82 41.35 98.8C41.53 98.78 41.68 98.74 41.85 98.71C42.16 98.64 42.27 98.51 42.28 98.2L42.31 97.16L42.31 94.14C42.31 93.92 42.22 93.79 42.03 93.69C41.81 93.56 41.57 93.48 41.33 93.39C41.25 93.37 41.18 93.34 41.12 93.3C40.96 93.19 40.94 93.04 41.1 92.91C41.17 92.85 41.25 92.82 41.35 92.81C42.13 92.69 42.89 92.52 43.63 92.22C43.72 92.19 43.75 92.21 43.79 92.29C43.82 92.36 43.84 92.44 43.82 92.53L43.79 93.11C43.79 93.19 43.75 93.29 43.81 93.32C43.89 93.37 43.93 93.26 44 93.23C44.36 92.93 44.76 92.67 45.19 92.47C45.57 92.29 45.96 92.18 46.4 92.2C47.23 92.25 47.81 92.67 48.19 93.39C48.39 93.77 48.47 94.19 48.51 94.62L48.54 95.52L48.56 98.23C48.57 98.44 48.65 98.58 48.85 98.65C49.07 98.72 49.29 98.77 49.51 98.81C49.71 98.83 49.72 98.87 49.74 99.06L49.74 99.12C49.71 99.54 49.69 99.55 49.27 99.52C48.35 99.48 47.43 99.48 46.52 99.52C46.4 99.54 46.27 99.52 46.16 99.54C46.09 99.54 46.04 99.52 46.03 99.45C46 99.29 45.98 99.13 46.01 98.96C46.03 98.88 46.06 98.85 46.15 98.84L46.71 98.75C46.91 98.7 47.02 98.57 47.04 98.39L47.07 98.05L47.05 95.48C47.05 95.18 47.04 94.89 46.98 94.6C46.83 93.97 46.35 93.52 45.7 93.45C45.14 93.39 44.63 93.54 44.15 93.85C43.92 93.99 43.82 94.2 43.82 94.46L43.82 96.31C43.82 96.28 43.82 96.28 43.84 96.28L43.83 96.25Z" fill="#47474A" fill-opacity="1.000000" fill-rule="nonzero"/>
		<path id="Vector" d="M79.77 92.78C79.64 91.88 79.31 91.09 78.73 90.38C78.23 89.77 77.58 89.29 76.84 88.99C76.06 88.67 75.24 88.57 74.41 88.55C74.06 88.53 69.37 88.61 69.03 88.55C68.94 88.53 68.88 88.56 68.83 88.63C68.77 88.72 68.71 88.82 68.67 88.92C68.53 89.25 68.53 89.22 68.88 89.27C69.17 89.32 69.46 89.35 69.74 89.43C70 89.52 70.18 89.67 70.24 89.95C70.26 90.08 70.29 94.4 70.29 96.41L70.24 97.85C70.23 97.96 70.22 98.07 70.18 98.17C70.13 98.32 70.04 98.44 69.9 98.5C69.73 98.58 69.56 98.62 69.38 98.64C69.05 98.67 69 98.69 68.89 99.06L68.86 99.19C68.83 99.35 68.84 99.38 69 99.38L72.67 99.41L74.11 99.39L75.1 99.27C76.23 99.06 77.24 98.59 78.1 97.84C78.59 97.41 78.99 96.89 79.28 96.3C79.62 95.61 79.77 94.86 79.81 94.1C79.87 93.66 79.85 93.22 79.77 92.78ZM78 94.52C77.95 95.31 77.79 96.07 77.38 96.75C76.87 97.65 76.13 98.28 75.11 98.5C74.67 98.58 74.23 98.63 73.77 98.57C73.44 98.54 73.12 98.5 72.81 98.39C72.26 98.19 72.06 97.85 72.05 97.31L72.04 89.91C72.04 89.47 72.24 89.37 72.55 89.36C73.03 89.32 73.52 89.33 74 89.38C74.51 89.43 75.01 89.55 75.49 89.74C75.84 89.88 76.17 90.08 76.46 90.34C77.12 90.9 77.56 91.61 77.8 92.44C78 93.12 78.04 93.81 78 94.5L78 94.52ZM89.98 95.73C89.98 95.65 89.98 95.59 89.96 95.52C89.85 94.84 89.5 94.33 88.95 93.94C88.59 93.68 88.19 93.51 87.77 93.38C87.69 93.36 87.63 93.34 87.56 93.32C87.57 93.26 87.61 93.25 87.65 93.23C87.9 93.11 88.13 92.98 88.34 92.79C88.72 92.48 88.97 92.08 89.1 91.6C89.17 91.35 89.17 91.09 89.14 90.82C89.1 90.18 88.77 89.59 88.25 89.22C87.68 88.8 87.02 88.63 86.33 88.62C85.01 88.6 83.67 88.62 82.35 88.62C81.97 88.62 81.59 88.64 81.19 88.58C81.12 88.57 81.01 88.55 80.96 88.63C80.87 88.79 80.76 88.95 80.72 89.14C80.71 89.22 80.74 89.27 80.83 89.28L81.68 89.41C82.01 89.45 82.24 89.64 82.27 89.93C82.29 90.14 82.31 90.34 82.31 90.55L82.28 92.84L82.27 97.38C82.27 97.65 82.24 97.91 82.18 98.18C82.16 98.36 82.03 98.5 81.87 98.55C81.62 98.62 81.38 98.69 81.13 98.69C80.99 98.68 80.86 98.77 80.81 98.9C80.76 99.01 80.72 99.13 80.7 99.24C80.68 99.39 80.71 99.44 80.86 99.42C80.97 99.41 85.02 99.51 85.78 99.44C86.24 99.39 86.68 99.33 87.13 99.19C87.9 98.94 88.62 98.59 89.18 97.98C89.65 97.5 89.92 96.9 89.94 96.22C89.98 96.06 89.98 95.9 89.98 95.73ZM84.02 90.69L84.06 89.71C84.06 89.52 84.13 89.44 84.31 89.4C84.61 89.34 84.9 89.37 85.2 89.38C85.49 89.4 85.77 89.44 86.07 89.52C86.61 89.68 87.03 89.99 87.27 90.51C87.38 90.74 87.45 91 87.45 91.26C87.46 91.6 87.43 91.93 87.3 92.26C87.09 92.72 86.76 93.01 86.28 93.1C85.8 93.19 84.44 93.15 84.23 93.15C84.04 93.15 84.03 93.12 84.03 92.94L84.03 91.78C84 91.43 84 91.06 84.02 90.7L84.02 90.69ZM88.01 97.3C87.8 97.85 87.42 98.23 86.88 98.44C86.59 98.55 86.29 98.62 85.98 98.6C85.6 98.58 85.22 98.6 84.84 98.52C84.32 98.41 84.09 97.92 84.05 97.57C83.99 96.94 84.03 96.3 84.02 95.84L84.02 94.22C84.02 94.02 84.04 93.96 84.25 93.96L85.41 93.98L86.19 94.06C86.74 94.19 87.25 94.39 87.64 94.82C87.96 95.17 88.13 95.58 88.17 96.04C88.2 96.46 88.18 96.88 88.02 97.29L88.01 97.3Z" fill="#C2BFBF" fill-opacity="1.000000" fill-rule="nonzero"/>
		<path id="Vector" d="M56.82 93.6L57.14 93.65C57.49 93.66 57.89 93.54 58.01 93.06C58.08 92.83 58.08 92.59 58.01 92.36C57.94 92.36 57.9 92.42 57.87 92.44C57.68 92.59 57.48 92.68 57.26 92.7C56.81 92.75 56.37 92.72 55.94 92.56L55.34 92.36C54.92 92.22 54.48 92.16 54.04 92.18C53.41 92.23 52.83 92.44 52.27 92.74C51.68 93.05 51.27 93.53 51.07 94.18C50.96 94.56 50.94 94.95 50.99 95.35C51.12 96.24 51.58 96.87 52.42 97.2C52.47 97.21 52.51 97.23 52.55 97.25C52.66 97.31 52.68 97.37 52.58 97.46L52.27 97.66L51.53 98.12C51.35 98.23 51.32 98.32 51.38 98.51C51.46 98.74 51.59 98.94 51.78 99.1C51.94 99.25 52.13 99.36 52.34 99.44C52.48 99.51 52.48 99.53 52.36 99.64L51.65 100.15C51.42 100.33 51.19 100.5 50.99 100.74C50.86 100.88 50.76 101.06 50.71 101.25C50.65 101.44 50.65 101.65 50.7 101.84C50.79 102.27 51.01 102.65 51.34 102.94C51.65 103.24 52.04 103.45 52.47 103.56C53.15 103.75 53.86 103.76 54.57 103.63C55.57 103.45 56.45 103 57.14 102.25C57.62 101.74 57.9 101.15 57.93 100.45C57.98 99.61 57.42 98.85 56.6 98.66L55.94 98.54L53.91 98.36C53.69 98.34 53.47 98.31 53.29 98.2C53.05 98.05 52.99 97.77 53.14 97.58C53.25 97.45 53.39 97.36 53.56 97.35L53.95 97.31C54.73 97.24 55.46 96.9 56.03 96.37C56.33 96.09 56.55 95.73 56.65 95.32C56.8 94.8 56.8 94.25 56.67 93.71C56.64 93.57 56.65 93.56 56.82 93.59L56.82 93.6ZM53.82 99.71C53.89 99.73 53.96 99.71 54.04 99.71C54.55 99.74 55.08 99.78 55.58 99.91C55.75 99.96 55.91 100.02 56.06 100.1C56.55 100.37 56.74 100.83 56.68 101.34C56.6 101.89 56.3 102.28 55.82 102.54C55.5 102.72 55.14 102.8 54.77 102.84C54.64 102.85 54.52 102.84 54.38 102.84C53.95 102.85 53.53 102.8 53.13 102.63C52.84 102.52 52.61 102.36 52.4 102.14C51.98 101.71 51.77 100.93 52.42 100.29C52.81 99.92 53.25 99.67 53.82 99.71ZM55.22 95.89C54.96 96.53 54.39 96.73 53.83 96.64C53.32 96.57 52.94 96.29 52.69 95.82C52.37 95.19 52.28 94.54 52.47 93.87C52.61 93.37 52.91 92.99 53.45 92.9C54.14 92.78 54.8 93.02 55.15 93.71C55.33 94.04 55.4 94.45 55.4 95.02C55.39 95.26 55.34 95.58 55.22 95.89ZM39.75 95.05C39.64 94.39 39.4 93.78 38.94 93.28C38.27 92.53 37.41 92.2 36.44 92.2C35.59 92.18 34.79 92.43 34.08 92.87C33.38 93.29 32.87 93.96 32.64 94.75C32.43 95.46 32.44 96.19 32.61 96.91C33.03 98.85 34.53 99.69 36.33 99.56C36.85 99.53 37.36 99.36 37.83 99.12C38.54 98.79 39.06 98.26 39.42 97.57C39.7 96.99 39.82 96.37 39.81 95.67L39.75 95.05ZM38.01 97.77C37.83 98.34 37.34 98.74 36.74 98.81C36.21 98.88 35.7 98.74 35.25 98.43C34.92 98.18 34.66 97.87 34.48 97.5C33.97 96.47 33.89 95.4 34.15 94.29C34.23 93.94 34.41 93.64 34.66 93.39C35.12 92.97 35.65 92.88 36.23 93C36.8 93.12 37.23 93.43 37.58 93.9C37.93 94.36 38.09 94.9 38.19 95.47C38.24 95.75 38.24 96.04 38.25 96.22C38.25 96.82 38.2 97.3 38.02 97.77L38.01 97.77ZM66.57 95.15C66.48 94.44 66.21 93.79 65.71 93.25C65.05 92.52 64.19 92.22 63.23 92.2C62.41 92.19 61.65 92.42 60.95 92.83C60.16 93.3 59.62 93.96 59.41 94.85C59.17 95.83 59.27 96.86 59.71 97.77C60.11 98.63 60.8 99.18 61.71 99.43C62.72 99.7 63.67 99.58 64.61 99.12C65.42 98.73 65.99 98.12 66.33 97.28C66.53 96.79 66.6 96.26 66.61 95.65C66.62 95.54 66.59 95.34 66.57 95.15ZM64.88 97.61C64.68 98.28 64.26 98.71 63.56 98.81C63.05 98.88 62.56 98.76 62.12 98.46C61.74 98.21 61.47 97.86 61.27 97.46C61.05 97.03 60.93 96.57 60.88 96.11C60.8 95.53 60.8 94.96 60.94 94.39C60.97 94.27 61 94.16 61.05 94.05C61.39 93.19 62.15 92.8 63.05 93C63.65 93.14 64.11 93.47 64.45 93.97C64.78 94.46 64.94 95 65.01 95.59C65.05 95.82 65.06 96.07 65.05 96.27C65.05 96.75 65.01 97.2 64.87 97.62L64.88 97.61Z" fill="#47474A" fill-opacity="1.000000" fill-rule="nonzero"/>
	</g>
</svg>
