<svg width="143.296265" height="87.746338" viewBox="0 0 143.296 87.7463" fill="none" xmlns="http://www.w3.org/2000/svg" xmlns:xlink="http://www.w3.org/1999/xlink">
	<desc>
			Created with Pixso.
	</desc>
	<defs>
		<linearGradient x1="2120.419922" y1="628.661804" x2="887.483521" y2="3143.816895" id="paint_linear_9_4160_0" gradientUnits="userSpaceOnUse">
			<stop stop-color="#41873F"/>
			<stop offset="0.328800" stop-color="#418B3D"/>
			<stop offset="0.635200" stop-color="#419637"/>
			<stop offset="0.931900" stop-color="#3FA92D"/>
			<stop offset="1.000000" stop-color="#3FAE2A"/>
		</linearGradient>
		<linearGradient x1="1328.968262" y1="1939.384521" x2="4788.525391" y2="-616.731689" id="paint_linear_9_4166_0" gradientUnits="userSpaceOnUse">
			<stop offset="0.137600" stop-color="#41873F"/>
			<stop offset="0.403200" stop-color="#54A044"/>
			<stop offset="0.713600" stop-color="#66B848"/>
			<stop offset="0.908100" stop-color="#6CC04A"/>
		</linearGradient>
		<linearGradient x1="-1091.532959" y1="18.699951" x2="1431.132568" y2="18.699951" id="paint_linear_9_4172_0" gradientUnits="userSpaceOnUse">
			<stop offset="0.091920" stop-color="#6CC04A"/>
			<stop offset="0.286400" stop-color="#66B848"/>
			<stop offset="0.596800" stop-color="#54A044"/>
			<stop offset="0.862400" stop-color="#41873F"/>
		</linearGradient>
		<linearGradient x1="-92.343506" y1="1760.795166" x2="3063.094727" y2="1760.795166" id="paint_linear_9_4173_0" gradientUnits="userSpaceOnUse">
			<stop offset="0.091920" stop-color="#6CC04A"/>
			<stop offset="0.286400" stop-color="#66B848"/>
			<stop offset="0.596800" stop-color="#54A044"/>
			<stop offset="0.862400" stop-color="#41873F"/>
		</linearGradient>
		<linearGradient x1="-876.045532" y1="54.560608" x2="71.319519" y2="54.560608" id="paint_linear_9_4174_0" gradientUnits="userSpaceOnUse">
			<stop offset="0.091920" stop-color="#6CC04A"/>
			<stop offset="0.286400" stop-color="#66B848"/>
			<stop offset="0.596800" stop-color="#54A044"/>
			<stop offset="0.862400" stop-color="#41873F"/>
		</linearGradient>
		<linearGradient x1="-1548.169434" y1="529.349609" x2="1607.235107" y2="529.349609" id="paint_linear_9_4175_0" gradientUnits="userSpaceOnUse">
			<stop offset="0.091920" stop-color="#6CC04A"/>
			<stop offset="0.286400" stop-color="#66B848"/>
			<stop offset="0.596800" stop-color="#54A044"/>
			<stop offset="0.862400" stop-color="#41873F"/>
		</linearGradient>
		<linearGradient x1="2066.936768" y1="-1984.785278" x2="120.885010" y2="1985.147827" id="paint_linear_9_4176_0" gradientUnits="userSpaceOnUse">
			<stop stop-color="#41873F"/>
			<stop offset="0.328800" stop-color="#418B3D"/>
			<stop offset="0.635200" stop-color="#419637"/>
			<stop offset="0.931900" stop-color="#3FA92D"/>
			<stop offset="1.000000" stop-color="#3FAE2A"/>
		</linearGradient>
	</defs>
	<path id="Vector" d="M70.87 87.74C70.38 87.74 69.93 87.61 69.51 87.39L65.2 84.83C64.55 84.47 64.87 84.34 65.07 84.28C65.94 83.98 66.1 83.92 67.01 83.4C67.11 83.34 67.24 83.37 67.34 83.43L70.64 85.41C70.77 85.47 70.93 85.47 71.03 85.41L83.95 77.93C84.08 77.86 84.15 77.73 84.15 77.57L84.15 62.64C84.15 62.48 84.08 62.35 83.95 62.28L71.03 54.83C70.9 54.77 70.74 54.77 70.64 54.83L57.72 62.28C57.59 62.35 57.52 62.51 57.52 62.64L57.52 77.57C57.52 77.7 57.59 77.86 57.72 77.93L61.25 79.97C63.16 80.94 64.36 79.81 64.36 78.67L64.36 63.93C64.36 63.74 64.52 63.55 64.74 63.55L66.4 63.55C66.59 63.55 66.78 63.71 66.78 63.93L66.78 78.67C66.78 81.23 65.39 82.72 62.96 82.72C62.22 82.72 61.63 82.72 59.98 81.91L56.58 79.97C55.74 79.48 55.22 78.57 55.22 77.6L55.22 62.67C55.22 61.7 55.74 60.79 56.58 60.31L69.51 52.82C70.32 52.37 71.42 52.37 72.23 52.82L85.15 60.31C85.99 60.79 86.51 61.7 86.51 62.67L86.51 77.6C86.51 78.57 85.99 79.48 85.15 79.97L72.23 87.45C71.8 87.64 71.32 87.74 70.87 87.74ZM74.85 77.47C69.18 77.47 68.02 74.88 68.02 72.68C68.02 72.49 68.18 72.29 68.4 72.29L70.09 72.29C70.28 72.29 70.44 72.42 70.44 72.62C70.7 74.33 71.45 75.17 74.88 75.17C77.6 75.17 78.77 74.56 78.77 73.1C78.77 72.26 78.45 71.64 74.2 71.22C70.67 70.87 68.47 70.09 68.47 67.27C68.47 64.65 70.67 63.09 74.36 63.09C78.51 63.09 80.55 64.52 80.81 67.63C80.81 67.72 80.78 67.82 80.71 67.92C80.65 67.98 80.55 68.05 80.45 68.05L78.77 68.05C78.61 68.05 78.45 67.92 78.41 67.76C78.02 65.98 77.02 65.39 74.36 65.39C71.38 65.39 71.03 66.43 71.03 67.21C71.03 68.15 71.45 68.44 75.47 68.95C79.45 69.47 81.33 70.22 81.33 73C81.3 75.85 78.96 77.47 74.85 77.47Z" fill="#539E43" fill-opacity="1.000000" fill-rule="nonzero"/>
	<path id="Vector" d="M30.77 29.34C30.77 28.76 30.44 28.21 29.92 27.92L16.19 20.01C15.96 19.88 15.7 19.82 15.45 19.79L15.32 19.79C15.06 19.79 14.8 19.88 14.57 20.01L0.84 27.92C0.32 28.21 0 28.76 0 29.34L0.03 50.59C0.03 50.88 0.19 51.17 0.45 51.3C0.71 51.46 1.03 51.46 1.26 51.3L9.42 46.64C9.94 46.35 10.26 45.8 10.26 45.21L10.26 35.27C10.26 34.69 10.59 34.13 11.11 33.84L14.57 31.84C14.83 31.67 15.12 31.61 15.41 31.61C15.7 31.61 16 31.67 16.22 31.84L19.69 33.84C20.21 34.13 20.53 34.69 20.53 35.27L20.53 45.21C20.53 45.8 20.85 46.35 21.37 46.64L29.54 51.3C29.79 51.46 30.12 51.46 30.38 51.3C30.64 51.17 30.8 50.88 30.8 50.59L30.77 29.34ZM96.78 0.09C96.52 -0.04 96.2 -0.04 95.97 0.09C95.71 0.25 95.55 0.51 95.55 0.8L95.55 21.86C95.55 22.05 95.45 22.25 95.26 22.38C95.06 22.47 94.87 22.47 94.67 22.38L91.24 20.4C90.99 20.26 90.7 20.18 90.41 20.18C90.12 20.18 89.84 20.26 89.59 20.4L75.85 28.34C75.34 28.63 75.01 29.18 75.01 29.76L75.01 45.6C75.01 46.18 75.34 46.73 75.85 47.03L89.59 54.96C89.84 55.11 90.12 55.18 90.41 55.18C90.7 55.18 90.99 55.11 91.24 54.96L104.97 47.03C105.49 46.73 105.82 46.18 105.82 45.6L105.82 6.12C105.82 5.5 105.49 4.95 104.97 4.66L96.78 0.09ZM95.52 40.39C95.52 40.55 95.45 40.68 95.32 40.74L90.62 43.46C90.56 43.5 90.49 43.51 90.41 43.51C90.34 43.51 90.27 43.5 90.2 43.46L85.51 40.74C85.38 40.68 85.31 40.52 85.31 40.39L85.31 34.94C85.31 34.78 85.38 34.65 85.51 34.59L90.2 31.87C90.27 31.84 90.34 31.82 90.41 31.82C90.49 31.82 90.56 31.84 90.62 31.87L95.32 34.59C95.45 34.65 95.52 34.82 95.52 34.94L95.52 40.39ZM142.48 34.82C143 34.52 143.29 33.97 143.29 33.39L143.29 29.54C143.29 28.95 142.97 28.4 142.48 28.11L128.85 20.21C128.59 20.06 128.31 19.99 128.02 19.99C127.73 19.99 127.45 20.06 127.19 20.21L113.46 28.14C112.94 28.43 112.62 28.98 112.62 29.57L112.62 45.41C112.62 45.99 112.94 46.54 113.46 46.83L127.1 54.61C127.61 54.9 128.23 54.9 128.72 54.61L136.98 50.01C137.23 49.88 137.4 49.59 137.4 49.29C137.4 49 137.23 48.71 136.98 48.58L123.18 40.65C122.92 40.48 122.76 40.22 122.76 39.93L122.76 34.98C122.76 34.69 122.92 34.39 123.18 34.26L127.49 31.8C127.61 31.72 127.76 31.68 127.91 31.68C128.06 31.68 128.2 31.72 128.33 31.8L132.64 34.26C132.89 34.43 133.06 34.69 133.06 34.98L133.06 38.86C133.06 39.16 133.22 39.45 133.48 39.58C133.74 39.74 134.06 39.74 134.32 39.58L142.48 34.82Z" fill="#333333" fill-opacity="1.000000" fill-rule="nonzero"/>
	<path id="Vector" d="M127.81 34.07C127.86 34.04 127.91 34.02 127.97 34.02C128.03 34.02 128.08 34.04 128.13 34.07L130.76 35.59C130.85 35.66 130.92 35.75 130.92 35.88L130.92 38.93C130.92 39.06 130.85 39.16 130.76 39.22L128.13 40.74C128.08 40.77 128.03 40.79 127.97 40.79C127.91 40.79 127.86 40.77 127.81 40.74L125.19 39.22C125.09 39.16 125.02 39.06 125.02 38.93L125.02 35.88C125.02 35.75 125.09 35.66 125.19 35.59L127.81 34.07Z" fill="#539E43" fill-opacity="1.000000" fill-rule="nonzero"/>
	<path id="Vector" d="M53.73 20.27C53.48 20.13 53.19 20.05 52.91 20.05C52.62 20.05 52.33 20.13 52.08 20.27L38.44 28.14C37.92 28.43 37.63 28.98 37.63 29.57L37.63 45.34C37.63 45.92 37.96 46.48 38.44 46.77L52.08 54.64C52.33 54.78 52.62 54.86 52.91 54.86C53.19 54.86 53.48 54.78 53.73 54.64L67.37 46.77C67.89 46.48 68.18 45.92 68.18 45.34L68.18 29.57C68.18 28.98 67.85 28.43 67.37 28.14L53.73 20.27Z" fill="url(#paint_linear_9_4160_0)" fill-opacity="1.000000" fill-rule="nonzero"/>
	<mask id="mask9_4162" mask-type="alpha" maskUnits="userSpaceOnUse" x="37.637939" y="20.058105" width="30.544678" height="34.803223">
		<path id="Vector" d="M53.73 20.27C53.48 20.13 53.19 20.05 52.91 20.05C52.62 20.05 52.33 20.13 52.08 20.27L38.44 28.14C37.92 28.43 37.63 28.98 37.63 29.57L37.63 45.34C37.63 45.92 37.96 46.48 38.44 46.77L52.08 54.64C52.33 54.78 52.62 54.86 52.91 54.86C53.19 54.86 53.48 54.78 53.73 54.64L67.37 46.77C67.89 46.48 68.18 45.92 68.18 45.34L68.18 29.57C68.18 28.98 67.85 28.43 67.37 28.14L53.73 20.27Z" fill="#FFFFFF" fill-opacity="1.000000" fill-rule="nonzero"/>
	</mask>
	<g mask="url(#mask9_4162)">
		<path id="Vector" d="M67.4 28.14L53.7 20.27C53.56 20.2 53.42 20.15 53.28 20.11L37.92 46.41C38.05 46.57 38.21 46.7 38.38 46.8L52.08 54.67C52.47 54.9 52.92 54.96 53.34 54.83L67.76 28.47C67.66 28.34 67.53 28.24 67.4 28.14Z" fill="url(#paint_linear_9_4166_0)" fill-opacity="1.000000" fill-rule="nonzero"/>
	</g>
	<mask id="mask9_4168" mask-type="alpha" maskUnits="userSpaceOnUse" x="37.637939" y="20.058105" width="30.544678" height="34.803223">
		<path id="Vector" d="M53.73 20.27C53.48 20.13 53.19 20.05 52.91 20.05C52.62 20.05 52.33 20.13 52.08 20.27L38.44 28.14C37.92 28.43 37.63 28.98 37.63 29.57L37.63 45.34C37.63 45.92 37.96 46.48 38.44 46.77L52.08 54.64C52.33 54.78 52.62 54.86 52.91 54.86C53.19 54.86 53.48 54.78 53.73 54.64L67.37 46.77C67.89 46.48 68.18 45.92 68.18 45.34L68.18 29.57C68.18 28.98 67.85 28.43 67.37 28.14L53.73 20.27Z" fill="#FFFFFF" fill-opacity="1.000000" fill-rule="nonzero"/>
	</mask>
	<g mask="url(#mask9_4168)">
		<path id="Vector" d="M51.63 17.39L51.43 17.49L51.69 17.49L51.63 17.39Z" fill="url(#paint_linear_9_4172_0)" fill-opacity="1.000000" fill-rule="evenodd"/>
		<path id="Vector" d="M67.43 46.77C67.82 46.54 68.11 46.15 68.24 45.73L53.21 20.08C52.82 20.01 52.4 20.04 52.05 20.27L38.44 28.11L53.12 54.86C53.33 54.83 53.54 54.76 53.73 54.67L67.43 46.77L67.43 46.77Z" fill="url(#paint_linear_9_4173_0)" fill-opacity="1.000000" fill-rule="evenodd"/>
		<path id="Vector" d="M68.7 46.51L68.6 46.35L68.6 46.57L68.7 46.51Z" fill="url(#paint_linear_9_4174_0)" fill-opacity="1.000000" fill-rule="evenodd"/>
		<path id="Vector" d="M67.43 46.77L53.76 54.64C53.57 54.74 53.36 54.8 53.15 54.83L53.41 55.32L68.57 46.54L68.57 46.35L68.18 45.7C68.11 46.15 67.82 46.54 67.43 46.77Z" fill="url(#paint_linear_9_4175_0)" fill-opacity="1.000000" fill-rule="evenodd"/>
		<path id="Vector" d="M67.43 46.77L53.76 54.64C53.57 54.74 53.36 54.8 53.15 54.83L53.41 55.32L68.57 46.54L68.57 46.35L68.18 45.7C68.11 46.15 67.82 46.54 67.43 46.77Z" fill="url(#paint_linear_9_4176_0)" fill-opacity="1.000000" fill-rule="evenodd"/>
	</g>
</svg>
