<svg width="240.282593" height="240.000000" viewBox="0 0 240.283 240" fill="none" xmlns="http://www.w3.org/2000/svg" xmlns:xlink="http://www.w3.org/1999/xlink">
	<desc>
			Created with Pixso.
	</desc>
	<defs>
		<clipPath id="clip2_1059">
			<rect id="layers 1" rx="-0.500000" width="39.000000" height="39.000000" transform="translate(98.641235 157.500000)" fill="white" fill-opacity="0"/>
		</clipPath>
		<linearGradient x1="118.141235" y1="190.921875" x2="118.141235" y2="164.109375" id="paint_linear_2_1063_0" gradientUnits="userSpaceOnUse">
			<stop stop-color="#ADDCFF"/>
			<stop offset="0.502800" stop-color="#EAF6FF"/>
			<stop offset="1.000000" stop-color="#EAF6FF"/>
		</linearGradient>
		<linearGradient x1="118.141235" y1="195.750000" x2="118.141235" y2="158.250000" id="paint_linear_2_1066_0" gradientUnits="userSpaceOnUse">
			<stop stop-color="#5558FF"/>
			<stop offset="1.000000" stop-color="#000072"/>
		</linearGradient>
	</defs>
	<g opacity="0.300000">
		<path id="Vector" d="M237.96 232.33C198.39 242.55 41.88 242.55 2.32 232.33C-1.34 231.39 -0.45 227.15 3.4 227.15L236.87 227.15C240.72 227.15 241.62 231.39 237.96 232.33Z" fill="#000072" fill-opacity="1.000000" fill-rule="nonzero"/>
	</g>
	<path id="Vector" d="M226.88 226.58C222.43 225.71 217.99 225.48 213.54 225.39C209.09 225.27 204.64 225.33 200.2 225.4C195.75 225.45 191.3 225.46 186.85 225.45L173.51 225.45L120.14 225.45L66.76 225.45L40.08 225.45L33.41 225.45C31.18 225.45 28.96 225.38 26.73 225.34C22.29 225.32 17.84 225.37 13.39 226.58C13.08 226.67 12.9 226.99 12.98 227.3C13.04 227.51 13.2 227.66 13.39 227.71C17.84 228.92 22.29 228.98 26.73 228.96C28.96 228.92 31.18 228.84 33.41 228.84L40.08 228.84L66.76 228.84L120.14 228.84L173.51 228.84L186.85 228.84C191.3 228.83 195.75 228.85 200.2 228.9C204.64 228.96 209.09 229.03 213.54 228.91C217.99 228.81 222.43 228.58 226.88 227.71C227.19 227.65 227.4 227.35 227.34 227.04C227.29 226.8 227.1 226.63 226.88 226.58Z" fill="#000072" fill-opacity="1.000000" fill-rule="nonzero"/>
	<path id="Vector" d="M65.12 215.09L64.42 215C44.82 212.67 31.41 194.08 35.37 174.75L42.74 138.87C46.1 122.5 60.51 110.75 77.22 110.75L120.06 110.75L118.85 110.75L161.69 110.75C178.4 110.75 192.81 122.5 196.17 138.87L203.53 174.75C207.5 194.08 194.09 212.67 174.49 215L173.79 215.09L65.12 215.09Z" fill="#4D5A6A" fill-opacity="1.000000" fill-rule="nonzero"/>
	<path id="Vector" d="M65.1 215.36L173.79 215.36L174.52 215.27C183.94 214.15 192.52 209.1 198.07 201.41C203.62 193.72 205.7 183.99 203.8 174.7L196.44 138.82C193.07 122.4 178.45 110.48 161.69 110.48L77.22 110.48C60.46 110.48 45.84 122.4 42.47 138.82L35.11 174.7C33.21 183.99 35.29 193.72 40.84 201.41C46.39 209.1 54.97 214.15 64.39 215.27L65.1 215.36ZM161.69 111.02C178.2 111.02 192.59 122.75 195.91 138.93L203.27 174.81C205.15 183.95 203.09 193.53 197.63 201.1C192.17 208.66 183.73 213.63 174.46 214.74L173.76 214.82L65.14 214.82L64.45 214.74C55.18 213.63 46.74 208.66 41.28 201.1C35.82 193.53 33.76 183.95 35.64 174.81L43 138.93C46.32 122.75 60.71 111.02 77.22 111.02L161.69 111.02Z" fill="#000072" fill-opacity="1.000000" fill-rule="nonzero"/>
	<g opacity="0.300000">
		<path id="Vector" d="M64.42 215.01L65.12 215.09L173.79 215.09L174.49 215.01C187.03 213.52 197.03 205.36 201.58 194.63C196.61 199.1 190.25 202.15 183.05 203.01L182.35 203.09L73.68 203.09L72.98 203.01C53.38 200.68 39.97 182.09 43.94 162.76L51.29 126.88C51.79 124.46 52.53 122.16 53.47 119.97C48.14 124.84 44.28 131.37 42.74 138.87L35.38 174.75C31.41 194.08 44.82 212.68 64.42 215.01Z" fill="#000072" fill-opacity="1.000000" fill-rule="nonzero"/>
	</g>
	<g opacity="0.550000">
		<path id="Vector" d="M59.85 115.33C63.86 113.75 68.22 112.89 72.75 112.89L157.21 112.89C173.92 112.89 188.34 124.64 191.69 141.01L199.06 176.89C202.08 191.64 195 205.95 182.77 212.94C197.69 207.14 206.91 191.21 203.54 174.75L196.17 138.87C192.81 122.5 178.4 110.75 161.69 110.75L77.22 110.75C70.95 110.75 65.01 112.4 59.85 115.33Z" fill="#FFFFFF" fill-opacity="1.000000" fill-rule="nonzero"/>
	</g>
	<path id="Vector" d="M65.12 216.84L173.79 216.84C173.86 216.84 173.93 216.83 174 216.83L174.7 216.74C184.52 215.58 193.48 210.3 199.27 202.28C205.06 194.25 207.24 184.09 205.25 174.4L197.89 138.52C194.38 121.41 179.15 108.99 161.69 108.99L77.22 108.99C59.76 108.99 44.53 121.41 41.02 138.52L33.66 174.4C31.67 184.09 33.85 194.26 39.64 202.28C45.43 210.3 54.39 215.58 64.21 216.74L64.91 216.83C64.98 216.84 65.05 216.84 65.12 216.84ZM173.69 213.34L65.22 213.34L64.62 213.26C55.77 212.21 47.7 207.46 42.48 200.23C37.26 193 35.3 183.84 37.09 175.1L44.45 139.22C47.63 123.74 61.41 112.5 77.22 112.5L161.69 112.5C177.5 112.5 191.28 123.74 194.46 139.22L201.82 175.1C203.61 183.84 201.65 193 196.43 200.23C191.21 207.46 183.14 212.21 174.28 213.26L173.69 213.34Z" fill="#000072" fill-opacity="1.000000" fill-rule="nonzero"/>
	<path id="Vector" d="M57.06 84.24C57.17 84.65 57.28 85.07 57.39 85.47C57.48 85.78 57.57 86.08 57.65 86.39C57.69 86.5 57.72 86.61 57.76 86.73C57.83 86.98 57.91 87.23 57.99 87.48C58.09 87.8 58.19 88.12 58.3 88.43C58.34 88.57 58.39 88.71 58.44 88.85C58.59 89.3 58.75 89.75 58.92 90.19C59.09 90.68 59.28 91.17 59.47 91.65C59.66 92.13 59.86 92.61 60.06 93.09C60.26 93.56 60.47 94.04 60.69 94.51C60.89 94.97 61.1 95.42 61.32 95.86C61.35 95.92 61.37 95.98 61.4 96.04C61.6 96.46 61.81 96.88 62.03 97.29C62.03 97.3 62.04 97.31 62.05 97.32C62.28 97.79 62.52 98.24 62.76 98.69C63.06 99.23 63.35 99.76 63.66 100.29C63.87 100.65 64.09 101.02 64.31 101.38C64.32 101.39 64.32 101.4 64.32 101.41C64.59 101.85 64.87 102.29 65.15 102.73C65.61 103.46 66.09 104.18 66.59 104.9C66.81 105.21 67.03 105.52 67.25 105.83C67.44 106.1 67.62 106.35 67.82 106.62C68.1 107.01 68.39 107.39 68.69 107.78C68.97 108.15 69.26 108.51 69.55 108.88C69.71 109.09 69.88 109.29 70.04 109.49C70.15 109.62 70.25 109.75 70.36 109.88C70.56 110.11 70.75 110.34 70.95 110.58C71.48 111.21 72.03 111.83 72.59 112.45C72.86 112.75 73.14 113.05 73.42 113.35C73.63 113.57 73.83 113.79 74.04 114C74.33 114.31 74.61 114.61 74.91 114.9C75.33 115.32 75.76 115.75 76.2 116.17C76.55 116.51 76.9 116.84 77.25 117.17C77.31 117.22 77.36 117.27 77.41 117.32C77.77 117.66 78.14 117.99 78.51 118.33C79.2 118.94 79.89 119.53 80.6 120.12C80.78 120.27 80.95 120.42 81.13 120.57C81.49 120.86 81.85 121.15 82.22 121.44C83.49 122.45 84.79 123.43 86.12 124.37C86.15 124.39 86.18 124.41 86.2 124.42C91.39 128.08 97.04 130.79 102.9 132.58C104.94 133.19 107 133.7 109.08 134.1C118.29 135.85 127.83 135.39 136.86 132.73C142.94 130.94 148.78 128.15 154.15 124.37C154.57 124.07 154.99 123.77 155.41 123.46C155.45 123.43 155.49 123.4 155.54 123.37C155.95 123.06 156.37 122.75 156.78 122.44C157.2 122.12 157.63 121.78 158.06 121.44L158.06 121.44C158.48 121.11 158.9 120.77 159.31 120.43C159.73 120.08 160.14 119.73 160.55 119.38C160.96 119.03 161.36 118.68 161.76 118.33C162.16 117.96 162.56 117.61 162.95 117.24C163.34 116.88 163.73 116.51 164.11 116.14C164.5 115.77 164.88 115.39 165.25 115.01C165.62 114.63 166 114.26 166.37 113.87C166.73 113.48 167.1 113.09 167.47 112.69C167.82 112.31 168.16 111.92 168.51 111.52C168.78 111.22 169.05 110.91 169.31 110.6C170.07 109.69 170.82 108.77 171.55 107.83C171.84 107.45 172.14 107.06 172.42 106.67C172.46 106.62 172.49 106.57 172.53 106.52C172.73 106.26 172.92 105.99 173.11 105.72C173.54 105.12 173.96 104.51 174.37 103.89C174.59 103.55 174.82 103.21 175.04 102.86C175.37 102.34 175.7 101.82 176.02 101.29C176.24 100.92 176.47 100.54 176.69 100.16C176.99 99.63 177.29 99.08 177.59 98.54C177.81 98.13 178.02 97.72 178.23 97.31C178.45 96.9 178.66 96.48 178.86 96.06C178.89 96 178.92 95.94 178.95 95.88C179.39 94.98 179.8 94.06 180.19 93.14C180.21 93.1 180.23 93.06 180.24 93.02C180.43 92.57 180.62 92.11 180.8 91.65C181 91.17 181.18 90.68 181.36 90.19C181.54 89.71 181.71 89.22 181.88 88.73C182 88.37 182.12 88 182.24 87.63C182.33 87.34 182.42 87.05 182.51 86.75C182.55 86.63 182.59 86.49 182.62 86.36C182.71 86.08 182.79 85.8 182.87 85.51C182.99 85.09 183.1 84.67 183.21 84.24C187.58 53.41 159.54 19.21 131.52 4.55C124.4 0.82 115.87 0.82 108.75 4.55C108.12 4.87 107.49 5.23 106.86 5.59L106.86 5.59C79.48 21.33 52.8 54.1 57.06 84.24Z" fill="#4D5A6A" fill-opacity="1.000000" fill-rule="nonzero"/>
	<g opacity="0.400000">
		<path id="Vector" d="M109.36 134.04C108.57 133.83 107.78 133.62 106.99 133.38C101.13 131.59 95.48 128.88 90.29 125.22C90.26 125.21 90.24 125.19 90.21 125.17C88.88 124.23 87.58 123.26 86.31 122.25C85.94 121.95 85.58 121.66 85.22 121.37C85.04 121.22 84.86 121.07 84.69 120.93C83.98 120.34 83.29 119.74 82.6 119.13C82.23 118.79 81.86 118.46 81.5 118.12C81.45 118.08 81.39 118.02 81.34 117.97C80.99 117.64 80.63 117.31 80.28 116.97C79.85 116.55 79.42 116.12 79 115.7C78.7 115.41 78.42 115.11 78.12 114.8C77.92 114.59 77.71 114.37 77.51 114.15C77.23 113.85 76.95 113.56 76.68 113.25C76.12 112.63 75.57 112.01 75.03 111.38C74.84 111.14 74.64 110.91 74.44 110.68C74.34 110.55 74.23 110.42 74.13 110.29C73.97 110.09 73.8 109.89 73.64 109.68C73.35 109.32 73.06 108.95 72.77 108.58C72.48 108.19 72.19 107.81 71.9 107.42C71.71 107.15 71.52 106.9 71.34 106.63C71.12 106.33 70.89 106.02 70.68 105.7C70.18 104.98 69.7 104.26 69.24 103.53C68.96 103.09 68.68 102.65 68.41 102.21C68.41 102.2 68.41 102.19 68.39 102.18C68.18 101.82 67.96 101.45 67.75 101.09C67.44 100.56 67.14 100.03 66.85 99.49C66.61 99.04 66.37 98.59 66.13 98.13C66.13 98.11 66.12 98.1 66.12 98.09C65.9 97.68 65.69 97.26 65.49 96.84C65.46 96.78 65.43 96.72 65.4 96.67C65.19 96.22 64.98 95.77 64.77 95.31C64.56 94.84 64.35 94.36 64.15 93.89C63.94 93.41 63.75 92.93 63.56 92.45C63.37 91.97 63.18 91.49 63 91C62.83 90.55 62.68 90.1 62.53 89.65C62.48 89.51 62.43 89.37 62.38 89.23C62.28 88.92 62.17 88.6 62.08 88.28C62 88.03 61.92 87.78 61.85 87.53C61.81 87.41 61.78 87.3 61.74 87.19C61.65 86.88 61.57 86.58 61.48 86.27C61.37 85.87 61.26 85.45 61.15 85.04C56.94 55.27 82.92 22.93 109.94 6.98C90.93 24.27 76.55 48.49 79.77 71.21C79.88 71.62 79.99 72.03 80.1 72.44C80.19 72.75 80.27 73.05 80.36 73.35C80.4 73.47 80.42 73.58 80.47 73.7C80.54 73.95 80.62 74.2 80.69 74.44C80.79 74.77 80.9 75.08 81 75.4C81.05 75.54 81.1 75.68 81.14 75.81C81.29 76.27 81.45 76.72 81.62 77.16C81.8 77.65 81.98 78.13 82.18 78.61C82.36 79.1 82.56 79.58 82.77 80.06C82.97 80.53 83.18 81.01 83.39 81.48C83.6 81.93 83.81 82.38 84.02 82.83C84.05 82.89 84.08 82.95 84.11 83.01C84.31 83.43 84.52 83.84 84.73 84.26C84.74 84.27 84.75 84.28 84.75 84.29C84.99 84.75 85.22 85.2 85.47 85.66C85.76 86.19 86.06 86.73 86.37 87.25C86.58 87.62 86.8 87.98 87.01 88.34C87.02 88.35 87.03 88.37 87.03 88.37C87.3 88.82 87.57 89.25 87.85 89.69C88.32 90.42 88.8 91.15 89.3 91.86C89.51 92.18 89.73 92.49 89.96 92.8C90.14 93.06 90.33 93.32 90.52 93.58C90.81 93.97 91.1 94.36 91.39 94.74C91.68 95.12 91.96 95.48 92.26 95.85C92.42 96.05 92.58 96.26 92.75 96.46C92.85 96.58 92.96 96.71 93.06 96.84C93.26 97.07 93.45 97.31 93.65 97.54C94.19 98.17 94.74 98.8 95.3 99.42C95.57 99.72 95.85 100.02 96.13 100.32C96.33 100.53 96.54 100.75 96.74 100.97C97.03 101.27 97.32 101.57 97.62 101.86C98.04 102.29 98.47 102.72 98.9 103.14C99.25 103.48 99.6 103.81 99.96 104.14C100.01 104.19 100.06 104.24 100.12 104.28C100.48 104.63 100.85 104.96 101.22 105.29C101.9 105.9 102.6 106.5 103.31 107.09C103.48 107.24 103.66 107.38 103.84 107.53C104.19 107.83 104.56 108.12 104.92 108.41C106.2 109.42 107.5 110.4 108.83 111.34C108.85 111.35 108.88 111.37 108.91 111.39C114.1 115.04 119.75 117.76 125.61 119.54C127.64 120.16 129.7 120.67 131.78 121.07C131.68 121.05 131.58 121.02 131.48 121C132.74 121.33 134.01 121.62 135.28 121.87C142.91 123.31 150.75 123.24 158.35 121.67C158.44 121.6 158.53 121.53 158.62 121.46C158.2 121.8 157.78 122.12 157.36 122.44C156.95 122.75 156.54 123.06 156.12 123.37C156.08 123.4 156.03 123.43 155.99 123.47C155.57 123.77 155.15 124.07 154.73 124.37C149.37 128.16 143.52 130.94 137.45 132.73C128.41 135.39 118.87 135.85 109.66 134.1C108.57 133.89 107.49 133.65 106.42 133.38C107.39 133.63 108.38 133.85 109.36 134.04Z" fill="#000072" fill-opacity="1.000000" fill-rule="nonzero"/>
	</g>
	<g opacity="0.550000">
		<path id="Vector" d="M96.84 12.49C99 11.03 101.17 9.67 103.35 8.41L103.36 8.41C103.99 8.05 104.61 7.7 105.24 7.37C112.37 3.64 120.9 3.64 128.02 7.37C156.03 22.03 184.07 56.23 179.7 87.07C179.59 87.49 179.48 87.91 179.37 88.33C179.29 88.62 179.21 88.9 179.12 89.19C179.09 89.32 179.04 89.45 179 89.58C178.92 89.87 178.83 90.16 178.73 90.45C178.62 90.82 178.5 91.19 178.37 91.55C178.21 92.04 178.03 92.53 177.85 93.02C177.68 93.51 177.49 93.99 177.3 94.47C177.12 94.93 176.93 95.39 176.74 95.85C176.73 95.89 176.71 95.92 176.68 95.96C176.3 96.88 175.88 97.8 175.44 98.71C175.42 98.77 175.39 98.82 175.35 98.88C175.15 99.3 174.94 99.72 174.73 100.14C174.52 100.55 174.3 100.96 174.09 101.36C173.79 101.91 173.49 102.45 173.19 102.98C172.96 103.36 172.74 103.74 172.52 104.12C172.19 104.65 171.87 105.17 171.53 105.69C171.32 106.03 171.09 106.38 170.86 106.71C170.45 107.33 170.03 107.94 169.6 108.55C169.41 108.82 169.22 109.09 169.02 109.35C168.99 109.39 168.95 109.45 168.91 109.49C168.63 109.89 168.33 110.27 168.04 110.66C167.32 111.6 166.57 112.52 165.81 113.42C165.54 113.73 165.27 114.04 165.01 114.35C164.66 114.74 164.32 115.13 163.97 115.51C163.6 115.91 163.23 116.3 162.86 116.69C162.49 117.08 162.12 117.46 161.75 117.84C161.37 118.22 160.99 118.59 160.61 118.96C160.22 119.33 159.84 119.7 159.45 120.06C159.05 120.43 158.66 120.79 158.25 121.15C157.86 121.51 157.45 121.86 157.05 122.21C156.64 122.56 156.23 122.91 155.81 123.25C155.39 123.59 154.98 123.93 154.56 124.27L154.55 124.27C154.13 124.61 153.7 124.94 153.27 125.27C152.89 125.55 152.51 125.84 152.12 126.13C152.61 125.82 153.09 125.49 153.56 125.15C153.99 124.85 154.41 124.55 154.83 124.25C154.87 124.21 154.91 124.18 154.95 124.15C155.37 123.84 155.78 123.53 156.19 123.22C156.62 122.9 157.05 122.56 157.47 122.22L157.48 122.22C157.9 121.89 158.31 121.55 158.73 121.21C159.15 120.86 159.56 120.51 159.97 120.16C160.37 119.81 160.78 119.46 161.17 119.11C161.58 118.74 161.97 118.39 162.37 118.02C162.76 117.66 163.14 117.29 163.53 116.92C163.91 116.55 164.29 116.17 164.67 115.8C165.04 115.42 165.41 115.04 165.78 114.65C166.15 114.26 166.52 113.87 166.89 113.47C167.24 113.09 167.58 112.7 167.93 112.3C168.19 112 168.46 111.69 168.73 111.38C169.49 110.47 170.24 109.55 170.96 108.61C171.25 108.23 171.55 107.84 171.83 107.45C171.87 107.4 171.91 107.35 171.94 107.3C172.14 107.04 172.33 106.77 172.52 106.5C172.95 105.9 173.37 105.29 173.78 104.67C174.01 104.33 174.24 103.99 174.45 103.64C174.79 103.12 175.11 102.6 175.44 102.07C175.66 101.7 175.89 101.32 176.11 100.94C176.41 100.41 176.71 99.86 177.01 99.32C177.22 98.91 177.44 98.5 177.65 98.09C177.86 97.68 178.08 97.26 178.27 96.84C178.31 96.78 178.34 96.72 178.36 96.66C178.81 95.76 179.22 94.84 179.61 93.92C179.63 93.88 179.65 93.84 179.66 93.8C179.85 93.35 180.04 92.89 180.22 92.43C180.41 91.95 180.6 91.47 180.77 90.97C180.95 90.49 181.13 90 181.29 89.51C181.42 89.15 181.54 88.78 181.65 88.41C181.75 88.12 181.84 87.83 181.92 87.53C181.96 87.41 182.01 87.27 182.04 87.14C182.13 86.86 182.21 86.58 182.29 86.29C182.4 85.87 182.51 85.45 182.62 85.02C186.99 54.19 158.95 19.99 130.94 5.33C123.82 1.59 115.29 1.59 108.16 5.33C107.53 5.65 106.91 6 106.28 6.37L106.27 6.37C103.1 8.19 99.94 10.24 96.84 12.49Z" fill="#FFFFFF" fill-opacity="1.000000" fill-rule="nonzero"/>
	</g>
	<path id="Vector" d="M120.14 136.88C132.41 136.88 144.69 133.19 155.16 125.8C155.59 125.5 156.01 125.19 156.44 124.88C156.46 124.87 156.48 124.85 156.5 124.84C156.53 124.82 156.56 124.8 156.59 124.78C157.03 124.45 157.43 124.14 157.83 123.84C158.25 123.52 158.66 123.2 159.06 122.88C159.1 122.86 159.13 122.84 159.16 122.81C159.57 122.48 159.98 122.15 160.38 121.82C160.85 121.43 161.27 121.07 161.69 120.71C162.11 120.35 162.52 119.99 162.93 119.63L162.99 119.58C163.38 119.22 163.77 118.88 164.15 118.52C164.54 118.15 164.94 117.78 165.33 117.39C165.72 117.02 166.11 116.64 166.5 116.24C166.89 115.84 167.27 115.46 167.63 115.08C168.01 114.68 168.38 114.28 168.75 113.88C169.13 113.47 169.48 113.08 169.83 112.67C170.1 112.37 170.38 112.05 170.65 111.73C171.45 110.78 172.22 109.83 172.93 108.9L173.13 108.65C173.36 108.34 173.58 108.04 173.8 107.74C173.85 107.69 173.88 107.64 173.92 107.59C174.14 107.3 174.34 107.01 174.54 106.72C175.01 106.07 175.44 105.45 175.83 104.86C176.06 104.51 176.3 104.15 176.52 103.79C176.86 103.27 177.19 102.74 177.52 102.2L177.72 101.85C177.88 101.58 178.05 101.31 178.2 101.04C178.5 100.51 178.79 99.99 179.08 99.47L179.13 99.38C179.36 98.94 179.58 98.53 179.79 98.11C180 97.71 180.21 97.29 180.41 96.87C180.46 96.78 180.51 96.69 180.54 96.6C181.01 95.63 181.42 94.74 181.77 93.89C181.81 93.82 181.85 93.74 181.88 93.64C182.07 93.19 182.25 92.74 182.43 92.29C182.63 91.8 182.82 91.3 183.01 90.78C183.19 90.3 183.37 89.79 183.54 89.28C183.66 88.92 183.79 88.54 183.91 88.16C184 87.86 184.09 87.56 184.19 87.26C184.23 87.13 184.27 86.98 184.31 86.83C184.39 86.57 184.48 86.27 184.56 85.96C184.68 85.55 184.79 85.12 184.9 84.68C184.92 84.62 184.93 84.55 184.94 84.49C187.59 65.82 178.79 48.54 170.95 37.33C161.03 23.16 146.96 10.65 132.34 3C124.7 -1.01 115.58 -1.01 107.94 3C93.31 10.65 79.24 23.16 69.33 37.33C61.48 48.54 52.68 65.82 55.33 84.49C55.34 84.55 55.35 84.62 55.37 84.68C55.48 85.1 55.59 85.52 55.7 85.93L56 86.98C56.03 87.07 56.06 87.16 56.09 87.25C56.14 87.44 56.2 87.62 56.25 87.8L56.31 88C56.41 88.31 56.51 88.61 56.61 88.91L56.63 88.98C56.68 89.13 56.73 89.28 56.78 89.42C56.94 89.88 57.1 90.35 57.28 90.82C57.45 91.3 57.64 91.8 57.85 92.3C58.03 92.78 58.24 93.28 58.45 93.78C58.65 94.26 58.87 94.76 59.1 95.25C59.3 95.7 59.51 96.16 59.74 96.62L59.84 96.83C60.03 97.23 60.25 97.66 60.48 98.1C60.72 98.59 60.97 99.05 61.22 99.52C61.53 100.08 61.83 100.63 62.15 101.17C62.36 101.53 62.58 101.9 62.8 102.28C62.8 102.28 62.81 102.28 62.81 102.29C62.81 102.3 62.82 102.31 62.83 102.31C63.1 102.77 63.38 103.22 63.67 103.67C64.19 104.47 64.67 105.2 65.15 105.9C65.37 106.22 65.6 106.54 65.83 106.85C66.01 107.12 66.21 107.38 66.4 107.65C66.69 108.05 66.99 108.44 67.29 108.84C67.59 109.23 67.88 109.6 68.18 109.97C68.35 110.19 68.52 110.4 68.69 110.6L69.61 111.71C70.16 112.36 70.73 113 71.29 113.63C71.55 113.92 71.84 114.22 72.12 114.53L72.76 115.21C73.08 115.54 73.38 115.85 73.69 116.15C74.09 116.56 74.53 117 74.98 117.43C75.33 117.77 75.68 118.11 76.04 118.44C76.11 118.5 76.18 118.57 76.25 118.62C76.61 118.97 76.98 119.3 77.35 119.63C78.08 120.28 78.79 120.9 79.48 121.47L80 121.91C80.38 122.22 80.75 122.52 81.13 122.82C82.42 123.84 83.76 124.84 85.11 125.8C85.12 125.81 85.16 125.83 85.18 125.85C85.18 125.85 85.19 125.85 85.19 125.86C95.65 133.21 107.89 136.88 120.14 136.88ZM154.34 122.08C153.94 122.37 153.54 122.66 153.14 122.94C133.43 136.84 106.94 136.86 87.21 122.99L87.21 122.99C87.18 122.97 87.15 122.95 87.13 122.94C85.83 122.02 84.55 121.06 83.31 120.07C82.95 119.79 82.59 119.5 82.24 119.21L81.72 118.78C81.06 118.23 80.38 117.64 79.68 117.02C79.32 116.7 78.97 116.38 78.62 116.05C78.59 116.02 78.56 115.99 78.53 115.96L78.49 115.93C78.47 115.91 78.46 115.9 78.44 115.88C78.09 115.56 77.75 115.24 77.41 114.91C76.99 114.5 76.57 114.09 76.16 113.67C75.86 113.37 75.59 113.09 75.31 112.8L74.7 112.15C74.41 111.85 74.16 111.57 73.91 111.29C73.35 110.67 72.81 110.06 72.28 109.44L71.4 108.38C71.24 108.18 71.08 107.99 70.92 107.79C70.64 107.43 70.36 107.08 70.08 106.71C69.8 106.34 69.51 105.97 69.23 105.58C69.04 105.33 68.86 105.07 68.68 104.82C68.46 104.51 68.24 104.21 68.03 103.91C67.57 103.24 67.11 102.55 66.62 101.78C66.35 101.36 66.08 100.93 65.82 100.5C65.82 100.49 65.81 100.49 65.81 100.48C65.6 100.13 65.39 99.77 65.18 99.42C64.87 98.89 64.59 98.37 64.3 97.85C64.07 97.42 63.84 96.98 63.61 96.53C63.61 96.53 63.59 96.49 63.58 96.48C63.38 96.09 63.18 95.69 62.99 95.29L62.88 95.08C62.69 94.67 62.48 94.24 62.28 93.79C62.07 93.33 61.87 92.87 61.68 92.41C61.48 91.94 61.29 91.48 61.11 91.02C60.91 90.54 60.73 90.07 60.57 89.6C60.39 89.15 60.24 88.72 60.1 88.29L59.94 87.81C59.84 87.53 59.75 87.25 59.66 86.96L59.6 86.75C59.55 86.59 59.49 86.43 59.45 86.26C59.44 86.22 59.43 86.19 59.41 86.15C59.4 86.1 59.38 86.05 59.37 86.01L59.08 84.99C58.98 84.64 58.88 84.27 58.79 83.9C56.88 70.24 61.64 54.41 72.2 39.34C81.8 25.62 95.42 13.5 109.56 6.1C116.18 2.63 124.09 2.63 130.71 6.1C144.85 13.5 158.47 25.62 168.07 39.34C178.63 54.41 183.39 70.24 181.49 83.9C181.39 84.28 181.29 84.66 181.18 85.04C181.11 85.33 181.03 85.59 180.95 85.85C180.91 86.01 180.87 86.12 180.84 86.23C180.75 86.53 180.66 86.82 180.57 87.1C180.46 87.46 180.34 87.81 180.22 88.17C180.06 88.64 179.89 89.12 179.72 89.58C179.54 90.07 179.36 90.54 179.18 90.99C179 91.46 178.81 91.9 178.63 92.34C178.62 92.35 178.62 92.35 178.62 92.36C178.6 92.4 178.59 92.43 178.57 92.46C178.23 93.29 177.83 94.16 177.37 95.12C177.36 95.14 177.35 95.17 177.34 95.19C177.31 95.23 177.29 95.27 177.27 95.31C177.08 95.71 176.88 96.11 176.68 96.5C176.47 96.92 176.25 97.32 176.04 97.72L176.01 97.78C175.73 98.29 175.45 98.79 175.17 99.29C175.03 99.53 174.87 99.8 174.72 100.06L174.51 100.4C174.21 100.9 173.89 101.41 173.56 101.92C173.35 102.26 173.13 102.59 172.91 102.91C172.54 103.48 172.13 104.07 171.68 104.71C171.49 104.97 171.31 105.22 171.13 105.47C171.12 105.48 171.09 105.53 171.08 105.54L171.1 105.51C171.06 105.56 171.03 105.6 170.99 105.65C170.78 105.94 170.56 106.23 170.34 106.52L170.15 106.77C169.47 107.65 168.74 108.56 167.97 109.47C167.72 109.77 167.46 110.07 167.2 110.36C166.85 110.76 166.51 111.14 166.17 111.51C165.82 111.89 165.45 112.28 165.09 112.67C164.74 113.03 164.38 113.4 164.02 113.76C163.64 114.15 163.27 114.51 162.9 114.87C162.52 115.24 162.14 115.6 161.76 115.95C161.38 116.31 161.02 116.64 160.64 116.97L160.59 117.02C160.2 117.37 159.81 117.71 159.41 118.05C159.01 118.39 158.61 118.74 158.2 119.07C157.79 119.4 157.42 119.71 157.05 120.01C157.02 120.03 156.99 120.05 156.97 120.07C156.55 120.4 156.13 120.73 155.71 121.05C155.33 121.34 154.93 121.64 154.54 121.93C154.47 121.98 154.4 122.03 154.34 122.08ZM78.48 115.93C78.49 115.93 78.49 115.94 78.5 115.94C78.49 115.94 78.49 115.93 78.48 115.93ZM178.56 92.54C178.56 92.54 178.56 92.54 178.56 92.55C178.56 92.54 178.56 92.54 178.56 92.54ZM178.66 92.28C178.66 92.28 178.66 92.28 178.66 92.28C178.66 92.28 178.66 92.28 178.66 92.28Z" fill="#000072" fill-opacity="1.000000" fill-rule="nonzero"/>
	<path id="Vector" d="M71.06 93.09C71.17 93.42 71.28 93.75 71.41 94.1C74.65 102.41 81.02 106.85 84.88 101.83L82.58 90.53L81.01 82.85C75 78.74 66.97 80.59 71.06 93.09Z" fill="#FDBD91" fill-opacity="1.000000" fill-rule="nonzero"/>
	<path id="Vector" d="M81.02 104.15C82.55 104.15 83.93 103.4 85.04 101.96L85.1 101.88L81.2 82.73L81.13 82.68C77.85 80.43 74.15 80.05 71.93 81.71C70.49 82.79 68.43 85.72 70.86 93.16C70.97 93.49 71.09 93.82 71.21 94.17C73.38 99.73 76.96 103.62 80.33 104.1C80.56 104.14 80.79 104.15 81.02 104.15ZM84.65 101.78C83.48 103.26 82.01 103.92 80.39 103.69C77.16 103.23 73.72 99.44 71.6 94.02C71.48 93.69 71.37 93.35 71.26 93.03C69.52 87.7 69.85 83.8 72.18 82.04C74.24 80.5 77.71 80.87 80.82 82.98L84.65 101.78Z" fill="#000072" fill-opacity="1.000000" fill-rule="nonzero"/>
	<g opacity="0.300000">
		<path id="Vector" d="M71.06 93.09C71.17 93.42 71.28 93.75 71.41 94.1C74.65 102.41 81.02 106.85 84.88 101.83L82.58 90.53C82.04 90.49 81.72 90.46 81.72 90.46C79.38 97.78 75.98 98.43 71.52 92.41C71.52 92.41 71.35 92.66 71.06 93.09Z" fill="#000072" fill-opacity="1.000000" fill-rule="nonzero"/>
	</g>
	<path id="Vector" d="M81.01 105.35C82.91 105.35 84.66 104.42 85.99 102.68C86.24 102.36 86.34 101.95 86.26 101.55L82.39 82.57C82.32 82.21 82.11 81.9 81.81 81.69C78.05 79.13 73.77 78.77 71.14 80.81C69.38 82.17 66.9 85.78 70.08 94.57C72.45 100.65 76.31 104.74 80.16 105.29C80.45 105.33 80.73 105.35 81.01 105.35ZM83.36 101.44C82.54 102.31 81.61 102.65 80.56 102.5C77.8 102.11 74.65 98.53 72.72 93.58C70.85 88.41 70.89 84.56 72.86 83.03C74.4 81.84 77.18 82.13 79.75 83.71L83.36 101.44Z" fill="#000072" fill-opacity="1.000000" fill-rule="nonzero"/>
	<path id="Vector" d="M169.2 93.09C169.09 93.42 168.98 93.75 168.85 94.1C165.61 102.41 159.24 106.85 155.38 101.83L157.68 90.53L159.25 82.85C165.27 78.74 173.29 80.59 169.2 93.09Z" fill="#FDBD91" fill-opacity="1.000000" fill-rule="nonzero"/>
	<path id="Vector" d="M159.24 104.24C159.47 104.24 159.71 104.22 159.94 104.19C163.34 103.7 166.95 99.78 169.13 94.2C169.25 93.85 169.37 93.51 169.48 93.18L169.48 93.18C171.93 85.7 169.84 82.74 168.38 81.64C166.13 79.96 162.4 80.35 159.08 82.61L158.99 82.68L155.07 101.9L155.15 102.01C156.28 103.48 157.68 104.24 159.24 104.24ZM168.92 93C168.82 93.33 168.7 93.66 168.58 94C166.48 99.38 163.06 103.15 159.86 103.61C158.26 103.84 156.86 103.21 155.7 101.75L159.51 83.03C162.59 80.96 166.01 80.59 168.03 82.11C170.34 83.84 170.65 87.71 168.92 93Z" fill="#000072" fill-opacity="1.000000" fill-rule="nonzero"/>
	<g opacity="0.550000">
		<path id="Vector" d="M160.58 103.81C163.55 102.81 166.62 99.22 168.57 94.23C168.69 93.89 168.81 93.56 168.92 93.23C173.01 80.72 164.98 78.88 158.97 82.99L158.94 83.13C164.38 81.07 169.87 83.93 166.34 94.72C166.23 95.04 166.12 95.38 166 95.72C164.61 99.27 162.66 102.11 160.58 103.81Z" fill="#FFFFFF" fill-opacity="1.000000" fill-rule="nonzero"/>
	</g>
	<path id="Vector" d="M159.25 105.35C159.53 105.35 159.81 105.33 160.1 105.29C163.95 104.74 167.81 100.65 170.16 94.61C173.36 85.78 170.88 82.17 169.12 80.81C166.49 78.77 162.21 79.13 158.46 81.69C158.15 81.9 157.94 82.21 157.87 82.57L154 101.55C153.92 101.95 154.02 102.36 154.27 102.68C155.61 104.42 157.35 105.35 159.25 105.35ZM164.96 82.3C165.92 82.3 166.76 82.54 167.4 83.03C169.37 84.56 169.42 88.41 167.53 93.62C165.62 98.53 162.47 102.11 159.7 102.51C158.65 102.65 157.72 102.31 156.9 101.44L160.51 83.71C162.02 82.78 163.6 82.3 164.96 82.3Z" fill="#000072" fill-opacity="1.000000" fill-rule="nonzero"/>
	<path id="Vector" d="M81.86 90.82L81.86 97.31C81.86 108.48 87.21 119.08 96.41 125.4C96.55 125.49 96.68 125.58 96.8 125.66C110.85 135.08 129.23 135.08 143.28 125.67C143.4 125.58 143.53 125.49 143.67 125.4C152.88 119.08 158.23 108.49 158.23 97.31L158.23 90.82C158.23 90.82 158.2 90.4 158.15 89.65C157.81 83.72 156.24 57.13 155.99 56.45C147.63 33.94 64.05 39.46 81.86 90.82Z" fill="#FDBD91" fill-opacity="1.000000" fill-rule="nonzero"/>
	<path id="Vector" d="M120.05 133.05C128.19 133.05 136.33 130.67 143.44 125.91C143.56 125.83 143.67 125.75 143.79 125.67C153.03 119.33 158.52 108.74 158.52 97.31L158.52 90.82C158.52 90.8 158.49 90.38 158.45 89.63C157.87 79.85 156.52 57.04 156.26 56.34C154.06 50.44 146.63 46.06 135.85 44.34C125.45 42.67 113.33 43.8 103.44 47.35C93.56 50.9 71.67 62.24 81.57 90.87L81.57 97.31C81.57 108.74 87.06 119.33 96.25 125.64L96.4 125.74C96.48 125.8 96.56 125.85 96.64 125.9C103.75 130.67 111.9 133.05 120.05 133.05ZM125.99 44.17C129.33 44.17 132.62 44.41 135.76 44.91C146.32 46.6 153.59 50.84 155.71 56.55C155.91 57.3 157 74.86 157.86 89.67C157.91 90.42 157.93 90.83 157.93 90.83L157.93 97.31C157.93 108.55 152.54 118.96 143.5 125.16C143.34 125.27 143.22 125.35 143.11 125.43C129.1 134.82 110.98 134.82 96.97 125.42C96.89 125.37 96.81 125.31 96.72 125.26L96.58 125.16C87.55 118.96 82.15 108.54 82.15 97.31L82.14 90.72C72.37 62.55 93.92 51.39 103.64 47.9C110.46 45.45 118.35 44.17 125.99 44.17Z" fill="#000072" fill-opacity="1.000000" fill-rule="nonzero"/>
	<g opacity="0.300000">
		<path id="Vector" d="M81.86 90.82L81.86 97.31C81.86 108.48 87.21 119.08 96.41 125.4C96.55 125.49 96.68 125.58 96.8 125.66C110.85 135.08 129.23 135.08 143.28 125.67C143.4 125.58 143.53 125.49 143.67 125.4C143.96 125.2 144.25 124.99 144.53 124.78C131.32 131.21 115.48 130.25 103.05 121.92C102.92 121.83 102.79 121.74 102.66 121.65C93.45 115.33 88.11 104.73 88.11 93.56L87.55 85.38C81.51 67.95 87.69 57.5 98.1 49.93C83.94 56.91 74.7 70.15 81.86 90.82Z" fill="#000072" fill-opacity="1.000000" fill-rule="nonzero"/>
	</g>
	<g opacity="0.300000">
		<path id="Vector" d="M81.86 90.82L81.86 93.45C86.06 87.27 86.87 70.39 86.87 70.39C90.54 74.38 111.16 78.97 125.62 71.29C126.4 70.87 127.26 71.7 126.87 72.49C126.69 72.85 126.62 72.97 126.62 72.97C128.52 74.15 137.49 73 142.35 70.17C143.7 69.38 145.43 70.24 145.67 71.78C146.76 78.73 150.22 83.57 157.63 90.82C157.81 90.43 157.99 90.04 158.16 89.65C157.81 83.72 156.24 57.13 155.99 56.45C147.63 33.94 64.05 39.46 81.86 90.82Z" fill="#000072" fill-opacity="1.000000" fill-rule="nonzero"/>
	</g>
	<g opacity="0.550000">
		<path id="Vector" d="M104.2 129.61C116.9 134.81 131.59 133.5 143.28 125.67C143.4 125.58 143.53 125.49 143.67 125.4C152.88 119.08 158.23 108.49 158.23 97.31L158.23 90.82C158.23 90.82 156.27 57.21 155.99 56.45C154.23 51.72 149.15 48.23 142.39 46.14C147.48 48.26 151.21 51.33 152.67 55.25C152.95 56.01 154.91 89.62 154.91 89.62L154.91 96.11C154.91 107.29 149.56 117.88 140.35 124.21C140.22 124.29 140.07 124.36 139.96 124.47C130.84 132.73 116.08 133.34 104.2 129.61Z" fill="#FFFFFF" fill-opacity="1.000000" fill-rule="nonzero"/>
	</g>
	<path id="Vector" d="M120.04 134.17C128.4 134.17 136.76 131.73 144.06 126.84C144.19 126.75 144.33 126.65 144.46 126.56C153.96 120.05 159.63 109.11 159.63 97.31L159.63 90.82C159.63 90.79 159.63 90.76 159.63 90.73C157.66 56.94 157.39 56.19 157.3 55.95C152.16 42.11 123.18 39.08 103.06 46.31C93.48 49.75 86.22 55.21 82.07 62.09C77.2 70.2 76.65 79.94 80.45 91.05L80.45 97.31C80.45 109.11 86.12 120.04 95.62 126.56L96.02 126.83C103.32 131.72 111.68 134.17 120.04 134.17ZM156.82 90.86L156.82 97.31C156.82 108.18 151.6 118.25 142.87 124.25C142.75 124.33 142.62 124.42 142.49 124.5C128.85 133.64 111.23 133.64 97.59 124.5L97.21 124.24C88.48 118.25 83.27 108.18 83.27 97.31L83.27 90.82C83.27 90.66 83.24 90.5 83.19 90.36C73.75 63.13 94.6 52.33 104.01 48.95C124.4 41.63 150.34 45.69 154.63 56.83C154.89 58.65 156.07 78.04 156.82 90.86ZM154.66 56.91C154.66 56.91 154.66 56.92 154.67 56.93C154.66 56.92 154.66 56.92 154.66 56.91Z" fill="#000072" fill-opacity="1.000000" fill-rule="nonzero"/>
	<path id="Vector" d="M82.3 42.67C71.76 56.14 73.07 79.58 81.95 91.87C88.74 88.12 89.19 70.39 89.19 70.39C105.28 74.77 121.55 72.1 136.31 59.38C136.62 64.38 132.43 69.01 132.43 69.01C134.33 68.96 136.03 68.68 137.56 68.22C142.9 66.62 146.07 62.76 148.02 57.9C149.89 74.77 150.01 78.52 158.23 90.82C166.43 73.24 167.93 51.57 154.27 45.09C173.32 38.53 166.29 25.25 149.89 37.05C157.94 25.49 147.78 21.03 145.68 33.77C133.82 12.1 81.72 19.71 74.65 44.31L82.28 42.67C82.3 42.67 82.3 42.67 82.3 42.67Z" fill="#AC3D50" fill-opacity="1.000000" fill-rule="nonzero"/>
	<path id="Vector" d="M81.86 92.25L82.09 92.13C88.48 88.6 89.37 73.42 89.47 70.77C106.56 75.31 122.21 71.69 136.03 60C135.98 64.59 132.26 68.77 132.22 68.82L131.76 69.32L132.44 69.3C134.3 69.25 136.05 68.98 137.64 68.5C142.26 67.12 145.61 64.02 147.85 59.04L147.95 59.97C149.62 75.07 150.07 79.13 157.98 90.98L158.27 91.41L158.49 90.94C166.75 73.24 168.12 52.02 155.01 45.14C162.71 42.34 165.74 38.58 165.99 35.94C166.12 34.56 165.53 33.42 164.32 32.73C162.06 31.44 157.41 31.67 150.95 35.96C153.66 31.53 153.59 28.32 152.61 26.86C152.03 26 151.14 25.62 150.15 25.84C148.51 26.19 146.48 28.25 145.53 32.93C139.01 22.09 123.28 19.7 110.54 21.11C95.35 22.8 78.28 30.6 74.37 44.23L74.24 44.7L81.59 43.12C71.36 56.96 73.14 80.18 81.71 92.04L81.86 92.25ZM88.91 70.01L88.9 70.38C88.9 70.56 88.39 87.59 82.03 91.48C73.58 79.54 71.99 56.32 82.53 42.85L82.9 42.38L82.19 42.4L75.07 43.92C79.17 30.85 95.79 23.34 110.6 21.7C123.42 20.27 139.3 22.73 145.42 33.91L145.83 34.65L145.96 33.81C146.79 28.85 148.8 26.72 150.28 26.41C151.03 26.25 151.68 26.52 152.12 27.18C153.09 28.63 153.02 32.04 149.65 36.88L148.68 38.28L150.06 37.28C156.95 32.33 161.89 32.01 164.03 33.24C165.02 33.81 165.51 34.75 165.4 35.89C165.18 38.3 162.1 42.09 154.17 44.82L153.49 45.05L154.14 45.36C167.45 51.66 166.25 72.61 158.18 90.22C150.62 78.82 150.17 74.71 148.53 59.9L148.18 56.71L147.75 57.79C145.58 63.2 142.22 66.52 137.48 67.94C136.12 68.35 134.65 68.6 133.08 68.69C134.16 67.33 136.86 63.51 136.6 59.37L136.56 58.78L136.11 59.16C122.25 71.11 106.49 74.79 89.27 70.11L88.91 70.01Z" fill="#000072" fill-opacity="1.000000" fill-rule="nonzero"/>
	<g opacity="0.300000">
		<path id="Vector" d="M149.97 54.96C149.27 56.31 148.63 57.83 148.21 59.63C149.91 75.04 150.3 78.95 158.23 90.82C159.15 88.82 160 86.79 160.74 84.72C154.23 74.63 153.47 68.93 151.97 55.33C151.85 54.28 150.45 54.03 149.97 54.96Z" fill="#000072" fill-opacity="1.000000" fill-rule="nonzero"/>
	</g>
	<g opacity="0.550000">
		<path id="Vector" d="M152.99 35.05C163.31 30.67 167.04 38.23 156.99 44.03C171.5 37.71 166.33 27.41 152.99 35.05Z" fill="#FFFFFF" fill-opacity="1.000000" fill-rule="nonzero"/>
	</g>
	<g opacity="0.550000">
		<path id="Vector" d="M154.59 45.26C154.58 45.26 154.57 45.27 154.56 45.27C153.27 45.84 152.99 47.55 154.08 48.45C163.42 56.2 163.07 73.61 156.9 88.8C157.32 89.44 157.76 90.12 158.23 90.82C166.36 73.38 167.91 51.92 154.59 45.26Z" fill="#FFFFFF" fill-opacity="1.000000" fill-rule="nonzero"/>
	</g>
	<g opacity="0.550000">
		<path id="Vector" d="M150.53 36.86L150.57 36.84C156.01 28.46 151.06 23.63 147.75 27.5C149.58 27.77 150.66 30.59 148.63 35.06C148.09 36.25 149.39 37.48 150.53 36.86Z" fill="#FFFFFF" fill-opacity="1.000000" fill-rule="nonzero"/>
	</g>
	<g opacity="0.550000">
		<path id="Vector" d="M85 31.66C93.97 27.52 106 24.75 116.91 24.69C118.59 27.92 124.26 27.76 126.65 25.47C132.78 26.57 137.98 28.89 141.22 32.77C142.15 33.88 143.97 33.8 144.7 32.55C144.74 32.49 144.78 32.42 144.81 32.34C134.64 19.37 100.34 18.3 85 31.66Z" fill="#FFFFFF" fill-opacity="1.000000" fill-rule="nonzero"/>
	</g>
	<path id="Vector" d="M81.95 93.28C82.18 93.28 82.41 93.22 82.63 93.1C88.83 89.68 90.21 77.05 90.52 72.18C106.52 76.06 121.28 72.88 134.45 62.71C133.5 65.69 131.42 68.04 131.39 68.07C131.01 68.49 130.92 69.09 131.16 69.6C131.39 70.1 131.89 70.42 132.43 70.42C132.45 70.42 132.46 70.42 132.48 70.42C138.93 70.22 143.84 67.61 147.13 62.66C148.62 75.91 149.46 80.23 157.06 91.6C157.34 92.02 157.82 92.25 158.33 92.22C158.84 92.18 159.28 91.87 159.5 91.41C167.56 74.14 169.11 53.55 157.49 45.35C164.14 42.46 166.84 38.75 167.1 36.05C167.27 34.24 166.46 32.67 164.87 31.77C162.75 30.54 158.84 30.45 153.59 33.12C154.75 29.97 154.44 27.61 153.53 26.24C152.71 25 151.35 24.44 149.92 24.75C147.86 25.19 146.14 27.2 145.08 30.31C137.65 20.77 122.67 18.65 110.41 20.01C94.86 21.74 77.36 29.8 73.3 43.92C73.17 44.4 73.29 44.91 73.63 45.27C73.96 45.63 74.46 45.79 74.95 45.68L79.13 44.79C75.33 51.03 73.32 59.03 73.44 67.73C73.56 77.29 76.25 86.38 80.81 92.69C81.08 93.07 81.51 93.28 81.95 93.28ZM89.19 68.99C88.9 68.99 88.6 69.08 88.35 69.26C88.01 69.52 87.8 69.92 87.79 70.35C87.68 74.72 86.46 86.07 82.3 89.89C74.64 78.02 73.43 56.29 83.41 43.54C83.77 43.07 83.81 42.43 83.49 41.92C83.18 41.42 82.59 41.17 82.01 41.29L76.82 42.41C81.69 30.95 96.99 24.33 110.72 22.8C126.39 21.06 139.62 25.63 144.44 34.44C144.73 34.97 145.32 35.25 145.91 35.15C146.5 35.05 146.97 34.59 147.06 34C147.85 29.27 149.66 27.68 150.51 27.5C150.72 27.45 150.96 27.45 151.19 27.8C151.77 28.67 152 31.55 148.74 36.24C148.35 36.81 148.42 37.57 148.91 38.05C149.4 38.53 150.16 38.59 150.71 38.19C156.76 33.84 161.48 33.06 163.47 34.2C164.09 34.56 164.36 35.08 164.3 35.78C164.08 38.03 160.76 41.37 153.81 43.76C153.27 43.95 152.89 44.44 152.86 45.01C152.83 45.58 153.15 46.12 153.66 46.36C161.02 49.85 162.82 57.79 163.04 63.85C163.3 71.02 161.47 79.66 157.99 87.89C151.65 78.02 151.21 73.95 149.64 59.78L149.42 57.74C149.34 57.1 148.85 56.59 148.21 56.51C147.57 56.42 146.95 56.78 146.71 57.38C144.45 63.04 140.74 66.3 135.4 67.29C136.61 65.3 137.9 62.39 137.71 59.3C137.67 58.76 137.34 58.3 136.85 58.09C136.36 57.88 135.79 57.97 135.39 58.32C121.82 70.01 106.4 73.62 89.56 69.03C89.44 69 89.32 68.99 89.19 68.99Z" fill="#000072" fill-opacity="1.000000" fill-rule="nonzero"/>
	<path id="Vector" d="M89.19 71.8C89.81 71.8 90.38 71.38 90.55 70.76C90.75 70.01 90.31 69.23 89.56 69.03C87.81 68.56 86.05 68 84.31 67.36C83.58 67.09 82.77 67.46 82.51 68.19C82.24 68.92 82.61 69.72 83.34 69.99C85.15 70.67 87 71.26 88.83 71.75C88.95 71.78 89.07 71.8 89.19 71.8Z" fill="#000072" fill-opacity="1.000000" fill-rule="nonzero"/>
	<g opacity="0.300000">
		<path id="Vector" d="M81.95 91.87C88.74 88.12 89.19 70.39 89.19 70.39C105.28 74.77 121.55 72.1 136.31 59.38C136.62 64.38 132.43 69.01 132.43 69.01C134.33 68.96 136.03 68.68 137.56 68.22C145.25 55.54 141.98 52.55 130.92 56.45C100.22 66.36 77.86 67.91 82.3 42.67C71.76 56.14 73.07 79.58 81.95 91.87Z" fill="#000072" fill-opacity="1.000000" fill-rule="nonzero"/>
	</g>
	<g opacity="0.200000">
		<path id="Vector" d="M89.74 54.39C89.74 56.51 93.91 58.24 99.06 58.24C104.2 58.24 108.37 56.51 108.37 54.39C108.37 52.26 104.2 52.2 99.06 52.2C93.91 52.2 89.74 52.26 89.74 54.39Z" fill="#FEFEFE" fill-opacity="1.000000" fill-rule="nonzero"/>
	</g>
	<path id="Vector" d="M115.12 116.81C115.12 116.81 117.13 118.1 122.39 118.1C123.53 118.18 126.79 118 130.91 114.23C130.91 114.23 129.01 119.72 122.51 119.72C122.51 119.72 118.81 120.06 115.12 116.81Z" fill="#000072" fill-opacity="1.000000" fill-rule="nonzero"/>
	<path id="Vector" d="M144.95 92.42C144.51 90.98 143.45 89.79 142.15 88.98C140.84 88.17 139.28 87.75 137.72 87.77C136.16 87.78 134.62 88.22 133.33 89.03C132.04 89.84 130.98 91 130.49 92.42C131.9 91.93 133.1 91.54 134.29 91.29C135.47 91.04 136.61 90.91 137.75 90.89C138.89 90.88 140.02 90.98 141.19 91.23C142.37 91.48 143.56 91.87 144.95 92.42Z" fill="#000072" fill-opacity="1.000000" fill-rule="nonzero"/>
	<path id="Vector" d="M94.57 92.42C95.96 91.87 97.15 91.48 98.33 91.23C99.5 90.98 100.63 90.88 101.77 90.89C102.91 90.91 104.05 91.04 105.23 91.29C106.42 91.54 107.62 91.93 109.04 92.42C108.54 91 107.49 89.84 106.2 89.03C104.9 88.22 103.36 87.78 101.8 87.77C100.25 87.75 98.68 88.17 97.37 88.98C96.07 89.79 95.01 90.98 94.57 92.42Z" fill="#000072" fill-opacity="1.000000" fill-rule="nonzero"/>
	<path id="Vector" d="M131.47 100.98C131.47 104.5 133.64 107.35 136.31 107.35C138.97 107.35 141.14 104.5 141.14 100.98C141.14 97.46 138.97 94.6 136.31 94.6C133.64 94.6 131.47 97.46 131.47 100.98Z" fill="#000072" fill-opacity="1.000000" fill-rule="evenodd"/>
	<path id="Vector" d="M133.61 99.5C133.61 100.68 134.26 101.64 135.07 101.64C135.88 101.64 136.53 100.68 136.53 99.5C136.53 98.32 135.88 97.36 135.07 97.36C134.26 97.36 133.61 98.32 133.61 99.5Z" fill="#FFFFFF" fill-opacity="1.000000" fill-rule="evenodd"/>
	<path id="Vector" d="M135.07 101.93C136.05 101.93 136.82 100.86 136.82 99.5C136.82 98.14 136.05 97.07 135.07 97.07C134.09 97.07 133.32 98.14 133.32 99.5C133.32 100.86 134.09 101.93 135.07 101.93ZM135.07 97.65C135.7 97.65 136.24 98.5 136.24 99.5C136.24 100.5 135.7 101.35 135.07 101.35C134.44 101.35 133.9 100.5 133.9 99.5C133.9 98.5 134.44 97.65 135.07 97.65Z" fill="#000072" fill-opacity="1.000000" fill-rule="nonzero"/>
	<path id="Vector" d="M98.06 100.98C98.06 104.5 100.22 107.35 102.89 107.35C105.56 107.35 107.72 104.5 107.72 100.98C107.72 97.46 105.56 94.6 102.89 94.6C100.22 94.6 98.06 97.46 98.06 100.98Z" fill="#000072" fill-opacity="1.000000" fill-rule="evenodd"/>
	<path id="Vector" d="M102.67 99.5C102.67 100.68 103.32 101.64 104.13 101.64C104.93 101.64 105.59 100.68 105.59 99.5C105.59 98.32 104.93 97.36 104.13 97.36C103.32 97.36 102.67 98.32 102.67 99.5Z" fill="#FFFFFF" fill-opacity="1.000000" fill-rule="evenodd"/>
	<path id="Vector" d="M104.13 101.93C105.11 101.93 105.88 100.86 105.88 99.5C105.88 98.14 105.11 97.07 104.13 97.07C103.14 97.07 102.37 98.14 102.37 99.5C102.37 100.86 103.14 101.93 104.13 101.93ZM104.13 97.65C104.76 97.65 105.29 98.5 105.29 99.5C105.29 100.5 104.76 101.35 104.13 101.35C103.49 101.35 102.96 100.5 102.96 99.5C102.96 98.5 103.49 97.65 104.13 97.65Z" fill="#000072" fill-opacity="1.000000" fill-rule="nonzero"/>
	<path id="Vector" d="M49.47 214.4C50.22 218.1 52.23 221.29 54.99 223.56C57.76 225.81 61.28 227.15 65.07 227.15L172.49 227.15C180.05 227.15 186.57 221.81 188.08 214.4L49.47 214.4Z" fill="#C6D3E3" fill-opacity="1.000000" fill-rule="nonzero"/>
	<path id="Vector" d="M65.07 227.44L172.49 227.44C180.16 227.44 186.84 221.98 188.36 214.46L188.43 214.11L49.12 214.11L49.19 214.46C49.93 218.11 51.92 221.42 54.81 223.78C57.7 226.14 61.34 227.44 65.07 227.44ZM187.72 214.69C186.11 221.76 179.76 226.86 172.49 226.86L65.07 226.86C61.47 226.86 57.96 225.6 55.18 223.33C52.49 221.13 50.6 218.07 49.84 214.69L187.72 214.69Z" fill="#000072" fill-opacity="1.000000" fill-rule="nonzero"/>
	<path id="Vector" d="M65.06 228.9L172.48 228.9C180.85 228.9 188.13 222.95 189.79 214.75C189.9 214.23 189.76 213.7 189.43 213.29C189.1 212.88 188.6 212.65 188.08 212.65L49.47 212.65C48.95 212.65 48.45 212.88 48.12 213.29C47.78 213.7 47.65 214.23 47.76 214.75C49.42 222.95 56.7 228.9 65.06 228.9ZM185.76 216.15C183.73 221.62 178.45 225.4 172.48 225.4L65.06 225.4C59.1 225.4 53.82 221.62 51.79 216.15L185.76 216.15Z" fill="#000072" fill-opacity="1.000000" fill-rule="nonzero"/>
	<g opacity="0.300000">
		<path id="Vector" d="M49.47 214.4C50.22 218.1 52.23 221.29 54.99 223.56C57.76 225.81 61.28 227.15 65.07 227.15L131.51 227.15C120.59 226.63 110.91 223.62 102.58 217.87C102.58 217.87 102.01 216.47 100.74 214.4L49.47 214.4Z" fill="#000072" fill-opacity="1.000000" fill-rule="nonzero"/>
	</g>
	<path id="Vector" d="M49.52 147.04L55.12 210.98C55.46 214.88 58.73 217.87 62.65 217.87L174.9 217.87C178.82 217.87 182.08 214.88 182.43 210.98L188.03 147.04C188.58 140.76 183.63 135.36 177.33 135.36L60.22 135.36C58.16 135.36 56.24 135.93 54.61 136.93C51.26 138.99 49.14 142.82 49.52 147.04Z" fill="#C6D3E3" fill-opacity="1.000000" fill-rule="nonzero"/>
	<path id="Vector" d="M62.65 218.16L174.9 218.16C179 218.16 182.36 215.09 182.72 211L188.32 147.07C188.59 143.99 187.55 140.92 185.47 138.64C183.38 136.37 180.42 135.06 177.33 135.06L60.22 135.06C58.18 135.06 56.19 135.62 54.46 136.68C50.86 138.89 48.86 142.87 49.22 147.07L49.22 147.07L54.83 211C55.19 215.09 58.55 218.16 62.65 218.16ZM177.33 135.65C180.25 135.65 183.06 136.88 185.04 139.04C187.01 141.2 188 144.1 187.74 147.01L182.14 210.95C181.8 214.73 178.69 217.58 174.9 217.58L62.65 217.58C58.85 217.58 55.74 214.73 55.41 210.95L49.81 147.01C49.46 143.04 51.36 139.27 54.76 137.18C56.4 136.18 58.29 135.65 60.22 135.65L177.33 135.65Z" fill="#000072" fill-opacity="1.000000" fill-rule="nonzero"/>
	<g opacity="0.750000">
		<path id="Vector" d="M51.3 140.1C52.67 139.46 54.2 139.1 55.83 139.1L172.94 139.1C179.24 139.1 184.19 144.51 183.64 150.79L178.04 214.72C177.95 215.72 177.67 216.66 177.24 217.5C180.05 216.59 182.16 214.07 182.43 210.98L188.03 147.04C188.58 140.76 183.63 135.36 177.33 135.36L60.22 135.36C56.49 135.36 53.23 137.25 51.3 140.1Z" fill="#FFFFFF" fill-opacity="1.000000" fill-rule="nonzero"/>
	</g>
	<path id="Vector" d="M62.65 219.62L174.9 219.62C179.76 219.62 183.75 215.97 184.17 211.13L189.78 147.19C190.08 143.71 188.91 140.24 186.54 137.66C184.18 135.08 180.83 133.6 177.33 133.6L60.22 133.6C56.72 133.6 53.36 135.08 51 137.66C48.64 140.24 47.46 143.71 47.77 147.19L53.38 211.13C53.8 215.97 57.79 219.62 62.65 219.62ZM177.33 137.11C179.88 137.11 182.24 138.14 183.96 140.03C185.68 141.91 186.51 144.34 186.29 146.89L180.68 210.82C180.42 213.84 177.93 216.12 174.9 216.12L62.65 216.12C59.62 216.12 57.13 213.84 56.87 210.82L51.26 146.89C51.04 144.34 51.86 141.91 53.59 140.03C55.31 138.14 57.67 137.11 60.22 137.11L177.33 137.11Z" fill="#000072" fill-opacity="1.000000" fill-rule="nonzero"/>
	<g opacity="0.300000">
		<path id="Vector" d="M49.52 147.04L55.12 210.98C55.46 214.88 58.73 217.87 62.65 217.87L163.91 217.87C101.6 212.97 63.04 187.79 54.63 136.93L54.61 136.93C51.26 138.99 49.14 142.82 49.52 147.04Z" fill="#000072" fill-opacity="1.000000" fill-rule="nonzero"/>
	</g>
	<g opacity="0.300000">
		<path id="Vector" d="M159.78 189.02L166.81 189.68C168.63 189.85 170.25 188.51 170.42 186.69L172.84 160.87C173.01 159.05 171.67 157.43 169.84 157.26L162.81 156.61C160.99 156.44 159.37 157.78 159.2 159.6L156.79 185.41C156.62 187.24 157.96 188.85 159.78 189.02Z" fill="#FFFFFF" fill-opacity="1.000000" fill-rule="nonzero"/>
	</g>
	<rect id="layers 1" rx="-0.500000" width="39.000000" height="39.000000" transform="translate(98.641235 157.500000)" fill="#FFFFFF" fill-opacity="0"/>
	<g clip-path="url(#clip2_1059)">
		<path id="Vector" d="M137.55 175.96L131.21 172.45C130.84 172.26 130.42 172.26 130.04 172.45L127.51 173.88L127.51 164.1L108.76 164.1L108.76 173.88L106.23 172.45C105.86 172.26 105.43 172.26 105.06 172.45L98.72 175.96C98.37 176.18 98.14 176.57 98.14 177C98.14 177.42 98.37 177.82 98.72 178.03L103.23 180.51L115.21 190.92L121.07 190.92L133.04 180.51L137.55 178.03C137.9 177.82 138.14 177.42 138.14 177C138.14 176.57 137.9 176.18 137.55 175.96ZM118.14 179.18L112.2 175.82L124.07 175.82L118.14 179.18Z" fill="url(#paint_linear_2_1063_0)" fill-opacity="1.000000" fill-rule="nonzero"/>
		<path id="Vector" d="M137.55 183L133.04 180.51L118.72 188.57C118.54 188.67 118.32 188.71 118.14 188.71C117.95 188.71 117.74 188.67 117.55 188.57L103.23 180.51L98.72 183C98.37 183.21 98.14 183.6 98.14 184.03C98.14 184.45 98.37 184.85 98.72 185.06L117.55 195.6C117.74 195.7 117.95 195.75 118.14 195.75C118.32 195.75 118.54 195.7 118.72 195.6L137.55 185.06C137.9 184.85 138.14 184.45 138.14 184.03C138.14 183.6 137.9 183.21 137.55 183ZM98.72 171L117.55 181.54C117.74 181.64 117.95 181.68 118.14 181.68C118.32 181.68 118.54 181.64 118.72 181.54L137.55 171C137.9 170.78 138.14 170.39 138.14 169.96C138.14 169.54 137.9 169.14 137.55 168.93L118.72 158.39C118.35 158.2 117.93 158.2 117.55 158.39L98.72 168.93C98.37 169.14 98.14 169.54 98.14 169.96C98.14 170.39 98.37 170.78 98.72 171ZM122 168.44C121.54 168 121.54 167.25 122 166.8C122.45 166.33 123.2 166.33 123.64 166.8L125.99 169.14C126.46 169.59 126.46 170.34 125.99 170.78L123.64 173.13C123.22 173.6 122.43 173.6 122 173.13C121.54 172.68 121.54 171.93 122 171.49L123.5 169.96L122 168.44ZM116.4 172.03L117.57 167.34C117.74 166.71 118.37 166.33 119 166.5C119.64 166.64 120.01 167.27 119.87 167.9L118.7 172.59C118.5 173.35 117.63 173.62 117.27 173.43C116.64 173.29 116.26 172.66 116.4 172.03ZM110.29 169.14L112.63 166.8C113.07 166.33 113.82 166.33 114.27 166.8C114.74 167.25 114.74 168 114.27 168.44L112.77 169.96L114.27 171.49C114.74 171.93 114.74 172.68 114.27 173.13C113.85 173.6 113.05 173.6 112.63 173.13L110.29 170.78C109.82 170.34 109.82 169.59 110.29 169.14Z" fill="url(#paint_linear_2_1066_0)" fill-opacity="1.000000" fill-rule="nonzero"/>
	</g>
</svg>
