<svg width="94.780762" height="84.406250" viewBox="0 0 94.7808 84.4062" fill="none" xmlns="http://www.w3.org/2000/svg" xmlns:xlink="http://www.w3.org/1999/xlink">
	<desc>
			Created with Pixso.
	</desc>
	<defs/>
	<path id="Vector" d="M94.78 42.21C94.78 35.93 86.91 29.98 74.86 26.29C77.64 14 76.4 4.23 70.96 1.1C69.7 0.36 68.23 0.01 66.63 0.01L66.63 4.32C67.52 4.32 68.23 4.5 68.83 4.82C71.46 6.33 72.6 12.07 71.71 19.45C71.5 21.27 71.15 23.18 70.72 25.13C66.94 24.2 62.8 23.49 58.46 23.02C55.85 19.45 53.14 16.2 50.42 13.36C56.72 7.51 62.63 4.3 66.65 4.3L66.65 0C61.33 0 54.38 3.78 47.35 10.35C40.31 3.82 33.36 0.07 28.05 0.07L28.05 4.38C32.05 4.38 37.98 7.57 44.28 13.38C41.57 16.22 38.87 19.45 36.3 23.02C31.93 23.49 27.8 24.2 24.01 25.15C23.56 23.22 23.24 21.34 23 19.55C22.1 12.17 23.22 6.43 25.83 4.9C26.4 4.55 27.16 4.4 28.05 4.4L28.05 0.09C26.42 0.09 24.96 0.44 23.68 1.17C18.25 4.3 17.03 14.06 19.84 26.31C7.82 30.02 0 35.95 0 42.21C0 48.49 7.86 54.44 19.91 58.13C17.13 70.41 18.37 80.19 23.82 83.32C25.07 84.05 26.54 84.4 28.16 84.4C33.48 84.4 40.43 80.61 47.46 74.05C54.49 80.58 61.45 84.32 66.76 84.32C68.39 84.32 69.85 83.98 71.13 83.24C76.56 80.11 77.77 70.36 74.97 58.11C86.95 54.42 94.78 48.47 94.78 42.21ZM69.62 29.32C68.91 31.81 68.02 34.38 67.01 36.95C66.22 35.41 65.39 33.86 64.48 32.32C63.59 30.77 62.65 29.26 61.7 27.8C64.44 28.2 67.09 28.7 69.62 29.32ZM60.77 49.9C59.27 52.51 57.72 54.98 56.12 57.28C53.24 57.53 50.32 57.66 47.39 57.66C44.47 57.66 41.55 57.53 38.69 57.3C37.09 55 35.52 52.54 34.02 49.95C32.55 47.42 31.22 44.85 30 42.27C31.2 39.68 32.55 37.09 34 34.56C35.5 31.95 37.05 29.48 38.65 27.18C41.53 26.93 44.45 26.79 47.39 26.79C50.3 26.79 53.22 26.93 56.08 27.16C57.68 29.46 59.25 31.91 60.75 34.5C62.22 37.03 63.56 39.6 64.77 42.19C63.56 44.78 62.22 47.37 60.77 49.9ZM67.01 47.39C68.06 49.97 68.95 52.56 69.68 55.07C67.15 55.69 64.48 56.21 61.72 56.62C62.67 55.13 63.61 53.61 64.5 52.04C65.39 50.5 66.22 48.93 67.01 47.39ZM47.42 68C45.63 66.14 43.83 64.08 42.05 61.82C43.79 61.89 45.57 61.95 47.37 61.95C49.18 61.95 50.98 61.91 52.74 61.82C51 64.08 49.2 66.14 47.42 68ZM33.05 56.62C30.31 56.21 27.66 55.71 25.13 55.09C25.84 52.6 26.73 50.03 27.74 47.46C28.53 49.01 29.36 50.55 30.27 52.1C31.18 53.64 32.1 55.15 33.05 56.62ZM47.33 16.42C49.12 18.27 50.92 20.34 52.7 22.6C50.96 22.52 49.18 22.46 47.39 22.46C45.57 22.46 43.77 22.5 42.01 22.6C43.75 20.34 45.55 18.27 47.33 16.42ZM33.03 27.8C32.08 29.28 31.14 30.81 30.25 32.37C29.36 33.92 28.53 35.47 27.74 37.01C26.69 34.42 25.81 31.83 25.07 29.32C27.6 28.72 30.27 28.2 33.03 27.8ZM15.55 51.98C8.71 49.07 4.28 45.24 4.28 42.21C4.28 39.17 8.71 35.33 15.55 32.43C17.21 31.72 19.02 31.08 20.9 30.48C22 34.27 23.45 38.21 25.25 42.25C23.47 46.26 22.04 50.19 20.96 53.95C19.04 53.36 17.23 52.7 15.55 51.98ZM25.94 79.59C23.31 78.08 22.17 72.35 23.06 64.97C23.27 63.15 23.62 61.24 24.05 59.29C27.83 60.21 31.97 60.93 36.32 61.39C38.92 64.97 41.63 68.21 44.35 71.05C38.05 76.91 32.14 80.11 28.12 80.11C27.25 80.09 26.52 79.92 25.94 79.59ZM71.77 64.87C72.67 72.25 71.55 77.99 68.95 79.51C68.37 79.86 67.61 80.02 66.72 80.02C62.73 80.02 56.79 76.83 50.5 71.01C53.2 68.17 55.91 64.95 58.47 61.37C62.84 60.91 66.98 60.19 70.76 59.25C71.21 61.2 71.55 63.07 71.77 64.87ZM79.2 51.98C77.54 52.7 75.73 53.34 73.85 53.93C72.75 50.15 71.3 46.21 69.51 42.17C71.28 38.15 72.71 34.23 73.79 30.46C75.71 31.06 77.52 31.72 79.22 32.43C86.06 35.35 90.49 39.17 90.49 42.21C90.47 45.24 86.04 49.09 79.2 51.98Z" fill="#61DAFB" fill-opacity="1.000000" fill-rule="nonzero"/>
	<path id="Vector" d="M56.2 42.21C56.2 47.08 52.24 51.04 47.37 51.04C42.49 51.04 38.54 47.08 38.54 42.21C38.54 37.33 42.49 33.38 47.37 33.38C52.24 33.38 56.2 37.33 56.2 42.21Z" fill="#61DAFB" fill-opacity="1.000000" fill-rule="evenodd"/>
</svg>
